<svg width="1920" height="977" viewBox="0 0 1920 977" fill="none" xmlns="http://www.w3.org/2000/svg">
<g clip-path="url(#clip0_563_5161)">
<rect width="1920" height="977" fill="white"/>
<path d="M1919.75 526.682L1863.68 494.292L1918.26 462.779L1918.75 462.5V397.721L1919.75 397.143L1918.75 396.565V331.805L1863.7 300.013L1918.4 268.5L1918.89 268.201V201.149L1861.31 234.396L1860.81 234.675V298.299V364.215L1808.37 394.392C1807.88 393.897 1807.27 393.545 1806.6 393.375V267.065L1750.51 234.695V169.895L1697.15 139.16C1697.25 138.824 1697.3 138.475 1697.31 138.123C1697.3 137.78 1697.26 137.439 1697.17 137.107L1749.97 106.611L1750.47 106.331V42.7476L1804.52 73.9416V204.597L1858.82 173.264C1859.56 173.996 1860.55 174.41 1861.59 174.42C1862.48 174.327 1863.32 173.935 1863.96 173.309C1864.6 172.682 1865.01 171.857 1865.13 170.967C1865.24 170.077 1865.06 169.174 1864.59 168.404C1864.13 167.635 1863.42 167.043 1862.59 166.726V41.6314L1918.4 9.50067L1918.89 9.20169V-57.8503L1862.59 -25.4405L1805.56 7.46759L1748.47 -25.4405V40.4355L1692.94 72.5065L1692.44 72.8054V134.356C1691.66 134.627 1690.98 135.136 1690.5 135.811C1690.02 136.486 1689.76 137.294 1689.76 138.123C1689.76 138.952 1690.02 139.76 1690.5 140.436C1690.98 141.111 1691.66 141.619 1692.44 141.891V203.461L1748.51 235.831V299.455L1694.44 330.689V267.065L1638.35 234.675V233.519L1637.35 234.097L1636.35 233.519V234.675L1580.78 266.766L1580.29 267.065V334.117L1634.58 302.764C1634.94 303.131 1635.37 303.423 1635.85 303.621C1636.32 303.82 1636.84 303.921 1637.35 303.92C1638.4 303.915 1639.4 303.5 1640.14 302.764L1692.44 332.961V463.637L1749.51 430.669L1804.6 462.56L1859.7 494.352L1805.6 525.586L1804.6 525.008V526.164L1803.61 526.742L1804.6 527.32V592.08L1860.69 624.35V684.765C1859.96 684.938 1859.29 685.316 1858.76 685.855C1858.23 686.394 1857.87 687.071 1857.71 687.808C1857.55 688.545 1857.61 689.312 1857.87 690.019C1858.13 690.727 1858.58 691.346 1859.18 691.805C1859.78 692.264 1860.49 692.545 1861.25 692.614C1862 692.683 1862.75 692.537 1863.42 692.195C1864.09 691.852 1864.65 691.326 1865.04 690.678C1865.42 690.029 1865.62 689.285 1865.6 688.532C1865.59 688.187 1865.54 687.844 1865.44 687.515L1918.26 657.019L1918.75 656.72V589.688L1862.69 622.058V559.61L1919.75 526.682ZM1862.72 235.831L1916.82 204.597V267.065L1862.72 298.279V235.831ZM1916.76 461.324L1862.69 492.558V430.091L1916.76 398.877V461.324ZM1916.76 395.409L1862.69 364.195V301.727L1916.76 332.961V395.409ZM1861.69 365.909L1915.76 397.123L1891.21 411.314L1861.69 428.357L1809.37 398.159C1809.55 397.507 1809.55 396.818 1809.37 396.166L1861.69 365.909ZM1804.6 332.981V393.375C1803.93 393.554 1803.32 393.905 1802.83 394.392L1777.55 379.802L1750.51 364.195V301.747L1777.55 317.394L1804.6 332.981ZM1806.6 73.8618L1860.59 42.7277V105.175L1806.56 136.409L1806.6 73.8618ZM1806.6 201.069V138.701L1860.59 107.468V166.726C1859.77 166.958 1859.04 167.449 1858.51 168.128C1857.99 168.806 1857.7 169.636 1857.68 170.493C1857.68 170.845 1857.74 171.194 1857.84 171.53L1806.6 201.069ZM1862.72 -23.1682L1916.82 -54.402V8.06555L1862.72 39.2794V-23.1682ZM1860.59 40.3358L1806.52 71.5696V9.20169L1860.59 -22.0321V40.3358ZM1750.47 -22.0321L1804.56 9.20169V71.6494L1750.51 40.4355V39.2595L1750.47 -22.0321ZM1748.47 42.7277V105.175L1696.17 135.373C1695.68 134.885 1695.07 134.535 1694.4 134.356V73.9416L1748.47 42.7277ZM1694.4 202.305V141.99C1695.06 141.817 1695.68 141.474 1696.17 140.994L1748.47 171.191V233.639L1694.4 202.305ZM1804.56 268.221V330.669L1777.51 315.062L1750.51 299.455V236.987L1804.56 268.221ZM1582.28 330.669V268.201L1636.35 236.987V296.246C1635.53 296.477 1634.8 296.969 1634.28 297.647C1633.75 298.326 1633.46 299.155 1633.44 300.013C1633.45 300.358 1633.5 300.701 1633.6 301.029L1582.28 330.669ZM1638.35 296.246V236.987L1692.44 268.201V330.669L1641.12 301.029C1641.21 300.698 1641.27 300.357 1641.28 300.013C1641.26 299.153 1640.97 298.321 1640.44 297.642C1639.91 296.963 1639.18 296.474 1638.35 296.246ZM1694.44 332.981L1748.51 301.747V364.195L1694.44 395.428V332.981ZM1694.44 397.721L1748.51 366.507V429.014L1694.44 460.228V397.721ZM1750.51 429.014V366.507L1777.55 382.114L1801.83 396.066C1801.74 396.398 1801.7 396.74 1801.69 397.083C1801.71 397.94 1802 398.77 1802.52 399.448C1803.05 400.127 1803.78 400.619 1804.6 400.85V460.109L1750.51 429.014ZM1806.6 400.97C1807.27 400.8 1807.88 400.448 1808.37 399.953L1860.69 430.15V492.618L1806.6 461.384V400.97ZM1860.69 496.066L1861.69 495.488L1862.69 496.066L1915.76 526.682L1861.69 557.896L1807.59 526.682L1860.69 496.066ZM1806.6 528.436L1860.69 559.67V622.118L1806.6 590.904V528.436ZM1916.76 593.196V655.664L1864.46 685.861C1863.97 685.366 1863.36 685.014 1862.69 684.844V624.35L1916.76 593.196ZM1585.19 202.883C1585.19 202.538 1585.13 202.195 1585.03 201.867L1637.85 171.37L1638.35 171.071V41.6314L1690.35 11.6135C1690.71 12.1239 1691.18 12.5409 1691.73 12.8289C1692.28 13.117 1692.9 13.2675 1693.52 13.2679C1694.4 13.1666 1695.23 12.7722 1695.86 12.1474C1696.5 11.5227 1696.91 10.7036 1697.02 9.82071C1697.13 8.93784 1696.95 8.04201 1696.5 7.27597C1696.04 6.50993 1695.35 5.91782 1694.52 5.59396V-57.8503L1638.45 -25.4405V-89.0841L1580.36 -122.61V-55.5382L1635.36 -23.7662L1581.28 7.46759L1528.96 -22.7297C1529.05 -23.0686 1529.09 -23.4165 1529.1 -23.7662C1529.12 -24.519 1528.92 -25.2613 1528.53 -25.9072C1528.15 -26.5531 1527.58 -27.0762 1526.91 -27.416C1526.24 -27.7557 1525.49 -27.8982 1524.74 -27.827C1523.99 -27.7557 1523.27 -27.4736 1522.68 -27.0134C1522.08 -26.5531 1521.63 -25.9335 1521.37 -25.2263C1521.11 -24.519 1521.06 -23.7531 1521.22 -23.0171C1521.38 -22.2811 1521.74 -21.6051 1522.27 -21.0675C1522.79 -20.5298 1523.46 -20.1525 1524.2 -19.9791V39.2595V105.175L1469.1 137.067L1415.03 105.833L1469.6 74.2206L1470.1 73.9216V9.18176L1471.1 8.62366L1470.1 8.04564V-55.5581L1525.73 -87.649L1526.23 -87.948V-155L1468.6 -121.753L1468.11 -121.474V-57.8703L1414.11 -89.104V-90.2402L1413.11 -89.6821L1355.95 -122.63V-59.9033C1355.27 -59.7335 1354.66 -59.3819 1354.17 -58.8868L1301.87 -89.0841V-155L1245.78 -122.61L1188.2 -89.3831L1187.7 -89.0841V-25.4405L1133.62 -56.7142V-57.8703L1132.63 -57.2922L1131.63 -57.8703V-56.7142L1076.54 -24.8226L1019.45 -57.8703V8.04564L965.376 39.2595V-24.3442L907.313 -57.8703L851.224 -90.2601V-24.3442L798.922 5.85307C798.467 5.35808 797.894 4.98615 797.257 4.77184C796.62 4.55753 795.939 4.50783 795.278 4.62733C794.616 4.74684 793.996 5.03171 793.474 5.45541C792.952 5.87912 792.546 6.4279 792.293 7.05075C792.04 7.6736 791.949 8.35028 792.028 9.01785C792.106 9.68542 792.353 10.3223 792.744 10.869C793.135 11.4158 793.658 11.8549 794.264 12.1454C794.87 12.4358 795.54 12.5683 796.211 12.5304C797.257 12.526 798.259 12.1108 799.002 11.3743L851.224 41.5716V107.468L908.808 74.2206L909.307 73.9416V10.4375L963.383 41.5716V107.468L1017.68 76.2139C1018.17 76.7096 1018.79 77.0611 1019.47 77.2304V138.801L1077.53 172.327V107.468L1133.62 139.838V72.7855L1078.53 40.8939L1132.63 9.66014L1189.69 42.7277V-23.1882L1243.79 -54.422V72.8054L1188.2 104.896L1187.7 105.175V172.247L1242.02 140.894C1242.43 141.376 1242.96 141.752 1243.55 141.989C1244.14 142.227 1244.77 142.32 1245.41 142.261C1246.04 142.201 1246.65 141.991 1247.19 141.648C1247.72 141.304 1248.17 140.838 1248.49 140.287C1248.81 139.736 1248.99 139.117 1249.02 138.481C1249.05 137.846 1248.93 137.212 1248.66 136.633C1248.4 136.055 1248 135.548 1247.5 135.155C1246.99 134.762 1246.41 134.495 1245.78 134.376V73.9416L1301.37 41.8507L1301.87 41.5716V-22.0321L1355.95 9.18176V69.5963C1355.12 69.8277 1354.39 70.3193 1353.87 70.9979C1353.34 71.6765 1353.05 72.5061 1353.04 73.3635C1353.04 73.7149 1353.09 74.0641 1353.2 74.4L1300.38 104.896L1299.88 105.175V172.227L1356.94 139.279L1413.03 171.649L1469.1 139.279L1525.19 171.649L1580.29 139.857V199.116C1579.55 199.29 1578.88 199.668 1578.36 200.206C1577.83 200.745 1577.46 201.422 1577.31 202.159C1577.15 202.896 1577.2 203.663 1577.46 204.37C1577.72 205.078 1578.18 205.697 1578.77 206.156C1579.37 206.616 1580.09 206.896 1580.84 206.965C1581.59 207.034 1582.34 206.889 1583.02 206.546C1583.69 206.203 1584.25 205.677 1584.63 205.029C1585.02 204.381 1585.21 203.637 1585.19 202.883ZM1636.35 169.895L1584.05 200.093C1583.57 199.598 1582.95 199.246 1582.28 199.076V138.701L1583.28 138.123L1636.35 107.468V169.895ZM1526.19 42.7277L1580.29 73.9416V136.409L1526.19 105.175V42.7277ZM1582.28 73.9416L1636.35 42.7277V105.175L1582.28 136.409V73.9416ZM1636.35 40.3358L1582.28 71.5696V9.20169L1636.35 -22.0321V40.3358ZM1692.52 -54.4818V5.51424C1691.7 5.74564 1690.97 6.23714 1690.44 6.91577C1689.92 7.59441 1689.63 8.42401 1689.61 9.28142C1689.6 9.40082 1689.6 9.5208 1689.61 9.6402L1638.45 39.2794V-23.1682L1692.52 -54.4818ZM1582.36 -119.122L1636.45 -87.8882V-25.4405L1582.36 -56.6943V-119.122ZM1526.19 -19.9791C1526.86 -20.1645 1527.47 -20.514 1527.96 -20.9956L1580.29 9.20169V71.6494L1526.19 40.3358V-19.9791ZM1413.03 39.8176L1358.94 8.62366L1383.51 -5.50829L1413.03 -22.5504L1467.11 8.68347L1442.55 22.7955L1413.03 39.8176ZM1357.94 -52.3689C1358.62 -52.5446 1359.24 -52.8952 1359.74 -53.3855L1411.04 -23.7662L1357.94 6.88956V-52.3689ZM1412.12 -25.4405L1360.71 -55.1196C1360.8 -55.4512 1360.86 -55.7923 1360.87 -56.1362C1360.86 -56.4803 1360.81 -56.8217 1360.71 -57.1527L1412.12 -86.7919V-25.4405ZM1412.12 41.6314V104.119L1360.79 74.4997C1360.89 74.1616 1360.94 73.8138 1360.95 73.4632C1360.93 72.6032 1360.64 71.7717 1360.11 71.0927C1359.58 70.4137 1358.85 69.9238 1358.02 69.696V10.4375L1412.12 41.6314ZM1358.02 77.2105C1358.69 77.0249 1359.31 76.6757 1359.81 76.1939L1411.12 105.813L1357.94 136.409L1358.02 77.2105ZM1468.19 72.8453L1414.11 104.119V41.5716L1468.11 10.4375L1468.19 72.8453ZM1470.18 -120.258L1524.2 -151.552V-89.104L1470.1 -57.8703L1470.18 -120.258ZM1468.19 -55.4983V6.88956L1414.11 -24.3442V-86.7919L1468.19 -55.4983ZM1411.04 -88.526L1359.74 -58.8868C1359.24 -59.3826 1358.62 -59.734 1357.94 -59.9033V-119.122L1411.04 -88.526ZM1299.88 -151.532V-89.0841L1245.78 -57.8703V-120.298L1299.88 -151.532ZM1131.63 -54.422V8.0257L1077.53 39.2595V-23.1882L1131.63 -54.422ZM1021.47 -54.422L1075.54 -23.1882V39.2595L1048.51 23.6526L1021.45 8.0257L1021.47 -54.422ZM1075.54 104.119L1048.51 88.4921L1024.22 74.5396C1024.32 74.2108 1024.37 73.868 1024.38 73.523C1024.36 72.6656 1024.07 71.836 1023.54 71.1574C1023.02 70.4787 1022.29 69.9872 1021.47 69.7558V10.4375L1048.51 26.0444L1075.54 41.6713V104.119ZM963.383 39.2595L909.307 8.0257V-54.422L963.383 -23.1882V39.2595ZM853.217 -86.7919L907.313 -55.578V6.88956L853.217 -24.3442V-86.7919ZM799.899 7.58719L852.221 -22.6101L906.297 8.60373L881.74 22.7955L852.221 39.8375L799.899 9.6402C800.098 8.99081 800.098 8.29636 799.899 7.64697V7.58719ZM907.313 72.7855L853.217 104.119V41.5716L907.313 10.4375V72.7855ZM965.376 104.119V41.5716L1019.45 10.4375V69.696C1018.62 69.9238 1017.89 70.4137 1017.36 71.0927C1016.83 71.7717 1016.54 72.6032 1016.52 73.4632C1016.53 73.8073 1016.59 74.1488 1016.68 74.4797L965.376 104.119ZM1075.54 168.859L1021.45 137.545V77.1307C1022.12 76.9609 1022.73 76.6093 1023.22 76.1142L1048.49 90.7046L1075.52 106.312L1075.54 168.859ZM1131.63 136.489L1077.53 105.255V42.7078L1131.63 73.9416V136.489ZM1187.7 39.3592L1133.62 8.04564V-54.422L1187.7 -23.1882V39.3592ZM1189.69 -25.3807V-87.948L1243.79 -119.122V-56.7142L1189.69 -25.3807ZM1299.88 -86.6723V-24.3442L1245.78 6.88956V-55.5581L1299.88 -86.6723ZM1189.69 168.779V106.331L1243.79 75.0977V134.376C1242.96 134.607 1242.23 135.099 1241.71 135.778C1241.19 136.456 1240.89 137.286 1240.88 138.143C1240.89 138.486 1240.93 138.827 1241.02 139.16L1189.69 168.779ZM1299.88 40.3358L1245.78 71.5696V9.20169L1299.88 -22.0321V40.3358ZM1301.87 -86.8716L1353.2 -57.2324C1353.09 -56.9037 1353.04 -56.5609 1353.04 -56.2159C1353.05 -55.3585 1353.34 -54.5289 1353.87 -53.8502C1354.39 -53.1716 1355.12 -52.6801 1355.95 -52.4487V6.88956L1301.87 -24.3442V-86.8716ZM1301.87 106.252L1354.17 76.2139C1354.67 76.6955 1355.28 77.045 1355.95 77.2304V137.625L1301.87 168.859V106.252ZM1413.03 169.277L1358.94 138.044L1412.12 107.468L1413.11 106.909L1414.11 107.468L1467.19 138.123L1413.03 169.277ZM1471.1 138.044L1525.19 106.83L1579.29 138.044L1525.19 169.277L1471.1 138.044Z" fill="url(#paint0_linear_563_5161)"/>
<path d="M788.12 963.2V901.629L730.058 868.103V933.999L675.962 965.233V900.473L618.896 933.421L563.803 901.629V841.214C564.629 840.983 565.358 840.492 565.882 839.813C566.406 839.134 566.698 838.305 566.713 837.447C566.709 837.104 566.662 836.763 566.574 836.431L619.394 805.934L619.892 805.655V738.583L562.806 771.452L506.717 739.161L450.648 771.452L395.555 739.66V676.136L452.641 643.188L395.555 610.22V544.324L337.991 577.571L337.493 577.85V641.454L286.167 611.834C286.254 611.495 286.301 611.148 286.307 610.798C286.291 609.94 286 609.111 285.475 608.432C284.951 607.754 284.222 607.262 283.396 607.031V481.856L338.987 449.765L339.486 449.486V382.434L281.902 415.661L281.403 415.96V480.72L226.311 512.612L172.234 481.298L226.809 449.765L227.307 449.486V382.434L169.743 415.661L169.245 415.96V544.324L117.919 514.705C118.006 514.366 118.053 514.018 118.059 513.668C118.043 512.811 117.752 511.981 117.228 511.302C116.703 510.624 115.974 510.132 115.148 509.901V448.35L60.0757 416.459L114.152 385.305L115.148 385.883V384.766L116.145 384.208L115.148 383.63V318.831L61.7899 288.035C61.9004 287.734 61.9675 287.419 61.9892 287.098C62.0104 286.345 61.8175 285.601 61.433 284.953C61.0484 284.304 60.4879 283.778 59.8165 283.436C59.1451 283.093 58.3903 282.948 57.6397 283.017C56.8891 283.086 56.1734 283.366 55.5756 283.825C54.9779 284.284 54.5226 284.904 54.2626 285.611C54.0026 286.319 53.9485 287.086 54.1066 287.823C54.2647 288.56 54.6285 289.237 55.1558 289.775C55.6832 290.314 56.3524 290.692 57.0859 290.866V351.201L0 384.168L56.0893 416.538L1.49492 448.051L0.996611 448.35V513.09L0 513.668L0.996611 514.246V579.006L56.0494 610.898L1.45505 642.331L0.956747 642.61V709.662L58.521 676.435L59.0193 676.136V612.512V546.636L111.321 516.419C111.808 516.914 112.422 517.266 113.095 517.435V579.006L168.188 610.898L113.614 642.311L113.115 642.61V707.389L60.893 737.567C60.5315 737.199 60.1002 736.908 59.6244 736.709C59.1486 736.51 58.6379 736.409 58.1224 736.411C57.2379 736.512 56.4127 736.907 55.7785 737.531C55.1442 738.156 54.7373 738.975 54.6226 739.858C54.508 740.741 54.6922 741.637 55.1458 742.403C55.5995 743.169 56.2965 743.761 57.1258 744.085V869.12L1.45505 901.33L0.956747 901.609V968.661V1032.3L57.1258 1064.65V1065.81L58.1224 1065.23L59.119 1065.79V1064.65L114.69 1032.56L115.188 1032.26V965.213L60.893 996.566C60.5315 996.199 60.1002 995.907 59.6244 995.708C59.1486 995.51 58.6379 995.408 58.1224 995.41C57.0766 995.415 56.0744 995.83 55.3319 996.566L3.98645 966.907L57.1258 936.231L114.192 903.263L171.278 936.231V870.375L226.809 838.304L227.307 838.025V776.455C228.041 776.281 228.71 775.903 229.237 775.364C229.765 774.826 230.128 774.149 230.286 773.412C230.445 772.675 230.39 771.908 230.13 771.2C229.87 770.493 229.415 769.874 228.817 769.414C228.22 768.955 227.504 768.675 226.753 768.606C226.003 768.537 225.248 768.682 224.577 769.025C223.905 769.367 223.345 769.893 222.96 770.542C222.576 771.19 222.383 771.934 222.404 772.687C222.405 773.032 222.459 773.375 222.563 773.704L169.743 804.2L169.245 804.499V868.063L115.188 836.869V708.486L170.241 676.714L227.227 709.662V643.766L279.55 613.549C280.036 614.044 280.65 614.395 281.323 614.565V676.136L334.642 706.911C334.442 707.56 334.442 708.255 334.642 708.904L281.902 739.56L281.403 739.839V869.12L229.42 899.197C229.076 898.631 228.596 898.159 228.024 897.825C227.451 897.491 226.805 897.305 226.142 897.283C225.48 897.262 224.822 897.406 224.23 897.702C223.637 897.999 223.127 898.438 222.747 898.981C222.367 899.524 222.129 900.153 222.053 900.812C221.977 901.47 222.067 902.137 222.314 902.752C222.56 903.367 222.957 903.911 223.467 904.335C223.977 904.758 224.584 905.047 225.234 905.177V968.601L281.323 936.231V999.835L339.386 1033.36V966.369L284.353 934.597L338.469 903.343L390.791 933.56C390.703 933.892 390.656 934.234 390.652 934.577C390.631 935.331 390.823 936.075 391.208 936.723C391.593 937.371 392.153 937.897 392.824 938.24C393.496 938.582 394.251 938.728 395.001 938.659C395.752 938.59 396.468 938.309 397.065 937.85C397.663 937.391 398.118 936.772 398.378 936.064C398.638 935.357 398.693 934.59 398.534 933.853C398.376 933.116 398.013 932.439 397.485 931.9C396.958 931.362 396.289 930.984 395.555 930.81V805.635L450.648 773.844L504.724 805.077L450.149 836.59L449.651 836.869V901.629L448.655 902.207L449.651 902.785V966.389L394.06 998.48L393.562 998.759V1065.81L451.146 1032.56L451.644 1032.26V968.781L505.721 1000.01V1001.17L506.717 1000.59L563.803 1033.54V970.774C564.473 970.595 565.084 970.245 565.577 969.757L617.899 999.915V1065.79L673.969 1033.42L731.513 1000.19L732.011 999.915V936.311L783.337 965.93C783.234 966.266 783.18 966.615 783.177 966.967C783.156 967.72 783.349 968.464 783.733 969.113C784.118 969.761 784.679 970.287 785.35 970.63C786.021 970.972 786.776 971.118 787.527 971.049C788.277 970.98 788.993 970.699 789.591 970.24C790.188 969.781 790.644 969.161 790.904 968.454C791.164 967.747 791.218 966.98 791.06 966.243C790.902 965.506 790.538 964.829 790.011 964.29C789.483 963.751 788.814 963.373 788.081 963.2H788.12ZM171.238 417.116L225.234 385.883V448.33L171.238 479.564V417.116ZM57.0261 674.98L2.94997 706.213V643.766L57.0261 612.532V674.98ZM113.195 968.661V1031.13L59.119 1062.34V1003.08C59.9447 1002.85 60.6738 1002.36 61.1981 1001.68C61.7223 1001 62.0137 1000.17 62.0291 999.317C62.0247 998.974 61.9778 998.632 61.8896 998.3L113.195 968.661ZM57.1258 1003.08V1062.34L3.0297 1031.13V968.661L54.3552 998.3C54.2602 998.631 54.2067 998.973 54.1957 999.317C54.2123 1000.18 54.5066 1001.01 55.0347 1001.69C55.5628 1002.37 56.2963 1002.86 57.1258 1003.08ZM673.969 966.369L619.892 997.603V935.155L673.969 903.921V966.369ZM561.81 963.2C561.136 963.37 560.523 963.721 560.036 964.216L508.71 934.577L561.81 903.921V963.2ZM507.714 869.259V806.792L559.039 836.431C558.951 836.763 558.904 837.104 558.9 837.447C558.915 838.305 559.206 839.134 559.731 839.813C560.255 840.492 560.984 840.983 561.81 841.214V900.473L507.714 869.259ZM561.81 833.68C561.136 833.85 560.523 834.202 560.036 834.697L508.71 805.077L561.81 774.422V833.68ZM506.717 870.973L560.813 902.207L536.177 916.399L506.657 933.441L452.641 902.207L477.217 888.015L506.717 870.973ZM507.714 936.311L559.039 965.95C558.86 966.603 558.86 967.291 559.039 967.944L507.714 997.583V936.311ZM617.899 804.499L565.577 834.697C565.09 834.202 564.476 833.85 563.803 833.68V773.266L617.899 742.052V804.499ZM339.486 704.18V644.902L393.562 676.136V738.583L342.236 708.964C342.338 708.635 342.392 708.292 342.396 707.948C342.38 707.09 342.089 706.261 341.565 705.582C341.041 704.903 340.311 704.412 339.486 704.18ZM339.486 711.715C340.155 711.536 340.767 711.186 341.26 710.698L392.665 740.318L339.585 770.973L339.486 711.715ZM394.658 674.402L340.582 643.188L367.092 627.86L394.658 611.994L448.754 643.228L394.658 674.402ZM339.585 579.006L393.662 547.772V610.22L339.585 641.454V579.006ZM283.396 417.116L337.493 385.883V448.33L283.396 479.564V417.116ZM281.403 545.48L263.703 555.685L227.227 576.694V514.326L281.323 483.092L281.403 545.48ZM225.234 641.454L198.286 625.946L171.238 610.32V547.772L198.286 563.399L225.234 579.006V641.454ZM171.238 483.032L225.234 514.326V576.774L198.206 561.167L171.158 545.56L171.238 483.032ZM113.155 509.901C112.486 510.08 111.874 510.43 111.381 510.917L59.0791 480.72V418.272L113.155 449.486V509.901ZM113.155 319.987V382.434L59.0791 351.201V290.786C59.7525 290.616 60.3662 290.264 60.8531 289.769L113.155 319.987ZM58.0825 352.875L112.159 384.168L59.0791 414.804L58.0825 415.382L57.0859 414.804L3.98645 384.168L58.0825 352.875ZM2.98983 449.486L57.0859 418.272V480.72L2.98983 511.954V449.486ZM2.98983 515.402L57.0859 546.636V609.084L2.98983 577.85V515.402ZM58.0825 544.902L3.98645 513.668L28.5629 499.496L58.0825 482.434L110.385 512.632C110.298 512.964 110.251 513.305 110.245 513.648C110.25 513.992 110.296 514.333 110.385 514.665L58.0825 544.902ZM115.148 517.435C115.825 517.26 116.444 516.909 116.942 516.419L169.245 546.636V609.084L115.148 577.85V517.435ZM115.148 643.766L169.245 612.532V674.98L115.148 706.213V643.766ZM59.119 744.085C59.9447 743.853 60.6738 743.362 61.1981 742.683C61.7223 742.005 62.0137 741.175 62.0291 740.318C62.0247 739.974 61.9778 739.633 61.8896 739.301L113.195 709.662V772.109L59.119 803.343V744.085ZM113.195 836.869L59.119 868.103V805.655L113.195 774.422V836.869ZM57.0261 933.979L2.94997 965.213V902.765L57.0261 871.531V933.979ZM59.119 870.395L113.195 839.221V901.669L59.119 932.903V870.395ZM171.238 805.655L223.54 775.438C224.027 775.933 224.641 776.285 225.314 776.455V836.869L171.238 868.103V805.655ZM169.245 871.432V932.903L115.188 901.629V839.221L169.245 870.415V871.591V871.432ZM225.234 706.213L171.238 674.98V612.532L198.286 628.139L225.234 643.766V706.213ZM227.227 641.454V579.006L258.142 561.167L281.323 547.772V607.031C280.498 607.262 279.769 607.754 279.244 608.432C278.72 609.111 278.429 609.94 278.413 610.798C278.419 611.148 278.466 611.495 278.553 611.834L227.227 641.454ZM283.317 674.98V614.565C283.984 614.392 284.596 614.049 285.091 613.568L337.413 643.766V704.18C336.738 704.35 336.12 704.694 335.619 705.177L283.317 674.98ZM283.317 740.896L335.619 710.698C336.117 711.189 336.736 711.539 337.413 711.715V772.109L336.416 772.687L283.396 803.343L283.317 740.896ZM283.317 870.455L337.493 839.221V901.669L283.396 932.903L283.317 870.455ZM337.413 836.929L283.317 868.163V805.655L337.413 774.422V836.929ZM227.227 965.213V905.237C228.053 905.005 228.782 904.514 229.307 903.835C229.831 903.157 230.122 902.327 230.138 901.47C230.147 901.344 230.147 901.217 230.138 901.091L281.363 871.531V933.979L227.227 965.213ZM337.393 1029.97L283.317 998.679V936.291L337.393 967.525V1029.97ZM393.562 930.909C392.889 931.079 392.275 931.431 391.788 931.926L339.486 901.729V839.221L393.562 870.435V930.909ZM339.486 836.969V774.422L393.562 805.655V868.103L339.486 836.969ZM394.658 803.921L340.582 772.687L394.658 741.553L395.655 742.131L448.754 772.787L394.658 803.921ZM506.717 741.553L560.813 772.787L507.714 803.343L506.717 803.921L505.721 803.343L452.641 772.687L506.717 741.553ZM451.644 838.025L505.721 806.792V869.259L451.644 900.473V838.025ZM449.651 1031.15L395.555 1062.46V999.915L449.651 968.781V1031.15ZM451.644 966.389V903.921L505.721 935.155V997.623L451.644 966.389ZM508.71 999.337L560.096 969.718C560.589 970.205 561.2 970.555 561.87 970.734V1029.99L508.71 999.337ZM563.803 963.2V903.921L617.899 935.155V997.603L566.574 967.983C566.659 967.651 566.706 967.31 566.713 966.967C566.698 966.109 566.406 965.28 565.882 964.601C565.358 963.923 564.629 963.431 563.803 963.2ZM619.892 1062.34V999.915L673.969 968.781V1031.23L619.892 1062.34ZM730.058 998.679L675.962 1029.91V967.525L730.058 936.311V998.679ZM732.051 933.919V871.551L786.127 902.785V963.2C785.46 963.373 784.848 963.716 784.353 964.196L732.051 933.919Z" fill="url(#paint1_linear_563_5161)"/>
</g>
<defs>
<linearGradient id="paint0_linear_563_5161" x1="1290.99" y1="418.909" x2="1728.42" y2="-212.345" gradientUnits="userSpaceOnUse">
<stop stop-color="#D2D2D1"/>
<stop offset="0.12" stop-color="#DBDBDB"/>
<stop offset="0.37" stop-color="#EBEBEA"/>
<stop offset="0.57" stop-color="#F0F0F0"/>
<stop offset="0.78" stop-color="#F4F4F4"/>
<stop offset="0.98" stop-color="white"/>
</linearGradient>
<linearGradient id="paint1_linear_563_5161" x1="93.0437" y1="1102.57" x2="520.45" y2="485.783" gradientUnits="userSpaceOnUse">
<stop stop-color="#D2D2D1"/>
<stop offset="0.12" stop-color="#DBDBDB"/>
<stop offset="0.37" stop-color="#EBEBEA"/>
<stop offset="0.57" stop-color="#F0F0F0"/>
<stop offset="0.78" stop-color="#F4F4F4"/>
<stop offset="0.98" stop-color="white"/>
</linearGradient>
<clipPath id="clip0_563_5161">
<rect width="1920" height="977" fill="white"/>
</clipPath>
</defs>
</svg>
