<svg width="181" height="243" viewBox="0 0 181 243" fill="none" xmlns="http://www.w3.org/2000/svg">
<path d="M72.0485 220.858C52.6898 202.247 42.2434 166.013 48.7185 139.935C51.4282 129.017 53.3534 122.104 59.9674 118.558L67.2578 116.456C73.2698 114.934 79.6378 115.8 85.026 118.871L106.735 3.97093L114.006 1.87445L123.744 11.2428L132.791 42.6226L129.221 57.0069L122.337 58.9916L119.631 70.408L122.375 84.4317L120.834 90.8739L108.775 94.9502L105.854 106.729L113.452 120.532L107.934 142.996C118.88 162.312 123.659 187.765 118.778 207.446C115.549 220.512 108.671 228.553 100.189 230.958L92.9722 233.039C85.0832 234.174 80.7282 229.191 72.0485 220.858ZM88.8891 200.848C89.6663 196.776 89.4729 192.578 88.3245 188.595C87.1762 184.612 85.1052 180.955 82.2796 177.922C76.763 172.655 70.8754 174.352 69.0463 181.737C68.2691 185.809 68.4625 190.007 69.6109 193.99C70.7593 197.973 72.8302 201.63 75.6558 204.663C81.1462 209.978 87.163 208.243 88.8891 200.848Z" fill="#25CED1"/>
<path opacity="0.1" d="M72.0485 220.858C52.6898 202.247 42.2434 166.013 48.7185 139.935C51.4282 129.017 53.3534 122.104 59.9674 118.558L67.2578 116.456C73.2698 114.934 79.6378 115.8 85.026 118.871L106.735 3.97093L114.006 1.87445L123.744 11.2428L132.791 42.6226L129.221 57.0069L122.337 58.9916L119.631 70.408L122.375 84.4317L120.834 90.8739L108.775 94.9502L105.854 106.729L113.452 120.532L107.934 142.996C118.88 162.312 123.659 187.765 118.778 207.446C115.549 220.512 108.671 228.553 100.189 230.958L92.9722 233.039C85.0832 234.174 80.7282 229.191 72.0485 220.858ZM88.8891 200.848C89.6663 196.776 89.4729 192.578 88.3245 188.595C87.1762 184.612 85.1052 180.955 82.2796 177.922C76.763 172.655 70.8754 174.352 69.0463 181.737C68.2691 185.809 68.4625 190.007 69.6109 193.99C70.7593 197.973 72.8302 201.63 75.6558 204.663C81.1462 209.978 87.163 208.243 88.8891 200.848Z" fill="black"/>
<path d="M64.758 222.958C45.3992 204.348 34.9529 168.113 41.4279 142.035C46.7454 120.609 61.816 112.766 77.7539 120.966L106.734 3.96972L116.453 13.3434L125.5 44.7232L121.931 59.1075L115.287 60.1232L112.396 72.4926L115.14 86.5164L113.599 92.9586L101.54 97.0348L98.6187 108.813L106.235 122.612L100.717 145.075C111.663 164.391 116.424 189.849 111.543 209.53C105.033 235.558 84.1037 241.592 64.758 222.958ZM81.6355 202.938C82.4127 198.866 82.2193 194.668 81.0709 190.685C79.9225 186.702 77.8516 183.045 75.026 180.012C69.5094 174.745 63.6217 176.442 61.7926 183.827C61.0154 187.899 61.2089 192.097 62.3573 196.08C63.5056 200.063 65.5765 203.72 68.4021 206.753C73.874 212.073 79.7801 210.37 81.6355 202.938Z" fill="#25CED1"/>
<path opacity="0.3" d="M83.5572 133.329C76.0834 126.127 68.142 123.058 61.7745 124.894C55.407 126.73 50.2811 133.566 47.8253 143.631C44.964 155.132 45.6473 169.29 49.7343 183.466C53.8213 197.642 60.7799 209.991 69.33 218.222C76.8038 225.424 84.7452 228.493 91.1127 226.657C97.4802 224.821 102.606 217.985 105.062 207.921C107.899 196.406 107.221 182.267 103.129 168.072C99.0368 153.877 92.102 141.542 83.5572 133.329ZM50.3888 144.271C52.6489 135.122 57.0589 128.993 62.5036 127.423C67.9483 125.853 74.8707 128.716 81.728 135.236C89.995 143.109 96.636 155.049 100.601 168.801C104.565 182.553 105.245 196.212 102.498 207.28C100.233 216.41 95.8283 222.558 90.3836 224.128C84.939 225.698 78.0112 222.817 71.1591 216.315C62.8868 208.424 56.2459 196.483 52.2813 182.732C48.3167 168.98 47.6557 155.315 50.4073 144.266L50.3888 144.271Z" fill="black"/>
<path opacity="0.1" d="M113.165 187.49L120.548 185.362C119.544 170.486 115.257 156.018 107.994 142.997L100.723 145.094C107.951 158.133 112.2 172.613 113.165 187.49Z" fill="black"/>
<path opacity="0.1" d="M106.22 122.557L113.492 120.461L105.878 106.601L98.5874 108.703L106.22 122.557Z" fill="black"/>
<path opacity="0.1" d="M101.508 96.9248L108.799 94.823L120.857 90.7468L113.567 92.8486L101.508 96.9248Z" fill="black"/>
<path opacity="0.1" d="M115.134 86.4982L122.425 84.3964L119.681 70.3726L112.391 72.4744L115.134 86.4982Z" fill="black"/>
<path opacity="0.1" d="M125.495 44.7051L116.453 13.3438L123.743 11.242L132.785 42.6033L125.495 44.7051Z" fill="black"/>
<path opacity="0.15" d="M106.734 3.96973L114.006 1.87324L123.744 11.2416L116.454 13.3434L112.19 9.23435L115.328 8.32977L112.977 6.06863L109.802 6.98385L106.734 3.96973Z" fill="black"/>
<path d="M109.802 6.98438L112.19 9.23488L115.327 8.3303L112.976 6.06916L109.802 6.98438Z" fill="#25CED1"/>
<path opacity="0.15" d="M109.802 6.98396L112.977 6.06874L83.254 126.038L80.866 123.788L109.802 6.98396Z" fill="black"/>
<path opacity="0.15" d="M80.8667 123.788L84.0412 122.873L83.2547 126.039L80.8667 123.788Z" fill="black"/>
</svg>
