<svg width="396" height="443" viewBox="0 0 396 443" fill="none" xmlns="http://www.w3.org/2000/svg">
<g clip-path="url(#clip0_578_4934)">
<path d="M367.071 317.561C366.942 319.313 366.402 321.01 365.496 322.515C364.59 324.02 363.342 325.29 361.853 326.223L215.676 410.616C214.059 411.437 212.272 411.864 210.459 411.864C208.646 411.864 206.858 411.437 205.241 410.616L5.21716 295.165C3.64104 294.331 2.32209 293.083 1.40215 291.556C0.482206 290.029 -0.00390625 288.28 -0.00390625 286.497C-0.00390625 284.714 0.482206 282.965 1.40215 281.437C2.32209 279.91 3.64104 278.662 5.21716 277.828L151.407 193.496C153.024 192.675 154.811 192.248 156.624 192.248C158.437 192.248 160.224 192.675 161.841 193.496L361.853 308.959C363.336 309.884 364.581 311.145 365.487 312.639C366.393 314.133 366.935 315.819 367.071 317.561Z" fill="#363448"/>
<path d="M210.458 400.569V411.857C212.272 411.907 214.068 411.492 215.676 410.652L361.865 326.259C363.394 325.454 364.681 324.258 365.597 322.793C366.512 321.328 367.023 319.647 367.077 317.92C367.131 316.194 366.726 314.484 365.904 312.965C365.081 311.445 363.871 310.171 362.395 309.272C364.733 310.947 364.552 313.405 361.865 314.959L215.676 399.316C214.072 400.172 212.276 400.604 210.458 400.569Z" fill="#242331"/>
<path d="M371.974 309.092C373.426 308.102 374.625 306.785 375.475 305.247C376.325 303.709 376.801 301.993 376.866 300.237V125.813C376.767 124.003 376.243 122.242 375.337 120.672C374.43 119.102 373.167 117.768 371.649 116.777L171.637 1.30134C170.085 0.478425 168.36 0.0331846 166.604 0.00178471C164.847 -0.0296152 163.108 0.353711 161.528 1.12063C160.073 2.10493 158.872 3.41902 158.022 4.95577C157.171 6.49252 156.697 8.2084 156.636 9.96352V184.4C156.732 186.21 157.254 187.973 158.161 189.543C159.068 191.113 160.333 192.447 161.853 193.435L361.865 308.899C363.418 309.719 365.141 310.164 366.897 310.197C368.652 310.231 370.391 309.852 371.974 309.092Z" fill="#4A4864"/>
<path d="M362.479 309.212C363.995 310.03 365.7 310.432 367.422 310.378C369.143 310.323 370.819 309.815 372.28 308.903C373.741 307.991 374.935 306.709 375.741 305.187C376.546 303.665 376.934 301.957 376.866 300.237V125.8C376.807 123.986 376.28 122.218 375.336 120.668L365.552 126.306C366.489 127.86 367.016 129.626 367.082 131.438V305.887C367.082 308.971 365.082 310.356 362.479 309.212Z" fill="#242331"/>
<path d="M367.071 131.463V305.888C367.071 309.213 364.745 310.562 361.853 308.899L161.841 193.436C160.321 192.447 159.056 191.114 158.149 189.543C157.243 187.973 156.72 186.211 156.624 184.4V9.96392C156.624 6.6388 158.949 5.28947 161.841 6.95203L361.853 122.428C363.374 123.416 364.638 124.75 365.545 126.32C366.452 127.89 366.974 129.653 367.071 131.463Z" fill="#363448"/>
<path d="M361.853 314.923L215.675 399.316C214.059 400.136 212.271 400.564 210.458 400.564C208.645 400.564 206.858 400.136 205.241 399.316L5.2169 283.84C2.33721 282.178 2.33721 279.491 5.2169 277.817L151.407 193.484C153.023 192.664 154.811 192.236 156.624 192.236C158.437 192.236 160.224 192.664 161.841 193.484L361.853 308.948C364.745 310.562 364.745 313.236 361.853 314.923Z" fill="#4A4864"/>
<path d="M359.058 132.101L166.203 20.806C164.48 19.806 163.07 20.6132 163.07 22.6131V173.605C163.129 174.691 163.443 175.748 163.987 176.69C164.532 177.632 165.291 178.433 166.203 179.026L359.058 290.346C360.781 291.345 362.178 290.538 362.178 288.538V137.522C362.119 136.438 361.806 135.382 361.264 134.44C360.722 133.499 359.966 132.697 359.058 132.101Z" fill="white"/>
<path opacity="0.6" d="M359.058 132.101L166.203 20.806C164.48 19.806 163.07 20.6132 163.07 22.6131V173.605C163.129 174.691 163.443 175.748 163.987 176.69C164.532 177.632 165.291 178.433 166.203 179.026L359.058 290.346C360.781 291.345 362.178 290.538 362.178 288.538V137.522C362.119 136.438 361.806 135.382 361.264 134.44C360.722 133.499 359.966 132.697 359.058 132.101Z" fill="#25CED1"/>
<path d="M263.04 122.56C257.907 119.596 253.738 121.993 253.738 127.921C253.914 131.147 254.848 134.287 256.464 137.086C258.08 139.885 260.333 142.263 263.04 144.028C268.173 146.992 272.342 144.582 272.342 138.655C272.165 135.43 271.231 132.292 269.615 129.496C267.999 126.699 265.746 124.323 263.04 122.56Z" fill="#F0F0F0"/>
<path d="M244.713 154.209C244.713 144.474 251.557 140.149 259.991 145.016L265.269 148.064C273.703 152.883 280.535 164.774 280.535 174.509V177.135L244.713 156.522V154.209Z" fill="#F0F0F0"/>
<path d="M226.604 159.028C226.942 158.245 227.809 158.04 228.797 158.606L291.343 194.689C292.017 195.129 292.577 195.721 292.979 196.418C293.381 197.115 293.613 197.897 293.657 198.701V206.062C293.657 207.266 292.909 207.929 291.897 207.64H291.741C291.604 207.585 291.471 207.521 291.343 207.447L228.797 171.304C228.121 170.869 227.557 170.28 227.153 169.584C226.749 168.889 226.515 168.108 226.472 167.305V159.992C226.459 159.665 226.504 159.339 226.604 159.028Z" fill="#F0F0F0"/>
<path d="M285.692 195.652C284.487 194.954 283.499 195.52 283.499 196.857C283.537 197.62 283.755 198.363 284.136 199.025C284.518 199.687 285.051 200.249 285.692 200.664C286.897 201.363 287.885 200.797 287.885 199.399C287.838 198.647 287.615 197.916 287.234 197.265C286.853 196.614 286.325 196.062 285.692 195.652Z" fill="#25CED1"/>
<path d="M278.427 191.46C277.222 190.749 276.222 191.327 276.222 192.725C276.261 193.489 276.481 194.233 276.864 194.895C277.248 195.557 277.783 196.118 278.427 196.532C279.632 197.231 280.62 196.664 280.62 195.255C280.58 194.494 280.361 193.753 279.98 193.094C279.598 192.434 279.066 191.874 278.427 191.46Z" fill="#25CED1"/>
<path d="M271.101 187.255C269.896 186.556 268.908 187.123 268.908 188.532C268.947 189.293 269.167 190.034 269.548 190.693C269.929 191.353 270.461 191.913 271.101 192.327C272.306 193.038 273.306 192.46 273.306 191.122C273.276 190.348 273.06 189.592 272.676 188.919C272.293 188.246 271.752 187.675 271.101 187.255Z" fill="#25CED1"/>
<path d="M263.871 183.123C262.666 182.424 261.678 182.99 261.678 184.388C261.716 185.151 261.934 185.894 262.316 186.555C262.697 187.217 263.23 187.779 263.871 188.195C265.076 188.893 266.076 188.327 266.076 186.99C266.047 186.215 265.831 185.46 265.447 184.786C265.063 184.113 264.523 183.542 263.871 183.123Z" fill="#25CED1"/>
<path d="M256.642 178.87C255.437 178.159 254.437 178.738 254.437 180.135C254.476 180.899 254.696 181.643 255.08 182.305C255.463 182.967 255.999 183.528 256.642 183.942C257.847 184.641 258.835 184.075 258.835 182.677C258.797 181.914 258.579 181.171 258.198 180.509C257.816 179.847 257.283 179.285 256.642 178.87Z" fill="#25CED1"/>
<path d="M249.412 174.69C248.208 173.991 247.208 174.557 247.208 175.967C247.255 176.725 247.479 177.463 247.862 178.119C248.245 178.776 248.776 179.334 249.412 179.75C250.617 180.448 251.605 179.882 251.605 178.473C251.559 177.715 251.337 176.978 250.956 176.322C250.576 175.665 250.047 175.106 249.412 174.69Z" fill="#25CED1"/>
<path d="M242.075 170.473C240.87 169.774 239.882 170.341 239.882 171.738C239.919 172.501 240.138 173.244 240.519 173.906C240.9 174.568 241.434 175.13 242.075 175.545C243.28 176.244 244.28 175.678 244.28 174.28C244.241 173.516 244.02 172.772 243.637 172.11C243.254 171.448 242.718 170.887 242.075 170.473Z" fill="#25CED1"/>
<path d="M234.809 166.256C233.604 165.557 232.616 166.123 232.616 167.461C232.654 168.224 232.872 168.967 233.254 169.629C233.635 170.291 234.168 170.852 234.809 171.268C236.014 171.966 237.002 171.4 237.002 170.063C236.964 169.3 236.746 168.557 236.365 167.895C235.983 167.233 235.45 166.671 234.809 166.256Z" fill="#25CED1"/>
<path d="M344.888 310.405L159.226 203.182C158.418 202.772 157.524 202.559 156.618 202.559C155.711 202.559 154.818 202.772 154.009 203.182L144.514 208.663C144.2 208.77 143.926 208.973 143.733 209.243C143.539 209.513 143.435 209.837 143.435 210.169C143.435 210.502 143.539 210.826 143.733 211.096C143.926 211.366 144.2 211.568 144.514 211.675L330.2 318.838C331.009 319.248 331.903 319.461 332.809 319.461C333.715 319.461 334.609 319.248 335.418 318.838L344.888 313.368C345.187 313.252 345.443 313.049 345.624 312.784C345.805 312.52 345.901 312.207 345.901 311.887C345.901 311.566 345.805 311.253 345.624 310.989C345.443 310.725 345.187 310.521 344.888 310.405Z" fill="#363448"/>
<path d="M320.417 324.537L134.755 217.314C133.947 216.904 133.053 216.69 132.147 216.69C131.24 216.69 130.347 216.904 129.538 217.314L71.0887 251.071C70.774 251.177 70.5006 251.38 70.307 251.65C70.1134 251.92 70.0093 252.244 70.0093 252.577C70.0093 252.909 70.1134 253.233 70.307 253.503C70.5006 253.773 70.774 253.976 71.0887 254.083L256.642 361.113C257.451 361.523 258.344 361.736 259.251 361.736C260.157 361.736 261.051 361.523 261.859 361.113L320.477 327.524C320.787 327.412 321.054 327.205 321.241 326.934C321.427 326.662 321.524 326.338 321.517 326.009C321.511 325.679 321.401 325.36 321.204 325.096C321.006 324.832 320.731 324.636 320.417 324.537Z" fill="#242331"/>
<path d="M154.913 265.552L161.636 261.673C161.901 261.529 161.914 261.288 161.636 261.143L155.853 257.818C155.709 257.747 155.55 257.71 155.389 257.71C155.228 257.71 155.069 257.747 154.925 257.818L148.202 261.685C147.937 261.842 147.925 262.083 148.202 262.215L154.009 265.577C154.152 265.643 154.307 265.675 154.464 265.671C154.621 265.667 154.775 265.626 154.913 265.552ZM164.552 252.3L157.841 256.143C157.576 256.3 157.564 256.541 157.841 256.673L163.649 260.035C163.792 260.109 163.951 260.147 164.112 260.147C164.274 260.147 164.433 260.109 164.576 260.035L171.3 256.155C171.565 256.011 171.577 255.77 171.3 255.625L165.48 252.264C165.333 252.186 165.17 252.145 165.004 252.145C164.838 252.145 164.675 252.186 164.528 252.264L164.552 252.3ZM183.337 263.143L176.613 267.022C176.348 267.179 176.336 267.408 176.613 267.552L186.457 273.239C186.601 273.31 186.76 273.347 186.921 273.347C187.082 273.347 187.241 273.31 187.385 273.239L194.108 269.36C194.373 269.203 194.385 268.962 194.108 268.829L184.276 263.143C184.131 263.057 183.967 263.009 183.799 263.003C183.631 262.996 183.463 263.032 183.312 263.107L183.337 263.143ZM173.047 257.204L166.275 261.047C166.01 261.203 165.986 261.444 166.275 261.577L172.083 264.938C172.226 265.012 172.385 265.051 172.547 265.051C172.708 265.051 172.867 265.012 173.011 264.938L179.734 261.059C179.999 260.914 180.011 260.673 179.734 260.529L173.914 257.167C173.775 257.099 173.623 257.064 173.468 257.064C173.314 257.064 173.161 257.099 173.023 257.167L173.047 257.204ZM195.855 270.371L189.168 274.215C188.903 274.359 188.891 274.6 189.168 274.745L194.976 278.106C195.119 278.18 195.278 278.219 195.44 278.219C195.601 278.219 195.76 278.18 195.904 278.106L202.627 274.227C202.892 274.07 202.904 273.829 202.627 273.697L196.807 270.335C196.658 270.253 196.49 270.21 196.319 270.21C196.149 270.21 195.981 270.253 195.831 270.335L195.855 270.371ZM204.35 275.275L197.602 279.118C197.337 279.275 197.325 279.504 197.602 279.648L203.41 283.009C203.553 283.083 203.713 283.122 203.874 283.122C204.035 283.122 204.194 283.083 204.338 283.009L211.061 279.13C211.326 278.973 211.338 278.745 211.061 278.6L205.241 275.239C205.1 275.167 204.943 275.129 204.784 275.129C204.624 275.129 204.468 275.167 204.326 275.239L204.35 275.275ZM179.77 291.009L186.493 287.13C186.758 286.985 186.77 286.744 186.493 286.6L180.734 283.202C180.59 283.131 180.431 283.094 180.27 283.094C180.109 283.094 179.95 283.131 179.806 283.202L173.083 287.081C172.818 287.238 172.806 287.479 173.083 287.612L178.902 290.973C179.035 291.033 179.179 291.065 179.324 291.065C179.47 291.065 179.614 291.033 179.746 290.973L179.77 291.009ZM188.204 295.924L194.928 292.033C195.193 291.888 195.205 291.647 194.928 291.503L189.168 288.105C189.024 288.034 188.865 287.997 188.704 287.997C188.543 287.997 188.385 288.034 188.24 288.105L181.517 291.985C181.252 292.141 181.24 292.382 181.517 292.527L187.325 295.876C187.466 295.947 187.623 295.985 187.781 295.987C187.94 295.99 188.097 295.956 188.24 295.888L188.204 295.924ZM196.699 300.828L203.422 296.948C203.687 296.792 203.699 296.551 203.422 296.406L197.602 293.057C197.459 292.983 197.3 292.944 197.139 292.944C196.977 292.944 196.818 292.983 196.675 293.057L189.951 296.936C189.686 297.093 189.674 297.334 189.951 297.478L195.759 300.828C195.912 300.901 196.081 300.936 196.251 300.93C196.421 300.924 196.587 300.876 196.735 300.792L196.699 300.828ZM205.193 305.731L211.917 301.852C212.182 301.695 212.194 301.454 211.917 301.31L206.097 297.96C205.953 297.889 205.794 297.852 205.633 297.852C205.472 297.852 205.313 297.889 205.169 297.96L198.458 301.84C198.193 301.996 198.169 302.237 198.458 302.382L204.265 305.731C204.417 305.803 204.584 305.837 204.752 305.83C204.92 305.824 205.083 305.778 205.229 305.695L205.193 305.731ZM163.408 270.468L170.131 266.577C170.396 266.432 170.408 266.191 170.131 266.046L164.347 262.637C164.205 262.566 164.048 262.529 163.89 262.529C163.731 262.529 163.574 262.566 163.432 262.637L156.708 266.516C156.443 266.673 156.419 266.914 156.708 267.058L162.516 270.408C162.651 270.483 162.801 270.527 162.955 270.538C163.109 270.548 163.264 270.524 163.408 270.468ZM171.251 286.069L177.975 282.19C178.24 282.046 178.252 281.805 177.975 281.66L172.613 278.564C172.36 278.419 172.384 278.178 172.613 278.022L181.252 273.034C181.517 272.877 181.529 272.648 181.252 272.504L174.637 268.661C174.494 268.587 174.335 268.548 174.173 268.548C174.012 268.548 173.853 268.587 173.709 268.661L157.383 278.082C157.118 278.239 157.106 278.479 157.383 278.624L170.36 286.106C170.501 286.168 170.655 286.197 170.81 286.191C170.964 286.185 171.115 286.143 171.251 286.069ZM212.82 280.142L206.109 284.021C205.844 284.178 205.82 284.419 206.109 284.551L211.917 287.913C212.06 287.987 212.219 288.025 212.38 288.025C212.542 288.025 212.701 287.987 212.844 287.913L219.568 284.033C219.833 283.889 219.845 283.648 219.568 283.503L213.748 280.142C213.605 280.068 213.446 280.029 213.284 280.029C213.123 280.029 212.964 280.068 212.82 280.142ZM221.327 285.045L214.603 288.925C214.338 289.081 214.314 289.322 214.603 289.467L220.411 292.816C220.555 292.887 220.714 292.924 220.875 292.924C221.036 292.924 221.195 292.887 221.339 292.816L228.062 288.925C228.327 288.78 228.339 288.539 228.062 288.395L222.255 285.033C222.109 284.964 221.95 284.929 221.789 284.931C221.628 284.933 221.47 284.972 221.327 285.045ZM271.426 336.127C271.691 335.982 271.703 335.741 271.426 335.597L265.607 332.236C265.462 332.164 265.304 332.127 265.143 332.127C264.982 332.127 264.823 332.164 264.679 332.236L257.992 336.127C257.727 336.284 257.715 336.525 257.992 336.669L263.799 340.018C263.943 340.092 264.102 340.131 264.263 340.131C264.425 340.131 264.584 340.092 264.727 340.018L271.426 336.127ZM289.295 324.272L282.571 328.151C282.306 328.308 282.282 328.549 282.571 328.682L288.379 332.043C288.522 332.117 288.682 332.155 288.843 332.155C289.004 332.155 289.163 332.117 289.307 332.043L296.03 328.164C296.295 328.019 296.319 327.778 296.03 327.633L290.223 324.272C290.078 324.2 289.919 324.164 289.757 324.166C289.596 324.168 289.437 324.208 289.295 324.284V324.272ZM283.27 331.874C283.535 331.73 283.547 331.489 283.27 331.344L277.463 327.983C277.318 327.912 277.16 327.875 276.999 327.875C276.838 327.875 276.679 327.912 276.535 327.983L269.896 331.898C269.631 332.055 269.619 332.296 269.896 332.44L275.716 335.79C275.859 335.864 276.018 335.902 276.18 335.902C276.341 335.902 276.5 335.864 276.643 335.79L283.27 331.874ZM250.618 342.982L257.341 339.103C257.606 338.958 257.618 338.717 257.341 338.573L251.521 335.211C251.378 335.137 251.219 335.099 251.058 335.099C250.896 335.099 250.737 335.137 250.594 335.211L243.87 339.091C243.605 339.247 243.593 339.488 243.87 339.621L249.678 342.982C249.823 343.058 249.984 343.098 250.148 343.098C250.311 343.098 250.473 343.058 250.618 342.982ZM265.836 344.006C266.101 343.861 266.113 343.621 265.836 343.476L260.016 340.115C259.872 340.043 259.713 340.006 259.552 340.006C259.391 340.006 259.232 340.043 259.088 340.115L252.365 343.994C252.112 344.151 252.088 344.392 252.365 344.524L258.172 347.885C258.316 347.959 258.475 347.998 258.636 347.998C258.798 347.998 258.957 347.959 259.1 347.885L265.836 344.006ZM280.74 319.381L274.029 323.26C273.764 323.417 273.74 323.646 274.029 323.79L279.836 327.152C279.98 327.225 280.139 327.264 280.3 327.264C280.462 327.264 280.621 327.225 280.764 327.152L287.487 323.272C287.753 323.116 287.765 322.887 287.487 322.742L281.668 319.381C281.524 319.307 281.365 319.268 281.204 319.268C281.043 319.268 280.883 319.307 280.74 319.381ZM238.268 294.852L231.592 298.78C231.327 298.936 231.315 299.177 231.592 299.322L237.412 302.671C237.556 302.742 237.715 302.779 237.876 302.779C238.037 302.779 238.196 302.742 238.34 302.671L245.063 298.792C245.328 298.635 245.34 298.394 245.063 298.249L239.256 294.9C239.115 294.817 238.955 294.769 238.792 294.76C238.628 294.752 238.465 294.783 238.316 294.852H238.268ZM272.306 314.441L265.582 318.321C265.317 318.465 265.305 318.706 265.582 318.851L271.39 322.212C271.534 322.286 271.693 322.325 271.854 322.325C272.015 322.325 272.174 322.286 272.318 322.212L279.041 318.333C279.306 318.176 279.318 317.935 279.041 317.803L273.221 314.441C273.08 314.369 272.923 314.332 272.764 314.332C272.605 314.332 272.448 314.369 272.306 314.441ZM229.833 289.913L223.11 293.792C222.845 293.949 222.833 294.189 223.11 294.334L228.93 297.683C229.074 297.754 229.233 297.791 229.394 297.791C229.554 297.791 229.713 297.754 229.857 297.683L236.569 293.792C236.834 293.647 236.858 293.406 236.569 293.262L230.761 289.913C230.613 289.842 230.45 289.809 230.287 289.815C230.123 289.821 229.963 289.867 229.821 289.949L229.833 289.913ZM246.822 299.719L240.087 303.599C239.822 303.755 239.81 303.996 240.087 304.141L245.907 307.49C246.05 307.564 246.209 307.603 246.37 307.603C246.532 307.603 246.691 307.564 246.834 307.49L253.558 303.611C253.823 303.454 253.835 303.213 253.558 303.069L247.75 299.719C247.601 299.652 247.439 299.62 247.276 299.626C247.113 299.632 246.953 299.677 246.81 299.755L246.822 299.719ZM255.257 304.623L248.533 308.514C248.268 308.659 248.256 308.899 248.533 309.044L254.353 312.393C254.496 312.467 254.655 312.506 254.817 312.506C254.978 312.506 255.137 312.467 255.281 312.393L262.004 308.514C262.269 308.357 262.281 308.116 262.004 307.972L256.196 304.623C256.054 304.563 255.901 304.535 255.747 304.541C255.592 304.547 255.442 304.588 255.305 304.659L255.257 304.623ZM263.751 309.538L257.028 313.417C256.763 313.562 256.751 313.803 257.028 313.947L262.835 317.309C262.98 317.38 263.138 317.417 263.299 317.417C263.46 317.417 263.619 317.38 263.763 317.309L270.486 313.429C270.751 313.273 270.764 313.032 270.486 312.887L264.667 309.538C264.525 309.487 264.374 309.467 264.223 309.482C264.073 309.497 263.928 309.545 263.799 309.622L263.751 309.538ZM222.17 315.465L228.893 311.586C229.159 311.429 229.183 311.189 228.893 311.044L223.086 307.695C222.942 307.624 222.783 307.587 222.622 307.587C222.461 307.587 222.302 307.624 222.158 307.695L215.435 311.586C215.17 311.731 215.158 311.972 215.435 312.116L221.254 315.477C221.401 315.56 221.565 315.606 221.733 315.61C221.902 315.614 222.068 315.577 222.218 315.502L222.17 315.465ZM145.792 241.421L139.069 245.301C138.804 245.457 138.78 245.698 139.069 245.831L144.876 249.192C145.02 249.266 145.179 249.304 145.34 249.304C145.502 249.304 145.661 249.266 145.804 249.192L152.527 245.313C152.792 245.168 152.817 244.927 152.527 244.783L146.72 241.421C146.576 241.347 146.417 241.309 146.256 241.309C146.095 241.309 145.935 241.347 145.792 241.421ZM156.07 247.361L149.346 251.24C149.081 251.385 149.069 251.626 149.346 251.77L155.154 255.131C155.298 255.205 155.457 255.244 155.618 255.244C155.779 255.244 155.938 255.205 156.082 255.131L162.805 251.252C163.07 251.095 163.082 250.854 162.805 250.722L156.985 247.361C156.839 247.283 156.676 247.242 156.51 247.242C156.344 247.242 156.18 247.283 156.034 247.361H156.07ZM137.286 236.518L130.574 240.397C130.309 240.554 130.285 240.783 130.574 240.927L136.382 244.289C136.525 244.363 136.684 244.401 136.846 244.401C137.007 244.401 137.166 244.363 137.31 244.289L144.033 240.409C144.298 240.253 144.31 240.024 144.033 239.879L138.213 236.518C138.065 236.438 137.9 236.396 137.731 236.396C137.563 236.396 137.397 236.438 137.249 236.518H137.286ZM183.071 281.817L189.795 277.937C190.06 277.781 190.072 277.552 189.795 277.407L183.975 274.046C183.832 273.972 183.673 273.933 183.511 273.933C183.35 273.933 183.191 273.972 183.047 274.046L176.336 277.925C176.071 278.082 176.047 278.311 176.336 278.455L182.144 281.817C182.296 281.903 182.468 281.949 182.644 281.949C182.819 281.949 182.991 281.903 183.144 281.817H183.071ZM122.02 235.494C121.754 235.638 121.742 235.879 122.02 236.024L127.827 239.385C127.971 239.459 128.13 239.498 128.291 239.498C128.452 239.498 128.611 239.459 128.755 239.385L135.478 235.506C135.743 235.349 135.755 235.108 135.478 234.976L129.659 231.615C129.515 231.541 129.356 231.502 129.195 231.502C129.033 231.502 128.874 231.541 128.731 231.615L122.02 235.494ZM213.712 310.598L220.435 306.719C220.7 306.562 220.712 306.321 220.435 306.177L214.628 302.828C214.483 302.756 214.325 302.719 214.164 302.719C214.003 302.719 213.844 302.756 213.7 302.828L206.977 306.707C206.711 306.863 206.687 307.104 206.977 307.249L212.784 310.598C212.929 310.674 213.09 310.714 213.254 310.714C213.418 310.714 213.579 310.674 213.724 310.598H213.712ZM109.537 250.445L116.26 246.566C116.525 246.421 116.537 246.18 116.26 246.035L110.441 242.674C110.296 242.603 110.138 242.566 109.977 242.566C109.816 242.566 109.657 242.603 109.513 242.674L102.801 246.554C102.536 246.71 102.512 246.951 102.801 247.084L108.609 250.445C108.753 250.519 108.912 250.557 109.073 250.557C109.234 250.557 109.393 250.519 109.537 250.445ZM127.61 249.806L134.334 245.927C134.599 245.782 134.611 245.542 134.334 245.397L128.514 242.036C128.372 241.965 128.215 241.928 128.056 241.928C127.897 241.928 127.74 241.965 127.598 242.036L120.875 245.915C120.61 246.072 120.586 246.313 120.875 246.445L126.682 249.806C126.829 249.884 126.992 249.925 127.158 249.925C127.324 249.925 127.488 249.884 127.634 249.806H127.61ZM112.417 241.036C112.139 241.192 112.127 241.421 112.417 241.566L118.224 244.927C118.368 245.001 118.527 245.04 118.688 245.04C118.849 245.04 119.008 245.001 119.152 244.927L125.875 241.048C126.14 240.903 126.152 240.662 125.875 240.518L120.056 237.156C119.912 237.082 119.753 237.044 119.592 237.044C119.43 237.044 119.271 237.082 119.128 237.156L112.417 241.036ZM117.381 235.59L111.561 232.229C111.418 232.155 111.259 232.116 111.097 232.116C110.936 232.116 110.777 232.155 110.633 232.229L94.3311 241.674C94.066 241.831 94.054 242.072 94.3311 242.204L100.139 245.566C100.282 245.64 100.441 245.678 100.603 245.678C100.764 245.678 100.923 245.64 101.066 245.566L117.369 236.132C117.634 235.964 117.646 235.723 117.405 235.59H117.381ZM136.153 246.975L129.43 250.854C129.165 251.011 129.152 251.252 129.43 251.397L135.237 254.746C135.381 254.82 135.54 254.858 135.701 254.858C135.862 254.858 136.022 254.82 136.165 254.746L142.888 250.867C143.153 250.722 143.177 250.481 142.888 250.336L137.081 246.975C136.936 246.904 136.778 246.867 136.617 246.867C136.456 246.867 136.297 246.904 136.153 246.975ZM200.097 283.889L193.373 287.768C193.108 287.925 193.096 288.166 193.373 288.31L199.193 291.659C199.334 291.733 199.491 291.772 199.651 291.772C199.81 291.772 199.967 291.733 200.109 291.659L206.832 287.78C207.097 287.636 207.121 287.395 206.832 287.25L201.024 283.889C200.881 283.816 200.723 283.777 200.562 283.775C200.401 283.772 200.242 283.807 200.097 283.877V283.889ZM124.755 251.481C125.02 251.336 125.032 251.095 124.755 250.951L118.947 247.59C118.803 247.518 118.644 247.481 118.483 247.481C118.322 247.481 118.164 247.518 118.019 247.59L111.296 251.469C111.031 251.626 111.007 251.866 111.296 252.011L117.104 255.408C117.248 255.48 117.407 255.517 117.567 255.517C117.728 255.517 117.887 255.48 118.031 255.408L124.755 251.481ZM191.578 278.973L184.855 282.853C184.59 283.009 184.565 283.25 184.855 283.383L190.662 286.744C190.806 286.818 190.965 286.857 191.126 286.857C191.288 286.857 191.447 286.818 191.59 286.744L198.313 282.865C198.578 282.72 198.59 282.479 198.313 282.335L192.506 278.973C192.361 278.902 192.203 278.865 192.042 278.865C191.881 278.865 191.722 278.902 191.578 278.973ZM262.908 331.236C263.173 331.091 263.185 330.85 262.908 330.706L257.088 327.344C256.945 327.27 256.785 327.232 256.624 327.232C256.463 327.232 256.304 327.27 256.16 327.344L249.497 331.308C249.232 331.465 249.22 331.705 249.497 331.838L255.305 335.199C255.448 335.273 255.607 335.312 255.769 335.312C255.93 335.312 256.089 335.273 256.233 335.199L262.908 331.236ZM268.04 323.116L261.317 326.995C261.052 327.152 261.04 327.392 261.317 327.525L267.137 330.886C267.28 330.96 267.439 330.999 267.601 330.999C267.762 330.999 267.921 330.96 268.065 330.886L274.776 327.007C275.041 326.862 275.065 326.621 274.776 326.477L268.968 323.116C268.828 323.046 268.673 323.009 268.516 323.009C268.36 323.009 268.205 323.046 268.065 323.116H268.04ZM247.69 330.212L254.413 326.332C254.678 326.176 254.69 325.947 254.413 325.802L248.594 322.441C248.45 322.367 248.291 322.328 248.13 322.328C247.968 322.328 247.809 322.367 247.666 322.441L240.979 326.344C240.714 326.501 240.701 326.73 240.979 326.874L246.798 330.236C246.942 330.304 247.1 330.337 247.259 330.333C247.418 330.329 247.574 330.287 247.714 330.212H247.69ZM239.219 325.284L245.943 321.405C246.208 321.248 246.22 321.007 245.943 320.875L240.135 317.513C239.992 317.44 239.833 317.401 239.671 317.401C239.51 317.401 239.351 317.44 239.207 317.513L232.544 321.441C232.279 321.586 232.267 321.827 232.544 321.971L238.364 325.332C238.501 325.387 238.649 325.412 238.797 325.403C238.945 325.395 239.089 325.354 239.219 325.284ZM230.785 320.381L237.496 316.501C237.774 316.345 237.786 316.104 237.496 315.971L231.689 312.61C231.545 312.536 231.386 312.498 231.225 312.498C231.064 312.498 230.905 312.536 230.761 312.61L224.038 316.489C223.773 316.634 223.761 316.875 224.038 317.02L229.857 320.381C229.988 320.456 230.132 320.503 230.282 320.517C230.432 320.532 230.583 320.514 230.725 320.465L230.785 320.381ZM259.63 318.188L252.907 322.067C252.642 322.224 252.618 322.453 252.907 322.598L258.715 325.959C258.858 326.033 259.017 326.071 259.178 326.071C259.34 326.071 259.499 326.033 259.642 325.959L266.366 322.08C266.631 321.923 266.655 321.694 266.366 321.549L260.558 318.188C260.405 318.107 260.234 318.067 260.061 318.071C259.888 318.076 259.719 318.124 259.57 318.212L259.63 318.188ZM251.124 313.285L244.413 317.164C244.147 317.309 244.123 317.55 244.413 317.694L250.22 321.055C250.364 321.129 250.523 321.168 250.684 321.168C250.845 321.168 251.004 321.129 251.148 321.055L257.871 317.176C258.136 317.02 258.148 316.779 257.871 316.646L251.991 313.237C251.842 313.174 251.68 313.147 251.519 313.16C251.357 313.172 251.201 313.224 251.064 313.309L251.124 313.285ZM217.146 293.659L210.362 297.575C210.097 297.731 210.085 297.972 210.362 298.117L216.182 301.466C216.326 301.537 216.485 301.574 216.646 301.574C216.807 301.574 216.965 301.537 217.11 301.466L223.833 297.587C224.098 297.43 224.11 297.189 223.833 297.045L218.025 293.696C217.88 293.621 217.72 293.58 217.557 293.578C217.394 293.576 217.232 293.612 217.086 293.683L217.146 293.659ZM225.64 298.563L218.917 302.442C218.652 302.599 218.64 302.84 218.917 302.984L224.737 306.333C224.88 306.407 225.039 306.446 225.201 306.446C225.362 306.446 225.521 306.407 225.664 306.333L232.388 302.454C232.653 302.297 232.665 302.057 232.388 301.912L226.52 298.575C226.373 298.504 226.212 298.467 226.049 298.47C225.885 298.472 225.725 298.512 225.58 298.587L225.64 298.563ZM208.651 288.756L201.928 292.635C201.663 292.792 201.651 293.033 201.928 293.177L207.748 296.527C207.892 296.598 208.051 296.635 208.212 296.635C208.372 296.635 208.531 296.598 208.675 296.527L215.387 292.647C215.652 292.491 215.676 292.25 215.387 292.105L209.579 288.756C209.426 288.675 209.255 288.635 209.082 288.639C208.909 288.644 208.74 288.692 208.591 288.78L208.651 288.756ZM242.569 308.418L235.846 312.297C235.581 312.441 235.569 312.682 235.846 312.827L241.653 316.188C241.798 316.259 241.956 316.296 242.117 316.296C242.278 316.296 242.437 316.259 242.581 316.188L249.304 312.309C249.569 312.152 249.582 311.911 249.304 311.779L243.497 308.418C243.353 308.344 243.194 308.305 243.033 308.305C242.872 308.305 242.712 308.344 242.569 308.418ZM234.135 303.502L227.411 307.394C227.146 307.538 227.134 307.779 227.411 307.924L233.219 311.285C233.363 311.356 233.522 311.393 233.683 311.393C233.844 311.393 234.003 311.356 234.147 311.285L240.87 307.406C241.135 307.249 241.147 307.008 240.87 306.863L234.954 303.478C234.815 303.416 234.665 303.385 234.513 303.387C234.361 303.39 234.212 303.425 234.075 303.49L234.135 303.502ZM242.183 338.079L248.907 334.199C249.172 334.043 249.184 333.814 248.907 333.669L243.087 330.308C242.944 330.234 242.785 330.195 242.623 330.195C242.462 330.195 242.303 330.234 242.159 330.308L235.436 334.187C235.171 334.344 235.159 334.573 235.436 334.717L241.244 338.079C241.389 338.155 241.55 338.194 241.714 338.194C241.877 338.194 242.038 338.155 242.183 338.079ZM291.078 333.609L296.898 336.958C297.041 337.032 297.2 337.071 297.362 337.071C297.523 337.071 297.682 337.032 297.825 336.958L304.537 333.079C304.802 332.934 304.826 332.693 304.537 332.549L298.729 329.188C298.585 329.116 298.426 329.079 298.265 329.079C298.104 329.079 297.946 329.116 297.801 329.188L291.078 333.067C290.801 333.223 290.789 333.464 291.03 333.609H291.078ZM278.33 337.332L287.283 342.488C287.427 342.559 287.586 342.596 287.746 342.596C287.907 342.596 288.066 342.559 288.21 342.488L294.922 338.597C295.187 338.452 295.211 338.211 294.922 338.067L285.981 332.91C285.838 332.836 285.679 332.798 285.517 332.798C285.356 332.798 285.197 332.836 285.054 332.91L278.33 336.802C278.065 336.958 278.053 337.199 278.33 337.332ZM301.38 326.091L308.537 330.224C308.681 330.295 308.84 330.332 309.001 330.332C309.162 330.332 309.32 330.295 309.465 330.224L316.188 326.344C316.453 326.188 316.465 325.947 316.188 325.802L309.031 321.67C308.887 321.599 308.728 321.562 308.567 321.562C308.406 321.562 308.247 321.599 308.103 321.67L301.38 325.549C301.115 325.718 301.103 325.959 301.344 326.103L301.38 326.091ZM302.645 318.501C302.91 318.357 302.934 318.116 302.645 317.971L296.837 314.61C296.693 314.539 296.534 314.502 296.374 314.502C296.213 314.502 296.054 314.539 295.91 314.61L289.174 318.526C288.909 318.682 288.897 318.923 289.174 319.056L294.994 322.417C295.137 322.491 295.296 322.529 295.458 322.529C295.619 322.529 295.778 322.491 295.922 322.417L302.645 318.501ZM266.498 341.584L277.68 348.03C277.824 348.101 277.983 348.138 278.143 348.138C278.304 348.138 278.463 348.101 278.607 348.03L285.319 344.151C285.584 343.994 285.608 343.753 285.319 343.608L274.137 337.163C273.994 337.089 273.835 337.05 273.673 337.05C273.512 337.05 273.353 337.089 273.209 337.163L266.498 341.042C266.281 341.211 266.209 341.452 266.462 341.597L266.498 341.584ZM260.92 349.452L268.077 353.572C268.22 353.646 268.379 353.684 268.54 353.684C268.702 353.684 268.861 353.646 269.004 353.572L275.728 349.692C275.993 349.536 276.005 349.295 275.728 349.15L268.571 345.018C268.428 344.947 268.272 344.91 268.113 344.91C267.954 344.91 267.797 344.947 267.655 345.018L260.932 348.897C260.654 349.078 260.63 349.379 260.883 349.464L260.92 349.452ZM239.484 282.046C239.75 281.889 239.762 281.648 239.484 281.503L233.677 278.154C233.533 278.08 233.374 278.042 233.213 278.042C233.052 278.042 232.893 278.08 232.749 278.154L226.026 282.034C225.761 282.19 225.749 282.431 226.026 282.576L231.845 285.925C231.99 285.996 232.148 286.033 232.309 286.033C232.47 286.033 232.629 285.996 232.773 285.925L239.484 282.046ZM256.473 291.852C256.739 291.696 256.751 291.455 256.473 291.31L250.618 287.937C250.473 287.866 250.315 287.829 250.154 287.829C249.993 287.829 249.834 287.866 249.69 287.937L242.967 291.816C242.702 291.973 242.69 292.214 242.967 292.358L248.774 295.707C248.918 295.781 249.077 295.82 249.238 295.82C249.399 295.82 249.559 295.781 249.702 295.707L256.473 291.852ZM294.15 313.598C294.416 313.453 294.428 313.213 294.15 313.068L288.343 309.707C288.199 309.633 288.04 309.594 287.879 309.594C287.718 309.594 287.559 309.633 287.415 309.707L280.74 313.622C280.475 313.779 280.463 314.02 280.74 314.152L286.548 317.513C286.691 317.587 286.85 317.626 287.011 317.626C287.173 317.626 287.332 317.587 287.475 317.513L294.15 313.598ZM247.979 286.949C248.244 286.792 248.256 286.551 247.979 286.407L242.183 283.118C242.039 283.047 241.88 283.01 241.72 283.01C241.559 283.01 241.4 283.047 241.256 283.118L234.532 286.997C234.267 287.154 234.255 287.395 234.532 287.539L240.34 290.888C240.484 290.96 240.643 290.997 240.804 290.997C240.965 290.997 241.123 290.96 241.268 290.888L247.979 286.949ZM264.968 296.756C265.233 296.599 265.245 296.358 264.968 296.213L259.148 292.864C259.004 292.793 258.845 292.756 258.684 292.756C258.524 292.756 258.365 292.793 258.221 292.864L251.509 296.756C251.244 296.9 251.22 297.141 251.509 297.286L257.317 300.635C257.46 300.709 257.619 300.747 257.781 300.747C257.942 300.747 258.101 300.709 258.245 300.635L264.968 296.756ZM249.557 353.379C249.292 353.524 249.28 353.765 249.557 353.909L258.51 359.077C258.654 359.149 258.813 359.186 258.974 359.186C259.135 359.186 259.293 359.149 259.438 359.077L266.161 355.198C266.426 355.042 266.438 354.801 266.161 354.656L257.221 349.5C257.077 349.426 256.918 349.387 256.757 349.387C256.595 349.387 256.436 349.426 256.293 349.5L249.557 353.379ZM277.125 303.803C277.39 303.647 277.402 303.406 277.125 303.273L271.306 299.912C271.162 299.838 271.003 299.799 270.842 299.799C270.68 299.799 270.521 299.838 270.378 299.912L263.655 303.791C263.39 303.936 263.378 304.177 263.655 304.321L269.462 307.683C269.606 307.757 269.765 307.795 269.926 307.795C270.087 307.795 270.247 307.757 270.39 307.683L277.125 303.803ZM285.62 308.707C285.885 308.55 285.897 308.321 285.62 308.177L279.836 304.803C279.693 304.729 279.534 304.691 279.372 304.691C279.211 304.691 279.052 304.729 278.909 304.803L272.197 308.683C271.932 308.839 271.908 309.068 272.197 309.213L278.005 312.574C278.148 312.648 278.307 312.687 278.469 312.687C278.63 312.687 278.789 312.648 278.933 312.574L285.62 308.707ZM92.1261 262.565C91.8611 262.721 91.849 262.962 92.1261 263.107L106.44 271.359C106.584 271.433 106.743 271.472 106.904 271.472C107.066 271.472 107.225 271.433 107.368 271.359L114.043 267.456C114.308 267.299 114.332 267.058 114.043 266.914L99.7411 258.661C99.5968 258.59 99.4381 258.553 99.2772 258.553C99.1163 258.553 98.9576 258.59 98.8133 258.661L92.1261 262.565ZM110.898 273.407C110.633 273.564 110.621 273.805 110.898 273.95L116.706 277.299C116.85 277.37 117.009 277.407 117.17 277.407C117.331 277.407 117.489 277.37 117.634 277.299L124.357 273.42C124.622 273.263 124.634 273.022 124.357 272.877L118.537 269.528C118.393 269.457 118.234 269.42 118.074 269.42C117.913 269.42 117.754 269.457 117.61 269.528L110.898 273.407ZM233.641 333.175L240.364 329.296C240.629 329.139 240.641 328.898 240.364 328.766L234.556 325.405C234.413 325.331 234.254 325.292 234.093 325.292C233.931 325.292 233.772 325.331 233.629 325.405L226.905 329.284C226.64 329.429 226.628 329.669 226.905 329.814L232.725 333.175C232.867 333.247 233.024 333.285 233.183 333.285C233.342 333.285 233.499 333.247 233.641 333.175ZM127.899 283.226C127.634 283.371 127.622 283.612 127.899 283.756L133.707 287.118C133.851 287.189 134.01 287.226 134.171 287.226C134.332 287.226 134.49 287.189 134.635 287.118L141.358 283.238C141.623 283.082 141.647 282.841 141.358 282.696L135.55 279.347C135.406 279.276 135.247 279.239 135.087 279.239C134.926 279.239 134.767 279.276 134.623 279.347L127.899 283.226ZM83.6316 257.661C83.3666 257.818 83.3425 258.059 83.6316 258.203L89.4392 261.553C89.5835 261.624 89.7422 261.661 89.9031 261.661C90.064 261.661 90.2227 261.624 90.367 261.553L97.0903 257.673C97.3554 257.517 97.3674 257.276 97.0903 257.131L91.2707 253.782C91.1294 253.708 90.9723 253.67 90.8128 253.67C90.6533 253.67 90.4962 253.708 90.3549 253.782L83.6316 257.661ZM75.101 253.3L80.9086 256.613C81.0529 256.684 81.2116 256.721 81.3725 256.721C81.5334 256.721 81.6921 256.684 81.8363 256.613L98.1626 247.18C98.4277 247.035 98.4398 246.794 98.1626 246.65L92.3792 243.361C92.2349 243.29 92.0762 243.253 91.9153 243.253C91.7544 243.253 91.5957 243.29 91.4514 243.361L75.1251 252.758C74.8721 252.915 74.848 253.156 75.101 253.3ZM159.648 301.551C159.383 301.695 159.359 301.936 159.648 302.081L166.805 306.213C166.949 306.287 167.108 306.325 167.269 306.325C167.431 306.325 167.59 306.287 167.733 306.213L174.456 302.334C174.722 302.189 174.734 301.948 174.456 301.804L167.311 297.671C167.168 297.597 167.009 297.559 166.848 297.559C166.686 297.559 166.527 297.597 166.384 297.671L159.648 301.551ZM138.177 289.142C137.912 289.298 137.9 289.539 138.177 289.684L147.117 294.84C147.262 294.911 147.42 294.948 147.581 294.948C147.742 294.948 147.901 294.911 148.045 294.84L154.769 290.961C155.034 290.804 155.046 290.563 154.769 290.419L145.792 285.262C145.648 285.191 145.489 285.154 145.328 285.154C145.167 285.154 145.009 285.191 144.864 285.262L138.177 289.142ZM179.324 312.899C179.059 313.044 179.035 313.285 179.324 313.429L227.17 341.054C227.314 341.128 227.473 341.167 227.634 341.167C227.796 341.167 227.955 341.128 228.098 341.054L234.822 337.175C235.087 337.018 235.099 336.778 234.822 336.645L186.975 309.02C186.831 308.949 186.672 308.912 186.511 308.912C186.351 308.912 186.192 308.949 186.048 309.02L179.324 312.899ZM229.845 342.066C229.58 342.223 229.568 342.452 229.845 342.596L236.99 346.729C237.134 346.803 237.293 346.841 237.454 346.841C237.616 346.841 237.775 346.803 237.918 346.729L244.641 342.849C244.907 342.705 244.919 342.464 244.641 342.319L237.484 338.187C237.341 338.113 237.182 338.075 237.02 338.075C236.859 338.075 236.7 338.113 236.557 338.187L229.845 342.066ZM169.48 307.213C169.215 307.369 169.203 307.61 169.48 307.755L176.637 311.875C176.781 311.949 176.94 311.988 177.101 311.988C177.263 311.988 177.422 311.949 177.565 311.875L184.288 307.996C184.553 307.839 184.565 307.598 184.288 307.454L177.119 303.334C176.976 303.26 176.817 303.221 176.655 303.221C176.494 303.221 176.335 303.26 176.191 303.334L169.48 307.213ZM239.689 347.741C239.424 347.897 239.412 348.138 239.689 348.283L246.846 352.403C246.99 352.477 247.149 352.516 247.31 352.516C247.472 352.516 247.631 352.477 247.774 352.403L254.497 348.524C254.763 348.367 254.775 348.126 254.497 347.982L247.352 343.849C247.208 343.778 247.049 343.741 246.889 343.741C246.728 343.741 246.569 343.778 246.425 343.849L239.689 347.741ZM149.804 295.852C149.539 296.009 149.527 296.25 149.804 296.394L156.961 300.526C157.106 300.598 157.264 300.635 157.425 300.635C157.586 300.635 157.745 300.598 157.889 300.526L164.612 296.647C164.878 296.491 164.89 296.25 164.612 296.117L157.455 291.985C157.311 291.914 157.152 291.877 156.992 291.877C156.831 291.877 156.672 291.914 156.528 291.985L149.804 295.852ZM119.405 278.299C119.14 278.455 119.116 278.696 119.405 278.841L125.212 282.19C125.356 282.264 125.515 282.303 125.676 282.303C125.838 282.303 125.997 282.264 126.14 282.19L132.864 278.311C133.129 278.154 133.141 277.913 132.864 277.769L127.044 274.419C126.9 274.348 126.741 274.311 126.58 274.311C126.419 274.311 126.26 274.348 126.116 274.419L119.405 278.299ZM108.44 260.902L115.164 257.023C115.429 256.866 115.441 256.625 115.164 256.481L109.356 253.131C109.213 253.058 109.054 253.019 108.892 253.019C108.731 253.019 108.572 253.058 108.428 253.131L101.705 257.011C101.44 257.167 101.428 257.408 101.705 257.553L107.513 260.902C107.657 260.973 107.816 261.01 107.976 261.01C108.137 261.01 108.296 260.973 108.44 260.902ZM146.431 260.649L153.154 256.77C153.419 256.625 153.431 256.384 153.154 256.24L147.334 252.878C147.191 252.804 147.032 252.766 146.87 252.766C146.709 252.766 146.55 252.804 146.407 252.878L139.768 256.782C139.503 256.938 139.49 257.179 139.768 257.312L145.575 260.673C145.709 260.73 145.854 260.757 146 260.753C146.145 260.749 146.288 260.714 146.419 260.649H146.431ZM165.709 293.936L172.432 290.057C172.697 289.901 172.709 289.672 172.432 289.527L155.431 279.72C155.288 279.646 155.129 279.608 154.967 279.608C154.806 279.608 154.647 279.646 154.503 279.72L147.78 283.6C147.515 283.756 147.503 283.997 147.78 284.142L164.769 293.949C164.909 294.02 165.063 294.059 165.22 294.061C165.376 294.063 165.532 294.029 165.673 293.961L165.709 293.936ZM123.682 261.926C123.947 261.77 123.971 261.529 123.682 261.384L117.875 258.035C117.73 257.964 117.572 257.927 117.411 257.927C117.25 257.927 117.091 257.964 116.947 258.035L110.224 261.914C109.959 262.071 109.947 262.312 110.224 262.456L116.043 265.805C116.188 265.877 116.346 265.914 116.507 265.914C116.668 265.914 116.827 265.877 116.971 265.805L123.682 261.926ZM126.514 260.227L133.237 256.348C133.502 256.192 133.526 255.951 133.237 255.806L127.429 252.457C127.286 252.383 127.127 252.344 126.966 252.344C126.804 252.344 126.645 252.383 126.502 252.457L119.778 256.336C119.513 256.493 119.501 256.734 119.778 256.878L125.598 260.227C125.74 260.299 125.897 260.336 126.056 260.336C126.215 260.336 126.372 260.299 126.514 260.227ZM174.155 298.78L180.879 294.9C181.144 294.756 181.156 294.515 180.879 294.37L175.059 291.009C174.915 290.935 174.756 290.896 174.595 290.896C174.434 290.896 174.275 290.935 174.131 291.009L167.48 294.973C167.215 295.129 167.203 295.37 167.48 295.503L173.3 298.864C173.437 298.924 173.586 298.954 173.736 298.95C173.886 298.945 174.034 298.908 174.167 298.84L174.155 298.78ZM142.418 272.709C142.683 272.552 142.695 272.311 142.418 272.167L136.599 268.817C136.455 268.743 136.296 268.705 136.135 268.705C135.973 268.705 135.814 268.743 135.671 268.817L128.96 272.697C128.695 272.853 128.671 273.094 128.96 273.239L134.767 276.588C134.912 276.659 135.07 276.696 135.231 276.696C135.392 276.696 135.551 276.659 135.695 276.588L142.418 272.709ZM216.64 323.308L223.351 319.429C223.616 319.272 223.64 319.031 223.351 318.887L217.592 315.646C217.447 315.575 217.289 315.538 217.128 315.538C216.967 315.538 216.808 315.575 216.664 315.646L209.941 319.537C209.675 319.682 209.663 319.923 209.941 320.068L215.76 323.417C215.903 323.477 216.057 323.505 216.212 323.496C216.366 323.488 216.517 323.444 216.652 323.369L216.64 323.308ZM208.133 318.405L214.857 314.526C215.122 314.369 215.134 314.128 214.857 313.984L209.049 310.634C208.905 310.563 208.746 310.526 208.585 310.526C208.424 310.526 208.265 310.563 208.121 310.634L201.398 314.514C201.133 314.67 201.109 314.911 201.398 315.056L207.205 318.405C207.347 318.488 207.505 318.536 207.668 318.547C207.831 318.557 207.995 318.529 208.145 318.465L208.133 318.405ZM225.134 328.212L231.858 324.332C232.123 324.176 232.135 323.935 231.858 323.79L226.086 320.465C225.943 320.391 225.784 320.353 225.622 320.353C225.461 320.353 225.302 320.391 225.158 320.465L218.435 324.344C218.17 324.489 218.158 324.73 218.435 324.875L224.255 328.236C224.391 328.307 224.542 328.347 224.696 328.353C224.851 328.36 225.004 328.332 225.146 328.272L225.134 328.212ZM191.156 308.659L197.88 304.767C198.145 304.623 198.157 304.382 197.88 304.237L192.06 300.888C191.916 300.814 191.757 300.775 191.596 300.775C191.435 300.775 191.276 300.814 191.132 300.888L184.445 304.803C184.18 304.96 184.168 305.201 184.445 305.345L190.253 308.695C190.396 308.757 190.552 308.785 190.709 308.779C190.865 308.773 191.018 308.732 191.156 308.659ZM199.59 313.562L206.314 309.683C206.579 309.526 206.591 309.285 206.314 309.14L200.494 305.791C200.351 305.717 200.192 305.679 200.03 305.679C199.869 305.679 199.71 305.717 199.566 305.791L192.855 309.671C192.59 309.827 192.566 310.068 192.855 310.213L198.663 313.562C198.815 313.643 198.984 313.686 199.157 313.686C199.329 313.686 199.499 313.643 199.651 313.562H199.59ZM182.602 303.755L189.325 299.864C189.59 299.719 189.602 299.478 189.325 299.334L183.505 295.973C183.361 295.901 183.202 295.864 183.041 295.864C182.88 295.864 182.722 295.901 182.577 295.973L175.914 299.876C175.649 300.033 175.637 300.273 175.914 300.418L181.722 303.767C181.869 303.839 182.03 303.875 182.193 303.872C182.356 303.87 182.517 303.83 182.662 303.755H182.602ZM144.599 230.181C144.864 230.024 144.876 229.783 144.599 229.639L138.792 226.29C138.647 226.218 138.489 226.181 138.328 226.181C138.167 226.181 138.008 226.218 137.864 226.29L136.069 227.326C135.803 227.482 135.791 227.723 136.069 227.868L141.876 231.217C142.02 231.288 142.179 231.325 142.34 231.325C142.501 231.325 142.66 231.288 142.804 231.217L144.599 230.181ZM191.325 254.276C191.59 254.119 191.614 253.878 191.325 253.734L185.517 250.385C185.374 250.311 185.215 250.272 185.053 250.272C184.892 250.272 184.733 250.311 184.59 250.385L177.866 254.264C177.601 254.409 177.589 254.649 177.866 254.794L183.686 258.155C183.828 258.226 183.985 258.263 184.144 258.263C184.303 258.263 184.459 258.226 184.602 258.155L191.325 254.276ZM174.396 244.566C174.661 244.409 174.673 244.168 174.396 244.024L168.577 240.674C168.432 240.603 168.274 240.566 168.113 240.566C167.952 240.566 167.793 240.603 167.649 240.674L160.974 244.566C160.709 244.722 160.685 244.963 160.974 245.108L166.781 248.457C166.926 248.528 167.084 248.565 167.245 248.565C167.406 248.565 167.565 248.528 167.709 248.457L174.396 244.566ZM201.759 260.36C202.024 260.203 202.048 259.962 201.759 259.83L195.952 256.469C195.808 256.395 195.649 256.356 195.488 256.356C195.326 256.356 195.167 256.395 195.024 256.469L188.301 260.348C188.036 260.493 188.024 260.733 188.301 260.878L194.12 264.239C194.265 264.31 194.423 264.348 194.584 264.348C194.745 264.348 194.904 264.31 195.048 264.239L201.759 260.36ZM182.891 249.517C183.156 249.361 183.168 249.12 182.891 248.975L177.119 245.517C176.975 245.446 176.816 245.409 176.655 245.409C176.494 245.409 176.336 245.446 176.191 245.517L169.468 249.385C169.203 249.541 169.179 249.782 169.468 249.927L175.276 253.276C175.419 253.35 175.578 253.389 175.74 253.389C175.901 253.389 176.06 253.35 176.204 253.276L182.891 249.517ZM218.76 270.215C219.025 270.058 219.037 269.829 218.76 269.685L212.977 266.251C212.833 266.177 212.674 266.139 212.513 266.139C212.352 266.139 212.193 266.177 212.049 266.251L205.326 270.131C205.061 270.287 205.049 270.516 205.326 270.661L211.145 274.022C211.289 274.096 211.448 274.134 211.609 274.134C211.771 274.134 211.93 274.096 212.073 274.022L218.76 270.215ZM210.266 265.312C210.531 265.155 210.543 264.914 210.266 264.781L204.458 261.42C204.315 261.346 204.156 261.308 203.994 261.308C203.833 261.308 203.674 261.346 203.531 261.42L196.807 265.299C196.542 265.456 196.53 265.685 196.807 265.83L202.627 269.191C202.77 269.265 202.929 269.303 203.091 269.303C203.252 269.303 203.411 269.265 203.555 269.191L210.266 265.312ZM161.648 239.988C161.914 239.831 161.926 239.59 161.648 239.458L155.865 236.132C155.722 236.058 155.562 236.02 155.401 236.02C155.24 236.02 155.081 236.058 154.937 236.132L153.154 237.156C152.889 237.313 152.865 237.554 153.154 237.699L158.962 241.048C159.106 241.119 159.265 241.156 159.425 241.156C159.586 241.156 159.745 241.119 159.889 241.048L161.648 239.988ZM136.153 225.29C136.418 225.133 136.442 224.892 136.153 224.747L130.345 221.398C130.201 221.327 130.042 221.29 129.881 221.29C129.721 221.29 129.562 221.327 129.418 221.398L127.622 222.434C127.357 222.591 127.345 222.832 127.622 222.964L133.43 226.326C133.573 226.4 133.732 226.438 133.894 226.438C134.055 226.438 134.214 226.4 134.358 226.326L136.153 225.29ZM126.972 230.591C127.237 230.434 127.249 230.193 126.972 230.06L121.152 226.699C121.009 226.625 120.85 226.587 120.688 226.587C120.527 226.587 120.368 226.625 120.224 226.699L113.501 230.578C113.236 230.723 113.224 230.964 113.501 231.109L119.284 234.482C119.429 234.553 119.587 234.59 119.748 234.59C119.909 234.59 120.068 234.553 120.212 234.482L126.972 230.591ZM99.9338 256.011L106.657 252.119C106.922 251.975 106.934 251.734 106.657 251.589L100.874 248.18C100.729 248.109 100.571 248.072 100.41 248.072C100.249 248.072 100.09 248.109 99.9459 248.18L93.2346 252.059C92.9696 252.216 92.9455 252.457 93.2346 252.601L99.0422 255.951C99.1781 256.024 99.3285 256.066 99.4826 256.074C99.6368 256.083 99.7908 256.057 99.9338 255.999V256.011ZM153.154 235.096C153.419 234.94 153.431 234.699 153.154 234.554L147.346 231.205C147.203 231.131 147.044 231.092 146.882 231.092C146.721 231.092 146.562 231.131 146.419 231.205L144.635 232.229C144.37 232.386 144.346 232.627 144.635 232.771L150.443 236.12C150.587 236.192 150.746 236.229 150.907 236.229C151.068 236.229 151.226 236.192 151.371 236.12L153.154 235.096ZM227.255 275.022C227.52 274.877 227.532 274.636 227.255 274.492L221.471 271.07C221.328 270.996 221.169 270.958 221.007 270.958C220.846 270.958 220.687 270.996 220.544 271.07L213.82 274.95C213.555 275.106 213.543 275.347 213.82 275.48L219.628 278.841C219.771 278.915 219.93 278.953 220.092 278.953C220.253 278.953 220.412 278.915 220.556 278.841L227.255 275.022Z" fill="#4A4864"/>
<path d="M182.854 329.886L125.489 296.768C124.519 296.275 123.445 296.018 122.357 296.018C121.268 296.018 120.195 296.275 119.224 296.768L86.3303 315.755C84.6073 316.755 84.6073 318.369 86.3303 319.369L143.695 352.488C144.666 352.981 145.739 353.238 146.828 353.238C147.917 353.238 148.99 352.981 149.961 352.488L182.854 333.501C184.577 332.513 184.577 330.886 182.854 329.886Z" fill="#242331"/>
<path d="M77.354 170.629H77.4263L87.222 164.991C87.7883 164.738 88.6197 164.991 89.6318 165.737C98.7529 172.713 110.995 174.869 120.959 171.689C121.603 171.087 122.214 170.452 122.79 169.785L122.971 169.581C123.259 169.248 123.601 168.967 123.983 168.749L124.152 168.653L133.96 163.027C135.08 162.497 136.092 163.027 136.767 164.689C146.238 188.218 166.42 212.06 179.878 218.024C180.896 218.48 181.801 219.155 182.529 220C183.496 221.05 184.03 222.427 184.023 223.855L182.083 276.683C182.083 291.947 175.637 308.007 162.492 315.91L152.383 321.669L152.202 321.765C146.717 324.845 140.515 326.42 134.225 326.331C132.815 326.331 131.381 326.331 129.899 326.126C127.017 325.653 124.345 324.317 122.236 322.295C92.7766 291.96 78.5227 250.853 78.5227 228.108L76.5828 172.846C76.5346 171.653 76.8238 170.918 77.354 170.629Z" fill="#25CED1"/>
<path d="M76.5828 172.846L78.5227 228.108C78.5227 250.854 92.8248 291.96 122.236 322.332C124.345 324.354 127.017 325.689 129.899 326.163C131.381 326.308 132.815 326.368 134.225 326.368C140.515 326.457 146.717 324.881 152.202 321.802L152.383 321.705L152.732 321.489C165.877 313.646 172.3 297.574 172.3 282.262L174.239 229.433C174.246 228.006 173.713 226.628 172.745 225.578C172.017 224.733 171.112 224.059 170.095 223.602C156.636 217.639 136.454 193.797 126.984 170.268C126.309 168.605 125.285 168.063 124.164 168.593L123.995 168.69C123.613 168.907 123.271 169.188 122.983 169.521L122.803 169.726C112.754 181.424 92.9935 181.412 79.7999 171.316C78.7999 170.557 77.9685 170.316 77.3901 170.569H77.3178C76.8238 170.918 76.5347 171.653 76.5828 172.846Z" fill="#25CED1"/>
<path opacity="0.4" d="M77.4141 170.569C77.9804 170.316 78.8117 170.569 79.8238 171.316C92.2463 180.821 110.5 181.388 120.971 171.629C110.958 174.822 98.7286 172.653 89.6437 165.678C88.6437 164.919 87.8123 164.678 87.2339 164.931L77.4141 170.569Z" fill="white"/>
<path opacity="0.4" d="M124.188 168.593C125.309 168.063 126.333 168.593 127.007 170.268C136.478 193.797 156.66 217.639 170.118 223.602C171.136 224.059 172.041 224.733 172.769 225.578C173.022 225.866 173.248 226.176 173.444 226.506L183.228 220.855C183.033 220.532 182.811 220.226 182.565 219.94C182.43 219.782 182.285 219.633 182.131 219.494L181.938 219.265L181.77 219.108C181.213 218.613 180.583 218.207 179.902 217.904C166.444 211.94 146.262 188.098 136.791 164.569C136.116 162.907 135.104 162.377 133.984 162.907L124.188 168.593Z" fill="white"/>
<path d="M182.119 219.469C182.068 219.394 182.007 219.325 181.938 219.265L182.107 219.433C182.107 219.433 182.131 219.469 182.119 219.469Z" fill="#25CED1"/>
<path opacity="0.15" d="M181.938 219.265L182.107 219.433C182.058 219.371 182.001 219.314 181.938 219.265Z" fill="black"/>
<path opacity="0.15" d="M152.202 321.802L152.383 321.717L162.528 315.85C175.673 308.007 182.12 291.888 182.12 276.624L184.059 223.795C184.08 222.754 183.791 221.731 183.228 220.855L173.505 226.494C174.059 227.368 174.344 228.386 174.324 229.421L172.3 282.262C172.3 297.526 165.854 313.585 152.708 321.489L152.359 321.705L152.202 321.802Z" fill="black"/>
<path d="M117.597 273.19L133.261 282.225L130.851 253.902C132.731 252.914 133.924 250.48 133.924 246.974C133.924 240.746 130.128 233.493 125.489 230.794C120.851 228.096 117.055 230.963 117.055 237.204C117.151 240.896 118.205 244.5 120.116 247.661L117.597 273.19Z" fill="#4A4864"/>
<path d="M117.597 273.189L131.779 264.997L133.261 282.225L117.597 273.189Z" fill="#363448"/>
<path d="M125.429 230.794C128.49 232.565 131.164 236.276 132.658 240.432L120.031 247.721C118.121 244.56 117.066 240.956 116.971 237.264C116.959 230.963 120.754 228.096 125.429 230.794Z" fill="#363448"/>
<path d="M385.06 375.426C370.481 366.992 346.828 366.992 332.237 375.426C326.128 378.955 322.297 381.317 321.309 385.919V390.678C321.436 394.565 323.064 398.253 325.851 400.966L260.377 434.013V438.759L267.715 443H288.198L296.247 438.35V433.856L302.657 430.242L311.585 429.459L315.2 427.411L315.562 419.435L322.152 415.628L331.791 417.809L344.37 410.58C357.913 413.821 374.083 412.279 385.096 405.918C392.41 401.701 396.06 396.159 396.036 390.63V385.919C395.35 380.967 391.59 379.208 385.06 375.426ZM375.927 389.051C373.608 390.227 371.044 390.84 368.444 390.84C365.844 390.84 363.281 390.227 360.962 389.051C356.829 386.642 356.829 382.799 360.962 380.413C363.281 379.237 365.844 378.625 368.444 378.625C371.044 378.625 373.608 379.237 375.927 380.413C380.084 382.799 380.084 386.726 375.927 389.051Z" fill="#25CED1"/>
<path opacity="0.1" d="M385.06 375.426C370.481 366.992 346.828 366.992 332.237 375.426C326.128 378.955 322.297 381.317 321.309 385.919V390.678C321.436 394.565 323.064 398.253 325.851 400.966L260.377 434.013V438.759L267.715 443H288.198L296.247 438.35V433.856L302.657 430.242L311.585 429.459L315.2 427.411L315.562 419.435L322.152 415.628L331.791 417.809L344.37 410.58C357.913 413.821 374.083 412.279 385.096 405.918C392.41 401.701 396.06 396.159 396.036 390.63V385.919C395.35 380.967 391.59 379.208 385.06 375.426ZM375.927 389.051C373.608 390.227 371.044 390.84 368.444 390.84C365.844 390.84 363.281 390.227 360.962 389.051C356.829 386.642 356.829 382.799 360.962 380.413C363.281 379.237 365.844 378.625 368.444 378.625C371.044 378.625 373.608 379.237 375.927 380.413C380.084 382.799 380.084 386.726 375.927 389.051Z" fill="black"/>
<path d="M385.06 370.667C370.481 362.233 346.828 362.233 332.237 370.667C320.249 377.594 318.14 388.039 325.851 396.22L260.377 434.013L267.715 438.241H288.198L296.247 433.591L295.705 429.411L302.657 425.519L311.585 424.736L315.2 422.688L315.562 414.713L322.152 410.906L331.791 413.098L344.37 405.87C357.913 409.11 374.083 407.556 385.096 401.195C399.651 392.75 399.651 379.088 385.06 370.667ZM375.927 384.317C373.608 385.492 371.044 386.105 368.444 386.105C365.844 386.105 363.281 385.492 360.962 384.317C356.829 381.907 356.829 378.064 360.962 375.678C363.281 374.503 365.844 373.89 368.444 373.89C371.044 373.89 373.608 374.503 375.927 375.678C380.084 378.052 380.084 381.907 375.927 384.317Z" fill="#25CED1"/>
<path opacity="0.3" d="M334.309 397.568C328.671 394.316 325.441 390.063 325.441 385.906C325.441 381.75 328.671 377.473 334.309 374.244C340.744 370.522 349.395 368.474 358.648 368.474C367.902 368.474 376.553 370.522 382.999 374.244C388.638 377.497 391.867 381.75 391.867 385.906C391.867 390.063 388.638 394.34 382.999 397.568C376.553 401.279 367.914 403.327 358.648 403.327C349.383 403.327 340.744 401.291 334.309 397.568ZM335.141 375.678C330.02 378.63 327.092 382.352 327.092 385.906C327.092 389.46 330.02 393.135 335.141 396.135C341.322 399.749 349.672 401.677 358.648 401.677C367.625 401.677 375.975 399.713 382.168 396.135C387.276 393.183 390.216 389.46 390.216 385.906C390.216 382.352 387.276 378.678 382.168 375.678C375.975 372.064 367.625 370.136 358.648 370.136C349.672 370.136 341.322 372.112 335.141 375.69V375.678Z" fill="black"/>
<path opacity="0.1" d="M372.095 406.003V410.822C362.956 412.801 353.491 412.731 344.382 410.617V405.87C353.497 407.961 362.961 408.006 372.095 406.003Z" fill="black"/>
<path opacity="0.1" d="M331.755 413.098V417.845L322.08 415.664V410.905L331.755 413.098Z" fill="black"/>
<path opacity="0.1" d="M315.489 414.713V419.472L315.128 427.447V422.688L315.489 414.713Z" fill="black"/>
<path opacity="0.1" d="M311.573 424.736V429.495L302.645 430.278V425.519L311.573 424.736Z" fill="black"/>
<path opacity="0.1" d="M288.186 438.241H267.715V443H288.186V438.241Z" fill="black"/>
<path opacity="0.15" d="M260.377 434.013V438.759L267.715 443V438.241L264.498 436.386V438.434L262.727 437.41V435.338L260.377 434.013Z" fill="black"/>
<path d="M262.727 435.338L264.498 436.386V438.434L262.727 437.41V435.338Z" fill="#25CED1"/>
<path opacity="0.15" d="M262.727 435.338V437.411L329.864 398.654L328.092 397.605L262.727 435.338Z" fill="black"/>
<path opacity="0.15" d="M328.092 397.605V399.678L329.863 398.654L328.092 397.605Z" fill="black"/>
</g>
<defs>
<clipPath id="clip0_578_4934">
<rect width="396" height="443" fill="white"/>
</clipPath>
</defs>
</svg>
