<svg width="292" height="74" viewBox="0 0 292 74" fill="none" xmlns="http://www.w3.org/2000/svg">
<path d="M96.255 22.5365C97.5671 22.5365 98.5746 22.6771 99.2775 22.9582C99.9804 23.2394 100.59 23.544 101.105 23.872C101.386 24.036 101.609 24.1649 101.773 24.2586C101.96 24.3289 102.136 24.364 102.3 24.364C102.534 24.364 102.698 24.2351 102.792 23.9774C102.909 23.7197 103.003 23.3331 103.073 22.8176H103.881C103.858 23.2628 103.823 23.7783 103.776 24.364C103.753 24.9498 103.729 25.7347 103.706 26.7187C103.706 27.6793 103.706 28.9563 103.706 30.5495H102.897C102.827 29.3546 102.558 28.2065 102.089 27.1053C101.644 26.0041 101 25.1021 100.156 24.3992C99.3361 23.6728 98.2817 23.3097 96.9931 23.3097C95.845 23.3097 94.8844 23.6494 94.1112 24.3289C93.3614 25.0083 92.9865 25.9221 92.9865 27.0702C92.9865 28.0542 93.2326 28.886 93.7246 29.5655C94.2166 30.2215 94.9078 30.8658 95.7981 31.4984C96.7119 32.1076 97.7897 32.8105 99.0315 33.6071C100.18 34.3569 101.21 35.1066 102.124 35.8564C103.038 36.5827 103.753 37.3911 104.268 38.2814C104.807 39.1717 105.076 40.2612 105.076 41.5499C105.076 43.0728 104.702 44.338 103.952 45.3455C103.202 46.353 102.195 47.1028 100.929 47.5948C99.6641 48.0868 98.2817 48.3328 96.7822 48.3328C95.3998 48.3328 94.2986 48.1923 93.4786 47.9111C92.6819 47.63 91.9908 47.3371 91.405 47.0325C90.8896 46.7045 90.4912 46.5405 90.2101 46.5405C89.9758 46.5405 89.8001 46.6693 89.6829 46.9271C89.5892 47.1848 89.5072 47.5714 89.4369 48.0868H88.6286C88.6754 47.5479 88.6989 46.9153 88.6989 46.189C88.7223 45.4627 88.734 44.5255 88.734 43.3774C88.7574 42.2059 88.7691 40.7298 88.7691 38.9492H89.5775C89.6712 40.4487 89.9289 41.8545 90.3507 43.1665C90.7958 44.4552 91.4636 45.4978 92.3539 46.2944C93.2677 47.0911 94.4743 47.4894 95.9739 47.4894C96.7939 47.4894 97.5319 47.3488 98.188 47.0676C98.8675 46.763 99.4063 46.3062 99.8047 45.697C100.203 45.0644 100.402 44.2678 100.402 43.3071C100.402 42.3465 100.18 41.503 99.7344 40.7767C99.2892 40.0504 98.6683 39.3709 97.8717 38.7383C97.0751 38.1057 96.1379 37.4614 95.0601 36.8053C93.9589 36.1024 92.928 35.3878 91.9673 34.6615C91.0067 33.9351 90.2335 33.1151 89.6478 32.2013C89.0855 31.2641 88.8043 30.1395 88.8043 28.8274C88.8043 27.3748 89.1557 26.1915 89.8586 25.2778C90.5615 24.3406 91.4753 23.6494 92.5999 23.2042C93.748 22.7591 94.9664 22.5365 96.255 22.5365ZM112.433 48.0868C111.426 48.0868 110.571 47.8994 109.868 47.5245C109.165 47.1262 108.638 46.599 108.286 45.943C107.935 45.2635 107.759 44.5138 107.759 43.6937C107.759 42.6862 107.994 41.8662 108.462 41.2336C108.931 40.5775 109.528 40.0621 110.255 39.6872C111.004 39.2889 111.789 38.9609 112.609 38.7031C113.429 38.422 114.202 38.1642 114.929 37.93C115.655 37.6722 116.253 37.3793 116.721 37.0513C117.19 36.7233 117.424 36.2899 117.424 35.751V33.1854C117.424 32.4356 117.307 31.8264 117.073 31.3578C116.862 30.8658 116.534 30.5027 116.089 30.2684C115.667 30.0106 115.128 29.8818 114.472 29.8818C113.98 29.8818 113.464 29.9521 112.926 30.0926C112.387 30.2332 111.941 30.5027 111.59 30.901C112.199 31.065 112.668 31.3696 112.996 31.8147C113.347 32.2599 113.523 32.7988 113.523 33.4314C113.523 34.1577 113.277 34.7318 112.785 35.1535C112.316 35.5518 111.719 35.751 110.993 35.751C110.219 35.751 109.634 35.505 109.235 35.0129C108.837 34.5209 108.638 33.9469 108.638 33.2908C108.638 32.6348 108.802 32.0959 109.13 31.6742C109.458 31.229 109.915 30.8307 110.501 30.4792C111.086 30.0809 111.836 29.7646 112.75 29.5303C113.664 29.296 114.659 29.1789 115.737 29.1789C116.768 29.1789 117.682 29.296 118.478 29.5303C119.275 29.7412 119.955 30.1278 120.517 30.6901C121.079 31.229 121.442 31.8967 121.606 32.6934C121.77 33.49 121.852 34.4623 121.852 35.6104V45.2401C121.852 45.8258 121.923 46.2476 122.063 46.5053C122.204 46.7396 122.426 46.8568 122.731 46.8568C122.965 46.8568 123.188 46.7982 123.399 46.681C123.61 46.5639 123.844 46.3999 124.102 46.189L124.488 46.7865C123.973 47.1848 123.434 47.5011 122.872 47.7354C122.309 47.9697 121.63 48.0868 120.833 48.0868C120.013 48.0868 119.357 47.9697 118.865 47.7354C118.396 47.5011 118.045 47.1614 117.811 46.7162C117.6 46.271 117.483 45.7438 117.459 45.1347C116.897 46.0719 116.206 46.7982 115.386 47.3136C114.566 47.8291 113.582 48.0868 112.433 48.0868ZM114.542 46.1187C115.105 46.1187 115.62 45.9664 116.089 45.6618C116.581 45.3572 117.026 44.9004 117.424 44.2912V37.1919C117.19 37.5434 116.85 37.8597 116.405 38.1408C115.983 38.422 115.526 38.7031 115.034 38.9843C114.542 39.2655 114.074 39.5935 113.628 39.9684C113.207 40.3198 112.844 40.765 112.539 41.3039C112.258 41.8193 112.117 42.4871 112.117 43.3071C112.117 44.2209 112.34 44.9238 112.785 45.4158C113.23 45.8844 113.816 46.1187 114.542 46.1187ZM132.106 20.3223V44.5723C132.106 45.5564 132.281 46.2242 132.633 46.5756C133.008 46.9271 133.629 47.1028 134.495 47.1028V47.8408C134.074 47.8174 133.429 47.794 132.562 47.7705C131.719 47.7237 130.852 47.7002 129.962 47.7002C129.095 47.7002 128.204 47.7237 127.291 47.7705C126.4 47.794 125.733 47.8174 125.287 47.8408V47.1028C126.154 47.1028 126.764 46.9271 127.115 46.5756C127.49 46.2242 127.677 45.5564 127.677 44.5723V24.5397C127.677 23.4854 127.513 22.7122 127.185 22.2202C126.857 21.7047 126.225 21.447 125.287 21.447V20.7089C126.037 20.7792 126.764 20.8144 127.466 20.8144C128.357 20.8144 129.189 20.7792 129.962 20.7089C130.735 20.6152 131.45 20.4864 132.106 20.3223ZM144.651 29.1789C146.713 29.1789 148.33 29.7998 149.501 31.0415C150.673 32.2833 151.258 34.2632 151.258 36.981H139.415L139.379 36.3133H147.182C147.229 35.1652 147.158 34.1109 146.971 33.1502C146.783 32.1662 146.479 31.3813 146.057 30.7955C145.659 30.2098 145.132 29.9169 144.476 29.9169C143.585 29.9169 142.812 30.4441 142.156 31.4984C141.5 32.5293 141.09 34.228 140.926 36.5944L141.066 36.8053C141.02 37.1099 140.984 37.4379 140.961 37.7894C140.961 38.1408 140.961 38.4923 140.961 38.8437C140.961 40.4604 141.195 41.7959 141.664 42.8502C142.133 43.9046 142.742 44.6778 143.491 45.1698C144.241 45.6618 145.014 45.9078 145.811 45.9078C146.35 45.9078 146.901 45.8258 147.463 45.6618C148.025 45.4978 148.576 45.1932 149.115 44.7481C149.654 44.3029 150.146 43.6703 150.591 42.8502L151.258 43.1314C151.001 43.9514 150.567 44.7715 149.958 45.5915C149.372 46.3882 148.611 47.0442 147.674 47.5597C146.736 48.0751 145.635 48.3328 144.37 48.3328C142.777 48.3328 141.371 47.9814 140.153 47.2785C138.934 46.5756 137.985 45.533 137.306 44.1506C136.626 42.7448 136.287 41.0344 136.287 39.0194C136.287 36.8873 136.638 35.0949 137.341 33.6423C138.067 32.1896 139.063 31.0884 140.328 30.3386C141.594 29.5655 143.035 29.1789 144.651 29.1789ZM160.251 29.1789C161.236 29.1789 162.079 29.3194 162.782 29.6006C163.485 29.8818 164 30.1278 164.328 30.3386C165.125 30.9244 165.605 30.5495 165.769 29.214H166.542C166.496 29.8935 166.46 30.7018 166.437 31.639C166.414 32.5528 166.402 33.7828 166.402 35.3292H165.629C165.511 34.4623 165.289 33.6188 164.961 32.7988C164.633 31.9787 164.153 31.2993 163.52 30.7604C162.887 30.1981 162.056 29.9169 161.025 29.9169C160.298 29.9169 159.689 30.1278 159.197 30.5495C158.729 30.9713 158.494 31.5687 158.494 32.3419C158.494 33.0448 158.705 33.6657 159.127 34.2046C159.549 34.72 160.087 35.2121 160.743 35.6807C161.423 36.1258 162.126 36.6179 162.852 37.1568C163.696 37.7191 164.445 38.2931 165.101 38.8789C165.757 39.4412 166.285 40.0738 166.683 40.7767C167.081 41.4562 167.28 42.2645 167.28 43.2017C167.28 44.2795 166.976 45.205 166.367 45.9781C165.781 46.7279 164.996 47.3136 164.012 47.7354C163.051 48.1337 161.985 48.3328 160.814 48.3328C160.181 48.3328 159.607 48.2743 159.092 48.1571C158.576 48.04 158.119 47.8877 157.721 47.7002C157.416 47.5362 157.135 47.3839 156.878 47.2434C156.643 47.1028 156.397 46.9856 156.14 46.8919C155.905 46.7748 155.694 46.8216 155.507 47.0325C155.343 47.2434 155.214 47.5948 155.12 48.0868H154.347C154.394 47.3371 154.429 46.4233 154.453 45.3455C154.476 44.2678 154.488 42.8385 154.488 41.0578H155.261C155.425 42.3465 155.671 43.4828 155.999 44.4669C156.35 45.4275 156.854 46.189 157.51 46.7513C158.166 47.2902 159.01 47.5597 160.041 47.5597C160.486 47.5597 160.907 47.4659 161.306 47.2785C161.728 47.0911 162.067 46.7982 162.325 46.3999C162.606 46.0016 162.747 45.4627 162.747 44.7832C162.747 43.7523 162.395 42.8971 161.692 42.2176C160.99 41.5382 160.111 40.8118 159.057 40.0386C158.26 39.4529 157.51 38.8789 156.807 38.3165C156.128 37.7542 155.565 37.1216 155.12 36.4187C154.699 35.7158 154.488 34.8841 154.488 33.9234C154.488 32.8691 154.757 32.0022 155.296 31.3227C155.835 30.6198 156.538 30.0926 157.405 29.7412C158.295 29.3663 159.244 29.1789 160.251 29.1789ZM178.317 22.5365C179.629 22.5365 180.637 22.6771 181.34 22.9582C182.042 23.2394 182.652 23.544 183.167 23.872C183.448 24.036 183.671 24.1649 183.835 24.2586C184.022 24.3289 184.198 24.364 184.362 24.364C184.596 24.364 184.76 24.2351 184.854 23.9774C184.971 23.7197 185.065 23.3331 185.135 22.8176H185.944C185.92 23.2628 185.885 23.7783 185.838 24.364C185.815 24.9498 185.791 25.7347 185.768 26.7187C185.768 27.6793 185.768 28.9563 185.768 30.5495H184.959C184.889 29.3546 184.62 28.2065 184.151 27.1053C183.706 26.0041 183.062 25.1021 182.218 24.3992C181.398 23.6728 180.344 23.3097 179.055 23.3097C177.907 23.3097 176.946 23.6494 176.173 24.3289C175.423 25.0083 175.049 25.9221 175.049 27.0702C175.049 28.0542 175.295 28.886 175.787 29.5655C176.279 30.2215 176.97 30.8658 177.86 31.4984C178.774 32.1076 179.852 32.8105 181.093 33.6071C182.242 34.3569 183.272 35.1066 184.186 35.8564C185.1 36.5827 185.815 37.3911 186.33 38.2814C186.869 39.1717 187.138 40.2612 187.138 41.5499C187.138 43.0728 186.764 44.338 186.014 45.3455C185.264 46.353 184.257 47.1028 182.991 47.5948C181.726 48.0868 180.344 48.3328 178.844 48.3328C177.462 48.3328 176.361 48.1923 175.541 47.9111C174.744 47.63 174.053 47.3371 173.467 47.0325C172.952 46.7045 172.553 46.5405 172.272 46.5405C172.038 46.5405 171.862 46.6693 171.745 46.9271C171.651 47.1848 171.569 47.5714 171.499 48.0868H170.691C170.737 47.5479 170.761 46.9153 170.761 46.189C170.784 45.4627 170.796 44.5255 170.796 43.3774C170.819 42.2059 170.831 40.7298 170.831 38.9492H171.64C171.733 40.4487 171.991 41.8545 172.413 43.1665C172.858 44.4552 173.526 45.4978 174.416 46.2944C175.33 47.0911 176.536 47.4894 178.036 47.4894C178.856 47.4894 179.594 47.3488 180.25 47.0676C180.929 46.763 181.468 46.3062 181.867 45.697C182.265 45.0644 182.464 44.2678 182.464 43.3071C182.464 42.3465 182.242 41.503 181.796 40.7767C181.351 40.0504 180.73 39.3709 179.934 38.7383C179.137 38.1057 178.2 37.4614 177.122 36.8053C176.021 36.1024 174.99 35.3878 174.029 34.6615C173.069 33.9351 172.296 33.1151 171.71 32.2013C171.147 31.2641 170.866 30.1395 170.866 28.8274C170.866 27.3748 171.218 26.1915 171.921 25.2778C172.624 24.3406 173.537 23.6494 174.662 23.2042C175.81 22.7591 177.028 22.5365 178.317 22.5365ZM196.253 23.9071V29.706H200.751V30.4089H196.253V44.3966C196.253 45.2401 196.405 45.8376 196.71 46.189C197.014 46.5405 197.448 46.7162 198.01 46.7162C198.549 46.7162 199.041 46.517 199.486 46.1187C199.931 45.697 200.33 45.0058 200.681 44.0452L201.314 44.3263C200.962 45.4744 200.412 46.435 199.662 47.2082C198.935 47.958 197.905 48.3328 196.569 48.3328C195.772 48.3328 195.093 48.2274 194.531 48.0165C193.992 47.8291 193.523 47.5479 193.125 47.1731C192.609 46.6342 192.258 45.9899 192.071 45.2401C191.907 44.4903 191.825 43.4946 191.825 42.2528V30.4089H188.732V29.706H191.825V24.8209C192.668 24.7975 193.453 24.7155 194.179 24.5749C194.906 24.4343 195.597 24.2117 196.253 23.9071ZM213.634 29.1789C214.36 29.1789 214.958 29.3312 215.427 29.6357C215.919 29.9403 216.282 30.3269 216.516 30.7955C216.75 31.2641 216.867 31.7562 216.867 32.2716C216.867 33.0448 216.633 33.6891 216.165 34.2046C215.719 34.72 215.122 34.9778 214.372 34.9778C213.669 34.9778 213.095 34.7903 212.65 34.4155C212.205 34.0406 211.982 33.5251 211.982 32.8691C211.982 32.2833 212.123 31.7913 212.404 31.393C212.709 30.9947 213.048 30.6784 213.423 30.4441C213.166 30.3035 212.873 30.2566 212.545 30.3035C211.982 30.3504 211.467 30.5495 210.998 30.901C210.53 31.2524 210.131 31.6859 209.803 32.2013C209.475 32.7168 209.218 33.2674 209.03 33.8531C208.866 34.4389 208.784 35.0012 208.784 35.5401V44.2209C208.784 45.369 209.077 46.1421 209.663 46.5405C210.249 46.9153 211.104 47.1028 212.228 47.1028V47.8408C211.689 47.8174 210.905 47.794 209.874 47.7705C208.866 47.7237 207.812 47.7002 206.711 47.7002C205.797 47.7002 204.883 47.7237 203.969 47.7705C203.079 47.794 202.411 47.8174 201.966 47.8408V47.1028C202.833 47.1028 203.442 46.9271 203.794 46.5756C204.168 46.2242 204.356 45.5564 204.356 44.5723V33.5017C204.356 32.4473 204.18 31.6742 203.829 31.1821C203.501 30.6667 202.88 30.4089 201.966 30.4089V29.6709C202.716 29.7412 203.442 29.7763 204.145 29.7763C205.012 29.7763 205.832 29.7412 206.605 29.6709C207.402 29.5772 208.128 29.4483 208.784 29.2843V32.9394C209.065 32.2833 209.428 31.6742 209.874 31.1118C210.342 30.5495 210.893 30.0926 211.525 29.7412C212.181 29.3663 212.884 29.1789 213.634 29.1789ZM222.455 20.7089C223.298 20.7089 223.99 20.9432 224.529 21.4118C225.067 21.8804 225.337 22.5013 225.337 23.2745C225.337 24.0477 225.067 24.6686 224.529 25.1372C223.99 25.6058 223.298 25.8401 222.455 25.8401C221.611 25.8401 220.92 25.6058 220.381 25.1372C219.843 24.6686 219.573 24.0477 219.573 23.2745C219.573 22.5013 219.843 21.8804 220.381 21.4118C220.92 20.9432 221.611 20.7089 222.455 20.7089ZM224.915 29.2843V44.5723C224.915 45.5564 225.091 46.2242 225.442 46.5756C225.817 46.9271 226.438 47.1028 227.305 47.1028V47.8408C226.883 47.8174 226.239 47.794 225.372 47.7705C224.505 47.7237 223.626 47.7002 222.736 47.7002C221.869 47.7002 220.991 47.7237 220.1 47.7705C219.21 47.794 218.542 47.8174 218.097 47.8408V47.1028C218.964 47.1028 219.573 46.9271 219.925 46.5756C220.299 46.2242 220.487 45.5564 220.487 44.5723V33.5368C220.487 32.4591 220.311 31.6742 219.96 31.1821C219.632 30.6667 219.011 30.4089 218.097 30.4089V29.6709C218.847 29.7412 219.573 29.7763 220.276 29.7763C221.143 29.7763 221.963 29.7412 222.736 29.6709C223.533 29.5772 224.259 29.4483 224.915 29.2843ZM235.48 20.3223V44.5723C235.48 45.5564 235.644 46.2242 235.972 46.5756C236.3 46.9271 236.863 47.1028 237.659 47.1028V47.8408C237.261 47.8174 236.652 47.794 235.832 47.7705C235.012 47.7237 234.18 47.7002 233.336 47.7002C232.47 47.7002 231.579 47.7237 230.665 47.7705C229.775 47.794 229.107 47.8174 228.662 47.8408V47.1028C229.529 47.1028 230.138 46.9271 230.49 46.5756C230.865 46.2242 231.052 45.5564 231.052 44.5723V24.5397C231.052 23.4854 230.876 22.7122 230.525 22.2202C230.197 21.7047 229.576 21.447 228.662 21.447V20.7089C229.412 20.7792 230.138 20.8144 230.841 20.8144C231.731 20.8144 232.563 20.7792 233.336 20.7089C234.11 20.6152 234.824 20.4864 235.48 20.3223ZM246.867 29.6709V30.3738C246.164 30.5144 245.485 30.7838 244.829 31.1821C244.173 31.557 243.528 32.0842 242.896 32.7636L239.417 36.3836L239.803 35.6104L245.989 45.2752C246.317 45.7438 246.621 46.1421 246.902 46.4702C247.207 46.7748 247.582 46.9856 248.027 47.1028V47.8408C247.722 47.8174 247.242 47.794 246.586 47.7705C245.93 47.7237 245.274 47.7002 244.618 47.7002C243.821 47.7002 243.001 47.7237 242.158 47.7705C241.338 47.794 240.717 47.8174 240.295 47.8408V47.1028C240.764 47.1028 241.08 46.9973 241.244 46.7865C241.431 46.5522 241.408 46.2593 241.174 45.9078L237.519 39.7575C237.191 39.242 236.874 38.914 236.57 38.7734C236.265 38.6094 235.855 38.5274 235.34 38.5274V37.8245C235.925 37.7777 236.406 37.6722 236.781 37.5082C237.179 37.3442 237.554 37.0865 237.905 36.735L240.541 34.0992C241.314 33.326 241.701 32.6699 241.701 32.131C241.724 31.5921 241.478 31.1821 240.963 30.901C240.471 30.5964 239.827 30.4207 239.03 30.3738V29.6709C239.663 29.6943 240.365 29.7295 241.139 29.7763C241.912 29.7998 242.568 29.8115 243.107 29.8115C243.528 29.8115 243.974 29.8115 244.442 29.8115C244.934 29.788 245.391 29.7646 245.813 29.7412C246.258 29.7178 246.609 29.6943 246.867 29.6709ZM257.053 29.1789C259.115 29.1789 260.732 29.7998 261.903 31.0415C263.075 32.2833 263.66 34.2632 263.66 36.981H251.817L251.781 36.3133H259.584C259.631 35.1652 259.56 34.1109 259.373 33.1502C259.185 32.1662 258.881 31.3813 258.459 30.7955C258.061 30.2098 257.534 29.9169 256.877 29.9169C255.987 29.9169 255.214 30.4441 254.558 31.4984C253.902 32.5293 253.492 34.228 253.328 36.5944L253.468 36.8053C253.422 37.1099 253.386 37.4379 253.363 37.7894C253.363 38.1408 253.363 38.4923 253.363 38.8437C253.363 40.4604 253.597 41.7959 254.066 42.8502C254.534 43.9046 255.144 44.6778 255.893 45.1698C256.643 45.6618 257.416 45.9078 258.213 45.9078C258.752 45.9078 259.302 45.8258 259.865 45.6618C260.427 45.4978 260.978 45.1932 261.517 44.7481C262.056 44.3029 262.548 43.6703 262.993 42.8502L263.66 43.1314C263.403 43.9514 262.969 44.7715 262.36 45.5915C261.774 46.3882 261.013 47.0442 260.076 47.5597C259.138 48.0751 258.037 48.3328 256.772 48.3328C255.179 48.3328 253.773 47.9814 252.555 47.2785C251.336 46.5756 250.387 45.533 249.708 44.1506C249.028 42.7448 248.689 41.0344 248.689 39.0194C248.689 36.8873 249.04 35.0949 249.743 33.6423C250.469 32.1896 251.465 31.0884 252.73 30.3386C253.996 29.5655 255.437 29.1789 257.053 29.1789Z" fill="white"/>
<mask id="path-2-inside-1_945_745" fill="white">
<path d="M69.3565 17.6876C68.7379 15.2036 67.2619 12.9181 65.0817 11.0683C62.9015 9.21853 60.0965 7.87188 56.9578 7.1681C53.8191 6.46431 50.461 6.42904 47.2321 7.06593C44.0032 7.70283 41.0211 8.98869 38.5952 10.7901C36.1693 12.5915 34.3881 14.8427 33.4363 17.3103C32.4846 19.7778 32.397 22.3717 33.1826 24.8228C33.9683 27.2739 35.5986 29.4928 37.9043 31.2494C40.2101 33.006 43.1072 34.2362 46.2952 34.8123L47.9755 30.0137C45.8869 29.6362 43.9889 28.8303 42.4783 27.6795C40.9677 26.5287 39.8996 25.0749 39.3849 23.4691C38.8702 21.8633 38.9276 20.1639 39.5511 18.5473C40.1746 16.9307 41.3416 15.4558 42.9309 14.2756C44.5202 13.0955 46.4739 12.253 48.5893 11.8358C50.7048 11.4185 52.9048 11.4416 54.9611 11.9027C57.0174 12.3638 58.8551 13.246 60.2834 14.4579C61.7118 15.6698 62.6788 17.1671 63.0841 18.7945L69.3565 17.6876Z"/>
</mask>
<path d="M69.3565 17.6876C68.7379 15.2036 67.2619 12.9181 65.0817 11.0683C62.9015 9.21853 60.0965 7.87188 56.9578 7.1681C53.8191 6.46431 50.461 6.42904 47.2321 7.06593C44.0032 7.70283 41.0211 8.98869 38.5952 10.7901C36.1693 12.5915 34.3881 14.8427 33.4363 17.3103C32.4846 19.7778 32.397 22.3717 33.1826 24.8228C33.9683 27.2739 35.5986 29.4928 37.9043 31.2494C40.2101 33.006 43.1072 34.2362 46.2952 34.8123L47.9755 30.0137C45.8869 29.6362 43.9889 28.8303 42.4783 27.6795C40.9677 26.5287 39.8996 25.0749 39.3849 23.4691C38.8702 21.8633 38.9276 20.1639 39.5511 18.5473C40.1746 16.9307 41.3416 15.4558 42.9309 14.2756C44.5202 13.0955 46.4739 12.253 48.5893 11.8358C50.7048 11.4185 52.9048 11.4416 54.9611 11.9027C57.0174 12.3638 58.8551 13.246 60.2834 14.4579C61.7118 15.6698 62.6788 17.1671 63.0841 18.7945L69.3565 17.6876Z" stroke="white" stroke-width="1.4058" mask="url(#path-2-inside-1_945_745)"/>
<mask id="path-3-inside-2_945_745" fill="white">
<path d="M67.0484 17.4112C66.4298 14.9272 64.9538 12.6417 62.7736 10.7919C60.5934 8.94216 57.7884 7.59551 54.6497 6.89173C51.511 6.18795 48.1529 6.15267 44.924 6.78957C41.6951 7.42646 38.713 8.71232 36.2871 10.5137C33.8612 12.3151 32.08 14.5664 31.1282 17.0339C30.1765 19.5014 30.0889 22.0954 30.8745 24.5464C31.6602 26.9975 33.2905 29.2165 35.5962 30.9731C37.902 32.7296 40.7991 33.9598 43.9871 34.5359L45.6674 29.7373C43.5788 29.3599 41.6808 28.5539 40.1702 27.4031C38.6596 26.2523 37.5915 24.7986 37.0768 23.1927C36.5621 21.5869 36.6195 19.8875 37.243 18.2709C37.8665 16.6543 39.0335 15.1794 40.6228 13.9993C42.2121 12.8191 44.1658 11.9767 46.2812 11.5594C48.3966 11.1421 50.5967 11.1653 52.653 11.6263C54.7093 12.0874 56.547 12.9697 57.9753 14.1815C59.4037 15.3934 60.3707 16.8907 60.776 18.5181L67.0484 17.4112Z"/>
</mask>
<path d="M67.0484 17.4112C66.4298 14.9272 64.9538 12.6417 62.7736 10.7919C60.5934 8.94216 57.7884 7.59551 54.6497 6.89173C51.511 6.18795 48.1529 6.15267 44.924 6.78957C41.6951 7.42646 38.713 8.71232 36.2871 10.5137C33.8612 12.3151 32.08 14.5664 31.1282 17.0339C30.1765 19.5014 30.0889 22.0954 30.8745 24.5464C31.6602 26.9975 33.2905 29.2165 35.5962 30.9731C37.902 32.7296 40.7991 33.9598 43.9871 34.5359L45.6674 29.7373C43.5788 29.3599 41.6808 28.5539 40.1702 27.4031C38.6596 26.2523 37.5915 24.7986 37.0768 23.1927C36.5621 21.5869 36.6195 19.8875 37.243 18.2709C37.8665 16.6543 39.0335 15.1794 40.6228 13.9993C42.2121 12.8191 44.1658 11.9767 46.2812 11.5594C48.3966 11.1421 50.5967 11.1653 52.653 11.6263C54.7093 12.0874 56.547 12.9697 57.9753 14.1815C59.4037 15.3934 60.3707 16.8907 60.776 18.5181L67.0484 17.4112Z" stroke="white" stroke-width="1.4058" mask="url(#path-3-inside-2_945_745)"/>
<mask id="path-4-inside-3_945_745" fill="white">
<path d="M30.4057 49.2434C31.2751 51.6779 32.9787 53.8574 35.3398 55.5558C37.7009 57.2542 40.6335 58.4096 43.8332 58.9022C47.0329 59.3947 50.3831 59.2064 53.5363 58.3568C56.6894 57.5072 59.5305 56.0273 61.7648 54.0706C63.9991 52.1139 65.5451 49.7517 66.2425 47.2292C66.9399 44.7067 66.7631 42.1158 65.7306 39.7253C64.6982 37.3348 62.8475 35.2318 60.3708 33.6347C57.8941 32.0375 54.8816 31.0043 51.6458 30.6422L50.4596 35.5364C52.5795 35.7736 54.5532 36.4505 56.1758 37.4969C57.7984 38.5432 59.0108 39.921 59.6872 41.4871C60.3637 43.0532 60.4794 44.7507 60.0226 46.4033C59.5657 48.0559 58.5528 49.6034 57.089 50.8854C55.6252 52.1673 53.7639 53.1368 51.6981 53.6935C49.6324 54.2501 47.4375 54.3734 45.3412 54.0507C43.2449 53.7281 41.3237 52.9711 39.7768 51.8584C38.2299 50.7457 37.1138 49.3178 36.5443 47.7229L30.4057 49.2434Z"/>
</mask>
<path d="M30.4057 49.2434C31.2751 51.6779 32.9787 53.8574 35.3398 55.5558C37.7009 57.2542 40.6335 58.4096 43.8332 58.9022C47.0329 59.3947 50.3831 59.2064 53.5363 58.3568C56.6894 57.5072 59.5305 56.0273 61.7648 54.0706C63.9991 52.1139 65.5451 49.7517 66.2425 47.2292C66.9399 44.7067 66.7631 42.1158 65.7306 39.7253C64.6982 37.3348 62.8475 35.2318 60.3708 33.6347C57.8941 32.0375 54.8816 31.0043 51.6458 30.6422L50.4596 35.5364C52.5795 35.7736 54.5532 36.4505 56.1758 37.4969C57.7984 38.5432 59.0108 39.921 59.6872 41.4871C60.3637 43.0532 60.4794 44.7507 60.0226 46.4033C59.5657 48.0559 58.5528 49.6034 57.089 50.8854C55.6252 52.1673 53.7639 53.1368 51.6981 53.6935C49.6324 54.2501 47.4375 54.3734 45.3412 54.0507C43.2449 53.7281 41.3237 52.9711 39.7768 51.8584C38.2299 50.7457 37.1138 49.3178 36.5443 47.7229L30.4057 49.2434Z" stroke="white" stroke-width="1.4058" mask="url(#path-4-inside-3_945_745)"/>
<mask id="path-5-inside-4_945_745" fill="white">
<path d="M34.1904 50.0066C35.0598 52.441 36.7634 54.6206 39.1245 56.319C41.4856 58.0174 44.4182 59.1728 47.6179 59.6653C50.8176 60.1579 54.1678 59.9696 57.3209 59.12C60.4741 58.2704 63.3152 56.7905 65.5495 54.8338C67.7838 52.8771 69.3298 50.5149 70.0272 47.9924C70.7245 45.4699 70.5478 42.8789 69.5153 40.4885C68.4828 38.098 66.6322 35.995 64.1555 34.3978C61.6788 32.8007 58.6662 31.7675 55.4305 31.4054L54.2443 36.2996C56.3642 36.5368 58.3378 37.2137 59.9604 38.26C61.583 39.3064 62.7955 40.6842 63.4719 42.2503C64.1483 43.8164 64.2641 45.5138 63.8072 47.1664C63.3504 48.8191 62.3375 50.3666 60.8737 51.6485C59.4099 52.9305 57.5486 53.9 55.4828 54.4566C53.417 55.0133 51.2221 55.1366 49.1259 54.8139C47.0296 54.4913 45.1084 53.7343 43.5615 52.6216C42.0146 51.5089 40.8985 50.081 40.3289 48.486L34.1904 50.0066Z"/>
</mask>
<path d="M34.1904 50.0066C35.0598 52.441 36.7634 54.6206 39.1245 56.319C41.4856 58.0174 44.4182 59.1728 47.6179 59.6653C50.8176 60.1579 54.1678 59.9696 57.3209 59.12C60.4741 58.2704 63.3152 56.7905 65.5495 54.8338C67.7838 52.8771 69.3298 50.5149 70.0272 47.9924C70.7245 45.4699 70.5478 42.8789 69.5153 40.4885C68.4828 38.098 66.6322 35.995 64.1555 34.3978C61.6788 32.8007 58.6662 31.7675 55.4305 31.4054L54.2443 36.2996C56.3642 36.5368 58.3378 37.2137 59.9604 38.26C61.583 39.3064 62.7955 40.6842 63.4719 42.2503C64.1483 43.8164 64.2641 45.5138 63.8072 47.1664C63.3504 48.8191 62.3375 50.3666 60.8737 51.6485C59.4099 52.9305 57.5486 53.9 55.4828 54.4566C53.417 55.0133 51.2221 55.1366 49.1259 54.8139C47.0296 54.4913 45.1084 53.7343 43.5615 52.6216C42.0146 51.5089 40.8985 50.081 40.3289 48.486L34.1904 50.0066Z" stroke="white" stroke-width="1.4058" mask="url(#path-5-inside-4_945_745)"/>
<line y1="-1.05435" x2="70.0663" y2="-1.05435" transform="matrix(0.439603 -0.898192 0.952434 0.304746 32.5137 63.8154)" stroke="white" stroke-width="2.1087"/>
<line y1="-1.05435" x2="70.0663" y2="-1.05435" transform="matrix(0.439603 -0.898192 0.952434 0.304746 37.2432 63.8154)" stroke="white" stroke-width="2.1087"/>
</svg>
