<svg width="36" height="45" viewBox="0 0 36 45" fill="none" xmlns="http://www.w3.org/2000/svg">
<mask id="path-1-inside-1_1346_15006" fill="white">
<path d="M32.1691 12.7434C31.7426 11.0306 30.7249 9.45476 29.2216 8.17931C27.7183 6.90387 25.7842 5.97533 23.62 5.49006C21.4558 5.00478 19.1403 4.98046 16.9139 5.41961C14.6875 5.85876 12.6313 6.74539 10.9586 7.98747C9.28594 9.22956 8.05775 10.7819 7.40149 12.4833C6.74524 14.1847 6.68485 15.9732 7.22658 17.6633C7.76831 19.3534 8.89242 20.8834 10.4823 22.0946C12.0721 23.3057 14.0698 24.154 16.2679 24.5512L17.4265 21.2425C15.9864 20.9822 14.6777 20.4265 13.6361 19.633C12.5945 18.8395 11.8581 17.8371 11.5031 16.7299C11.1482 15.6227 11.1878 14.4509 11.6177 13.3362C12.0477 12.2216 12.8523 11.2046 13.9482 10.3908C15.044 9.57708 16.3912 8.99621 17.8498 8.7085C19.3084 8.4208 20.8253 8.43673 22.2432 8.75465C23.6611 9.07258 24.9282 9.6809 25.9131 10.5165C26.8979 11.3521 27.5647 12.3845 27.8441 13.5067L32.1691 12.7434Z"/>
</mask>
<path d="M32.1691 12.7434C31.7426 11.0306 30.7249 9.45476 29.2216 8.17931C27.7183 6.90387 25.7842 5.97533 23.62 5.49006C21.4558 5.00478 19.1403 4.98046 16.9139 5.41961C14.6875 5.85876 12.6313 6.74539 10.9586 7.98747C9.28594 9.22956 8.05775 10.7819 7.40149 12.4833C6.74524 14.1847 6.68485 15.9732 7.22658 17.6633C7.76831 19.3534 8.89242 20.8834 10.4823 22.0946C12.0721 23.3057 14.0698 24.154 16.2679 24.5512L17.4265 21.2425C15.9864 20.9822 14.6777 20.4265 13.6361 19.633C12.5945 18.8395 11.8581 17.8371 11.5031 16.7299C11.1482 15.6227 11.1878 14.4509 11.6177 13.3362C12.0477 12.2216 12.8523 11.2046 13.9482 10.3908C15.044 9.57708 16.3912 8.99621 17.8498 8.7085C19.3084 8.4208 20.8253 8.43673 22.2432 8.75465C23.6611 9.07258 24.9282 9.6809 25.9131 10.5165C26.8979 11.3521 27.5647 12.3845 27.8441 13.5067L32.1691 12.7434Z" stroke="white" stroke-width="0.969323" mask="url(#path-1-inside-1_1346_15006)"/>
<mask id="path-2-inside-2_1346_15006" fill="white">
<path d="M30.5778 12.553C30.1513 10.8402 29.1336 9.26433 27.6303 7.98888C26.127 6.71344 24.1929 5.7849 22.0287 5.29963C19.8645 4.81435 17.549 4.79003 15.3226 5.22918C13.0962 5.66833 11.04 6.55496 9.36732 7.79704C7.69463 9.03913 6.46644 10.5914 5.81019 12.2928C5.15394 13.9943 5.09354 15.7828 5.63527 17.4729C6.177 19.1629 7.30111 20.6929 8.89095 21.9041C10.4808 23.1153 12.4784 23.9635 14.6766 24.3608L15.8352 21.0521C14.3951 20.7918 13.0864 20.2361 12.0448 19.4426C11.0032 18.6491 10.2667 17.6467 9.91183 16.5395C9.55692 15.4322 9.59649 14.2605 10.0264 13.1458C10.4564 12.0311 11.261 11.0141 12.3569 10.2004C13.4527 9.38665 14.7999 8.80578 16.2585 8.51807C17.7171 8.23037 19.234 8.2463 20.6519 8.56422C22.0697 8.88215 23.3369 9.49048 24.3217 10.3261C25.3066 11.1617 25.9734 12.1941 26.2528 13.3162L30.5778 12.553Z"/>
</mask>
<path d="M30.5778 12.553C30.1513 10.8402 29.1336 9.26433 27.6303 7.98888C26.127 6.71344 24.1929 5.7849 22.0287 5.29963C19.8645 4.81435 17.549 4.79003 15.3226 5.22918C13.0962 5.66833 11.04 6.55496 9.36732 7.79704C7.69463 9.03913 6.46644 10.5914 5.81019 12.2928C5.15394 13.9943 5.09354 15.7828 5.63527 17.4729C6.177 19.1629 7.30111 20.6929 8.89095 21.9041C10.4808 23.1153 12.4784 23.9635 14.6766 24.3608L15.8352 21.0521C14.3951 20.7918 13.0864 20.2361 12.0448 19.4426C11.0032 18.6491 10.2667 17.6467 9.91183 16.5395C9.55692 15.4322 9.59649 14.2605 10.0264 13.1458C10.4564 12.0311 11.261 11.0141 12.3569 10.2004C13.4527 9.38665 14.7999 8.80578 16.2585 8.51807C17.7171 8.23037 19.234 8.2463 20.6519 8.56422C22.0697 8.88215 23.3369 9.49048 24.3217 10.3261C25.3066 11.1617 25.9734 12.1941 26.2528 13.3162L30.5778 12.553Z" stroke="white" stroke-width="0.969323" mask="url(#path-2-inside-2_1346_15006)"/>
<mask id="path-3-inside-3_1346_15006" fill="white">
<path d="M5.31188 34.5028C5.91131 36.1814 7.08599 37.6842 8.71402 38.8553C10.342 40.0264 12.3641 40.823 14.5703 41.1627C16.7766 41.5023 19.0866 41.3724 21.2608 40.7866C23.4349 40.2008 25.3939 39.1804 26.9345 37.8312C28.4751 36.482 29.5411 34.8533 30.022 33.1139C30.5028 31.3746 30.381 29.5881 29.669 27.9398C28.9571 26.2916 27.6811 24.8415 25.9734 23.7403C24.2656 22.639 22.1884 21.9266 19.9573 21.6769L19.1394 25.0515C20.6011 25.2151 21.962 25.6818 23.0808 26.4033C24.1996 27.1248 25.0356 28.0748 25.502 29.1547C25.9684 30.2345 26.0482 31.4049 25.7332 32.5444C25.4182 33.6839 24.7198 34.751 23.7105 35.6349C22.7012 36.5188 21.4177 37.1874 19.9934 37.5712C18.569 37.955 17.0556 38.04 15.6101 37.8175C14.1647 37.595 12.84 37.0731 11.7734 36.3058C10.7068 35.5386 9.93722 34.5541 9.54451 33.4543L5.31188 34.5028Z"/>
</mask>
<path d="M5.31188 34.5028C5.91131 36.1814 7.08599 37.6842 8.71402 38.8553C10.342 40.0264 12.3641 40.823 14.5703 41.1627C16.7766 41.5023 19.0866 41.3724 21.2608 40.7866C23.4349 40.2008 25.3939 39.1804 26.9345 37.8312C28.4751 36.482 29.5411 34.8533 30.022 33.1139C30.5028 31.3746 30.381 29.5881 29.669 27.9398C28.9571 26.2916 27.6811 24.8415 25.9734 23.7403C24.2656 22.639 22.1884 21.9266 19.9573 21.6769L19.1394 25.0515C20.6011 25.2151 21.962 25.6818 23.0808 26.4033C24.1996 27.1248 25.0356 28.0748 25.502 29.1547C25.9684 30.2345 26.0482 31.4049 25.7332 32.5444C25.4182 33.6839 24.7198 34.751 23.7105 35.6349C22.7012 36.5188 21.4177 37.1874 19.9934 37.5712C18.569 37.955 17.0556 38.04 15.6101 37.8175C14.1647 37.595 12.84 37.0731 11.7734 36.3058C10.7068 35.5386 9.93722 34.5541 9.54451 33.4543L5.31188 34.5028Z" stroke="white" stroke-width="0.969323" mask="url(#path-3-inside-3_1346_15006)"/>
<mask id="path-4-inside-4_1346_15006" fill="white">
<path d="M7.92126 35.0282C8.52069 36.7068 9.69537 38.2096 11.3234 39.3807C12.9514 40.5518 14.9735 41.3484 17.1797 41.6881C19.386 42.0277 21.696 41.8978 23.8702 41.312C26.0443 40.7262 28.0033 39.7058 29.5439 38.3566C31.0845 37.0074 32.1505 35.3786 32.6314 33.6393C33.1122 31.9 32.9903 30.1135 32.2784 28.4652C31.5665 26.817 30.2905 25.3669 28.5827 24.2656C26.875 23.1644 24.7978 22.452 22.5667 22.2023L21.7488 25.5769C23.2105 25.7405 24.5713 26.2072 25.6902 26.9287C26.809 27.6502 27.645 28.6002 28.1114 29.68C28.5778 30.7599 28.6576 31.9303 28.3426 33.0698C28.0276 34.2093 27.3292 35.2764 26.3199 36.1603C25.3106 37.0442 24.0271 37.7128 22.6027 38.0966C21.1784 38.4803 19.6649 38.5654 18.2195 38.3429C16.7741 38.1204 15.4494 37.5985 14.3828 36.8312C13.3162 36.064 12.5466 35.0794 12.1539 33.9797L7.92126 35.0282Z"/>
</mask>
<path d="M7.92126 35.0282C8.52069 36.7068 9.69537 38.2096 11.3234 39.3807C12.9514 40.5518 14.9735 41.3484 17.1797 41.6881C19.386 42.0277 21.696 41.8978 23.8702 41.312C26.0443 40.7262 28.0033 39.7058 29.5439 38.3566C31.0845 37.0074 32.1505 35.3786 32.6314 33.6393C33.1122 31.9 32.9903 30.1135 32.2784 28.4652C31.5665 26.817 30.2905 25.3669 28.5827 24.2656C26.875 23.1644 24.7978 22.452 22.5667 22.2023L21.7488 25.5769C23.2105 25.7405 24.5713 26.2072 25.6902 26.9287C26.809 27.6502 27.645 28.6002 28.1114 29.68C28.5778 30.7599 28.6576 31.9303 28.3426 33.0698C28.0276 34.2093 27.3292 35.2764 26.3199 36.1603C25.3106 37.0442 24.0271 37.7128 22.6027 38.0966C21.1784 38.4803 19.6649 38.5654 18.2195 38.3429C16.7741 38.1204 15.4494 37.5985 14.3828 36.8312C13.3162 36.064 12.5466 35.0794 12.1539 33.9797L7.92126 35.0282Z" stroke="white" stroke-width="0.969323" mask="url(#path-4-inside-4_1346_15006)"/>
<line y1="-0.726992" x2="48.312" y2="-0.726992" transform="matrix(0.439603 -0.898192 0.952434 0.304746 6.76562 44.5498)" stroke="white" stroke-width="1.45398"/>
<line y1="-0.726992" x2="48.312" y2="-0.726992" transform="matrix(0.439603 -0.898192 0.952434 0.304746 10.0264 44.5498)" stroke="white" stroke-width="1.45398"/>
</svg>
