<svg width="1920" height="1706" viewBox="0 0 1920 1706" fill="none" xmlns="http://www.w3.org/2000/svg">
<g opacity="0.7">
<path d="M1919.26 -1707L1919.26 1706L-0.738159 1706L-0.7382 -1707L1919.26 -1707Z" fill="white"/>
<g opacity="0.55">
<mask id="mask0_710_10921" style="mask-type:luminance" maskUnits="userSpaceOnUse" x="-1" y="-1707" width="1921" height="3413">
<path d="M1919.26 -1707L1919.26 1706L-0.738159 1706L-0.7382 -1707L1919.26 -1707Z" fill="white"/>
</mask>
<g mask="url(#mask0_710_10921)">
<path style="mix-blend-mode:multiply" d="M960.684 432.696L960.684 156.47L1200.33 18.3292L1439.97 156.47L1439.97 432.696L1200.33 570.809L960.684 432.696Z" fill="url(#paint0_linear_710_10921)"/>
<path style="mix-blend-mode:multiply" d="M1439.97 1261.37L1439.97 985.145L1679.62 847.032L1919.26 985.145L1919.26 1261.37L1679.62 1399.51L1439.97 1261.37Z" fill="url(#paint1_linear_710_10921)"/>
<path d="M1439.97 985.147L1439.97 708.922L1679.62 570.809L1919.26 708.922L1919.26 985.147L1679.62 1123.26L1439.97 985.147Z" fill="url(#paint2_linear_710_10921)"/>
<path style="mix-blend-mode:multiply" d="M1439.97 1813.85L1439.97 1537.62L1679.62 1399.51L1919.26 1537.62L1919.26 1813.85L1679.62 1951.96L1439.97 1813.85Z" fill="url(#paint3_linear_710_10921)"/>
<path d="M960.684 1537.62L960.684 1261.37L1200.33 1123.26L1439.97 1261.37L1439.97 1537.62L1200.33 1675.74L960.684 1537.62Z" fill="url(#paint4_linear_710_10921)"/>
<path d="M960.684 1261.37L960.684 985.145L1200.33 847.032L1439.97 985.145L1439.97 1261.37L1200.33 1399.51L960.684 1261.37Z" fill="url(#paint5_linear_710_10921)"/>
<path style="mix-blend-mode:multiply" d="M960.684 985.147L960.684 708.922L1200.33 570.809L1439.97 708.922L1439.97 985.147L1200.33 1123.26L960.684 985.147Z" fill="url(#paint6_linear_710_10921)"/>
<path d="M960.684 1813.85L960.684 1537.62L1200.33 1399.51L1439.97 1537.62L1439.97 1813.85L1200.33 1951.96L960.684 1813.85Z" fill="url(#paint7_linear_710_10921)"/>
<path d="M960.684 708.921L960.684 432.696L1200.33 294.583L1439.97 432.696L1439.97 708.921L1200.33 847.034L960.684 708.921Z" fill="url(#paint8_linear_710_10921)"/>
<path d="M1439.97 1537.62L1439.97 1261.37L1679.62 1123.26L1919.26 1261.37L1919.26 1537.62L1679.62 1675.74L1439.97 1537.62Z" fill="url(#paint9_linear_710_10921)"/>
<path style="mix-blend-mode:multiply" d="M1439.97 708.921L1439.97 432.696L1679.62 294.583L1919.26 432.696L1919.26 708.921L1679.62 847.034L1439.97 708.921Z" fill="url(#paint10_linear_710_10921)"/>
<path d="M1439.97 432.696L1439.97 156.47L1679.62 18.3292L1919.26 156.47L1919.26 432.696L1679.62 570.809L1439.97 432.696Z" fill="url(#paint11_linear_710_10921)"/>
<path style="mix-blend-mode:multiply" d="M960.684 156.469L960.684 -119.785L1200.33 -257.897L1439.97 -119.785L1439.97 156.469L1200.33 294.582L960.684 156.469Z" fill="url(#paint12_linear_710_10921)"/>
<path d="M1439.97 156.527L1439.97 -119.699L1679.62 -257.811L1919.26 -119.699L1919.26 156.527L1679.62 294.64L1439.97 156.527Z" fill="url(#paint13_linear_710_10921)"/>
<path d="M2.07837 1813.85L2.07836 1537.62L241.723 1399.51L481.367 1537.62L481.367 1813.85L241.723 1951.96L2.07837 1813.85Z" fill="url(#paint14_linear_710_10921)"/>
<path d="M481.366 1813.85L481.366 1537.62L721.011 1399.51L960.684 1537.62L960.684 1813.85L721.011 1951.96L481.366 1813.85Z" fill="url(#paint15_linear_710_10921)"/>
<path d="M481.366 1537.62L481.366 1261.37L721.011 1123.26L960.684 1261.37L960.684 1537.62L721.011 1675.74L481.366 1537.62Z" fill="url(#paint16_linear_710_10921)"/>
<path style="mix-blend-mode:multiply" d="M481.366 1261.37L481.366 985.145L721.011 847.032L960.684 985.145L960.684 1261.37L721.011 1399.51L481.366 1261.37Z" fill="url(#paint17_linear_710_10921)"/>
<path style="mix-blend-mode:multiply" d="M-477.211 1261.37L-477.211 985.145L-237.566 847.032L2.07812 985.145L2.07812 1261.37L-237.566 1399.51L-477.211 1261.37Z" fill="url(#paint18_linear_710_10921)"/>
<path d="M-477.211 985.147L-477.211 708.922L-237.566 570.809L2.07812 708.922L2.07812 985.147L-237.566 1123.26L-477.211 985.147Z" fill="url(#paint19_linear_710_10921)"/>
<path style="mix-blend-mode:multiply" d="M2.07837 1537.62L2.07836 1261.37L241.723 1123.26L481.367 1261.37L481.367 1537.62L241.723 1675.74L2.07837 1537.62Z" fill="url(#paint20_linear_710_10921)"/>
<path style="mix-blend-mode:multiply" d="M481.366 708.921L481.366 432.696L721.011 294.583L960.684 432.696L960.684 708.921L721.011 847.034L481.366 708.921Z" fill="url(#paint21_linear_710_10921)"/>
<path style="mix-blend-mode:multiply" d="M-477.211 1813.85L-477.211 1537.62L-237.566 1399.51L2.07812 1537.62L2.07812 1813.85L-237.566 1951.96L-477.211 1813.85Z" fill="url(#paint22_linear_710_10921)"/>
<path d="M481.366 985.147L481.366 708.922L721.011 570.809L960.684 708.922L960.684 985.147L721.011 1123.26L481.366 985.147Z" fill="url(#paint23_linear_710_10921)"/>
<path d="M2.07837 1261.37L2.07836 985.145L241.723 847.032L481.367 985.145L481.367 1261.37L241.723 1399.51L2.07837 1261.37Z" fill="url(#paint24_linear_710_10921)"/>
<path style="mix-blend-mode:multiply" d="M2.07837 985.147L2.07836 708.922L241.723 570.809L481.367 708.922L481.367 985.147L241.723 1123.26L2.07837 985.147Z" fill="url(#paint25_linear_710_10921)"/>
<path d="M2.07837 708.921L2.07836 432.696L241.723 294.583L481.367 432.696L481.367 708.921L241.723 847.034L2.07837 708.921Z" fill="url(#paint26_linear_710_10921)"/>
<path d="M-477.211 1537.62L-477.211 1261.37L-237.566 1123.26L2.07812 1261.37L2.07812 1537.62L-237.566 1675.74L-477.211 1537.62Z" fill="url(#paint27_linear_710_10921)"/>
<path style="mix-blend-mode:multiply" d="M-477.211 708.921L-477.211 432.696L-237.566 294.583L2.07812 432.696L2.07812 708.921L-237.566 847.034L-477.211 708.921Z" fill="url(#paint28_linear_710_10921)"/>
<path d="M-477.211 432.696L-477.211 156.47L-237.566 18.3292L2.07812 156.47L2.07812 432.696L-237.566 570.809L-477.211 432.696Z" fill="url(#paint29_linear_710_10921)"/>
<path d="M2.07837 432.696L2.07836 156.47L241.723 18.3292L481.367 156.47L481.367 432.696L241.723 570.809L2.07837 432.696Z" fill="url(#paint30_linear_710_10921)"/>
<path style="mix-blend-mode:multiply" d="M481.366 432.696L481.366 156.47L721.011 18.3292L960.684 156.47L960.684 432.696L721.011 570.809L481.366 432.696Z" fill="url(#paint31_linear_710_10921)"/>
<path style="mix-blend-mode:multiply" d="M2.07837 156.469L2.07836 -119.785L241.723 -257.897L481.367 -119.785L481.367 156.469L241.723 294.582L2.07837 156.469Z" fill="url(#paint32_linear_710_10921)"/>
<path d="M-477.211 156.469L-477.211 -119.785L-237.566 -257.897L2.07812 -119.785L2.07812 156.469L-237.566 294.582L-477.211 156.469Z" fill="url(#paint33_linear_710_10921)"/>
<path d="M481.366 156.469L481.366 -119.785L721.011 -257.897L960.684 -119.785L960.684 156.469L721.011 294.582L481.366 156.469Z" fill="url(#paint34_linear_710_10921)"/>
<path style="mix-blend-mode:multiply" d="M1439.97 -118.306L1439.97 -394.532L1679.62 -532.673L1919.26 -394.532L1919.26 -118.306L1679.62 19.8066L1439.97 -118.306Z" fill="url(#paint35_linear_710_10921)"/>
<path d="M960.684 -118.306L960.684 -394.532L1200.33 -532.673L1439.97 -394.532L1439.97 -118.306L1200.33 19.8066L960.684 -118.306Z" fill="url(#paint36_linear_710_10921)"/>
<path style="mix-blend-mode:multiply" d="M481.366 -118.306L481.366 -394.532L721.011 -532.673L960.684 -394.532L960.684 -118.306L721.011 19.8066L481.366 -118.306Z" fill="url(#paint37_linear_710_10921)"/>
<path style="mix-blend-mode:multiply" d="M-477.211 -118.306L-477.211 -394.532L-237.566 -532.673L2.07812 -394.532L2.07812 -118.306L-237.566 19.8066L-477.211 -118.306Z" fill="url(#paint38_linear_710_10921)"/>
<path d="M2.07837 -118.306L2.07836 -394.532L241.723 -532.673L481.367 -394.532L481.367 -118.306L241.723 19.8066L2.07837 -118.306Z" fill="url(#paint39_linear_710_10921)"/>
</g>
</g>
<mask id="mask1_710_10921" style="mask-type:luminance" maskUnits="userSpaceOnUse" x="-1" y="-1707" width="1921" height="3413">
<path d="M1919.26 -1707L1919.26 1706L-0.738159 1706L-0.7382 -1707L1919.26 -1707Z" fill="white"/>
</mask>
<g mask="url(#mask1_710_10921)">
<g opacity="0.8">
<path opacity="0.84" d="M2158.93 847.029L2158.93 847.085L1919.29 985.198L1679.64 847.086L1679.64 847.029L1919.29 708.916L2158.93 847.029Z" fill="#F08700" fill-opacity="0.3"/>
<path opacity="0.84" d="M241.805 294.659L241.805 294.716L2.16026 432.829L-237.513 294.716L-237.513 294.659L2.16026 156.547L241.805 294.659Z" fill="#F08700" fill-opacity="0.3"/>
<path opacity="0.84" d="M1439.97 1537.62L1200.33 1675.73L960.684 1537.62L1200.33 1399.5L1439.97 1537.62Z" fill="#F08700" fill-opacity="0.3"/>
<path opacity="0.84" d="M720.867 1675.76L481.223 1813.88L241.578 1675.76L481.223 1537.62L720.867 1675.76Z" fill="#F08700" fill-opacity="0.3"/>
<path opacity="0.84" d="M481.363 1261.36L241.719 1399.5L2.07446 1261.36L241.719 1123.25L481.363 1261.36Z" fill="#F08700" fill-opacity="0.3"/>
</g>
</g>
<path d="M1919.26 -1707L1919.26 1706L-0.738159 1706L-0.7382 -1707L1919.26 -1707Z" fill="url(#paint40_linear_710_10921)"/>
</g>
<defs>
<linearGradient id="paint0_linear_710_10921" x1="1183.29" y1="-78.2019" x2="1213.92" y2="591.685" gradientUnits="userSpaceOnUse">
<stop stop-color="#404040"/>
<stop offset="0.01" stop-color="#454545"/>
<stop offset="0.05" stop-color="#696969"/>
<stop offset="0.11" stop-color="#898989"/>
<stop offset="0.16" stop-color="#A5A5A5"/>
<stop offset="0.23" stop-color="#BBBBBB"/>
<stop offset="0.31" stop-color="#CCCCCC"/>
<stop offset="0.4" stop-color="#D7D7D7"/>
<stop offset="0.54" stop-color="#DEDEDE"/>
<stop offset="0.91" stop-color="#E0E0E0"/>
</linearGradient>
<linearGradient id="paint1_linear_710_10921" x1="1662.58" y1="750.473" x2="1693.21" y2="1420.36" gradientUnits="userSpaceOnUse">
<stop stop-color="#404040"/>
<stop offset="0.02" stop-color="#575757"/>
<stop offset="0.07" stop-color="#7B7B7B"/>
<stop offset="0.12" stop-color="#9B9B9B"/>
<stop offset="0.18" stop-color="#B7B7B7"/>
<stop offset="0.24" stop-color="#CDCDCD"/>
<stop offset="0.32" stop-color="#DEDEDE"/>
<stop offset="0.41" stop-color="#E9E9E9"/>
<stop offset="0.54" stop-color="#F0F0F0"/>
<stop offset="0.91" stop-color="#F2F2F2"/>
</linearGradient>
<linearGradient id="paint2_linear_710_10921" x1="1662.58" y1="474.249" x2="1693.21" y2="1144.14" gradientUnits="userSpaceOnUse">
<stop stop-color="#404040"/>
<stop offset="0.02" stop-color="#575757"/>
<stop offset="0.07" stop-color="#7B7B7B"/>
<stop offset="0.12" stop-color="#9B9B9B"/>
<stop offset="0.18" stop-color="#B7B7B7"/>
<stop offset="0.24" stop-color="#CDCDCD"/>
<stop offset="0.32" stop-color="#DEDEDE"/>
<stop offset="0.41" stop-color="#E9E9E9"/>
<stop offset="0.54" stop-color="#F0F0F0"/>
<stop offset="0.91" stop-color="#F2F2F2"/>
</linearGradient>
<linearGradient id="paint3_linear_710_10921" x1="1662.58" y1="1302.95" x2="1693.21" y2="1972.84" gradientUnits="userSpaceOnUse">
<stop stop-color="#404040"/>
<stop offset="0.02" stop-color="#575757"/>
<stop offset="0.07" stop-color="#7B7B7B"/>
<stop offset="0.12" stop-color="#9B9B9B"/>
<stop offset="0.18" stop-color="#B7B7B7"/>
<stop offset="0.24" stop-color="#CDCDCD"/>
<stop offset="0.32" stop-color="#DEDEDE"/>
<stop offset="0.41" stop-color="#E9E9E9"/>
<stop offset="0.54" stop-color="#F0F0F0"/>
<stop offset="0.91" stop-color="#F2F2F2"/>
</linearGradient>
<linearGradient id="paint4_linear_710_10921" x1="1183.29" y1="1026.73" x2="1213.92" y2="1696.61" gradientUnits="userSpaceOnUse">
<stop stop-color="#404040"/>
<stop offset="0.02" stop-color="#575757"/>
<stop offset="0.07" stop-color="#7B7B7B"/>
<stop offset="0.12" stop-color="#9B9B9B"/>
<stop offset="0.18" stop-color="#B7B7B7"/>
<stop offset="0.24" stop-color="#CDCDCD"/>
<stop offset="0.32" stop-color="#DEDEDE"/>
<stop offset="0.41" stop-color="#E9E9E9"/>
<stop offset="0.54" stop-color="#F0F0F0"/>
<stop offset="0.91" stop-color="#F2F2F2"/>
</linearGradient>
<linearGradient id="paint5_linear_710_10921" x1="1183.29" y1="750.473" x2="1213.92" y2="1420.36" gradientUnits="userSpaceOnUse">
<stop stop-color="#404040"/>
<stop offset="0.02" stop-color="#575757"/>
<stop offset="0.07" stop-color="#7B7B7B"/>
<stop offset="0.12" stop-color="#9B9B9B"/>
<stop offset="0.18" stop-color="#B7B7B7"/>
<stop offset="0.24" stop-color="#CDCDCD"/>
<stop offset="0.32" stop-color="#DEDEDE"/>
<stop offset="0.41" stop-color="#E9E9E9"/>
<stop offset="0.54" stop-color="#F0F0F0"/>
<stop offset="0.91" stop-color="#F2F2F2"/>
</linearGradient>
<linearGradient id="paint6_linear_710_10921" x1="1183.29" y1="474.249" x2="1213.92" y2="1144.14" gradientUnits="userSpaceOnUse">
<stop stop-color="#404040"/>
<stop offset="0.02" stop-color="#575757"/>
<stop offset="0.07" stop-color="#7B7B7B"/>
<stop offset="0.12" stop-color="#9B9B9B"/>
<stop offset="0.18" stop-color="#B7B7B7"/>
<stop offset="0.24" stop-color="#CDCDCD"/>
<stop offset="0.32" stop-color="#DEDEDE"/>
<stop offset="0.41" stop-color="#E9E9E9"/>
<stop offset="0.54" stop-color="#F0F0F0"/>
<stop offset="0.91" stop-color="#F2F2F2"/>
</linearGradient>
<linearGradient id="paint7_linear_710_10921" x1="1183.29" y1="1302.95" x2="1213.92" y2="1972.84" gradientUnits="userSpaceOnUse">
<stop stop-color="#404040"/>
<stop offset="0.02" stop-color="#575757"/>
<stop offset="0.07" stop-color="#7B7B7B"/>
<stop offset="0.12" stop-color="#9B9B9B"/>
<stop offset="0.18" stop-color="#B7B7B7"/>
<stop offset="0.24" stop-color="#CDCDCD"/>
<stop offset="0.32" stop-color="#DEDEDE"/>
<stop offset="0.41" stop-color="#E9E9E9"/>
<stop offset="0.54" stop-color="#F0F0F0"/>
<stop offset="0.91" stop-color="#F2F2F2"/>
</linearGradient>
<linearGradient id="paint8_linear_710_10921" x1="1183.29" y1="198.024" x2="1213.92" y2="867.911" gradientUnits="userSpaceOnUse">
<stop stop-color="#404040"/>
<stop offset="0.02" stop-color="#575757"/>
<stop offset="0.07" stop-color="#7B7B7B"/>
<stop offset="0.12" stop-color="#9B9B9B"/>
<stop offset="0.18" stop-color="#B7B7B7"/>
<stop offset="0.24" stop-color="#CDCDCD"/>
<stop offset="0.32" stop-color="#DEDEDE"/>
<stop offset="0.41" stop-color="#E9E9E9"/>
<stop offset="0.54" stop-color="#F0F0F0"/>
<stop offset="0.91" stop-color="#F2F2F2"/>
</linearGradient>
<linearGradient id="paint9_linear_710_10921" x1="1662.58" y1="1026.73" x2="1693.21" y2="1696.61" gradientUnits="userSpaceOnUse">
<stop stop-color="#404040"/>
<stop offset="0.01" stop-color="#454545"/>
<stop offset="0.05" stop-color="#696969"/>
<stop offset="0.11" stop-color="#898989"/>
<stop offset="0.16" stop-color="#A5A5A5"/>
<stop offset="0.23" stop-color="#BBBBBB"/>
<stop offset="0.31" stop-color="#CCCCCC"/>
<stop offset="0.4" stop-color="#D7D7D7"/>
<stop offset="0.54" stop-color="#DEDEDE"/>
<stop offset="0.91" stop-color="#E0E0E0"/>
</linearGradient>
<linearGradient id="paint10_linear_710_10921" x1="1369.43" y1="252.518" x2="1872.7" y2="769.011" gradientUnits="userSpaceOnUse">
<stop stop-color="#404040"/>
<stop offset="0.05" stop-color="#5E5E5E"/>
<stop offset="0.11" stop-color="#808080"/>
<stop offset="0.19" stop-color="#9D9D9D"/>
<stop offset="0.27" stop-color="#B5B5B5"/>
<stop offset="0.36" stop-color="#C8C8C8"/>
<stop offset="0.47" stop-color="#D4D4D4"/>
<stop offset="0.61" stop-color="#DCDCDC"/>
<stop offset="0.92" stop-color="#DEDEDE"/>
</linearGradient>
<linearGradient id="paint11_linear_710_10921" x1="1369.43" y1="-23.7076" x2="1872.7" y2="492.785" gradientUnits="userSpaceOnUse">
<stop stop-color="#404040"/>
<stop offset="0.05" stop-color="#5E5E5E"/>
<stop offset="0.11" stop-color="#808080"/>
<stop offset="0.19" stop-color="#9D9D9D"/>
<stop offset="0.27" stop-color="#B5B5B5"/>
<stop offset="0.36" stop-color="#C8C8C8"/>
<stop offset="0.47" stop-color="#D4D4D4"/>
<stop offset="0.61" stop-color="#DCDCDC"/>
<stop offset="0.92" stop-color="#DEDEDE"/>
</linearGradient>
<linearGradient id="paint12_linear_710_10921" x1="1428.11" y1="-271.265" x2="1197.88" y2="21.507" gradientUnits="userSpaceOnUse">
<stop stop-color="#404040"/>
<stop offset="0.01" stop-color="#444444"/>
<stop offset="0.06" stop-color="#6B6B6B"/>
<stop offset="0.12" stop-color="#8C8C8C"/>
<stop offset="0.19" stop-color="#A9A9A9"/>
<stop offset="0.26" stop-color="#C0C0C0"/>
<stop offset="0.35" stop-color="#D2D2D2"/>
<stop offset="0.45" stop-color="#DFDFDF"/>
<stop offset="0.59" stop-color="#E6E6E6"/>
<stop offset="0.9" stop-color="#E8E8E8"/>
</linearGradient>
<linearGradient id="paint13_linear_710_10921" x1="1662.58" y1="-354.371" x2="1693.21" y2="315.516" gradientUnits="userSpaceOnUse">
<stop stop-color="#404040"/>
<stop offset="0.02" stop-color="#575757"/>
<stop offset="0.07" stop-color="#7B7B7B"/>
<stop offset="0.12" stop-color="#9B9B9B"/>
<stop offset="0.18" stop-color="#B7B7B7"/>
<stop offset="0.24" stop-color="#CDCDCD"/>
<stop offset="0.32" stop-color="#DEDEDE"/>
<stop offset="0.41" stop-color="#E9E9E9"/>
<stop offset="0.54" stop-color="#F0F0F0"/>
<stop offset="0.91" stop-color="#F2F2F2"/>
</linearGradient>
<linearGradient id="paint14_linear_710_10921" x1="224.685" y1="1302.95" x2="255.313" y2="1972.84" gradientUnits="userSpaceOnUse">
<stop stop-color="#404040"/>
<stop offset="0.01" stop-color="#454545"/>
<stop offset="0.05" stop-color="#696969"/>
<stop offset="0.11" stop-color="#898989"/>
<stop offset="0.16" stop-color="#A5A5A5"/>
<stop offset="0.23" stop-color="#BBBBBB"/>
<stop offset="0.31" stop-color="#CCCCCC"/>
<stop offset="0.4" stop-color="#D7D7D7"/>
<stop offset="0.54" stop-color="#DEDEDE"/>
<stop offset="0.91" stop-color="#E0E0E0"/>
</linearGradient>
<linearGradient id="paint15_linear_710_10921" x1="703.972" y1="1302.95" x2="734.63" y2="1972.84" gradientUnits="userSpaceOnUse">
<stop stop-color="#404040"/>
<stop offset="0.02" stop-color="#575757"/>
<stop offset="0.07" stop-color="#7B7B7B"/>
<stop offset="0.12" stop-color="#9B9B9B"/>
<stop offset="0.18" stop-color="#B7B7B7"/>
<stop offset="0.24" stop-color="#CDCDCD"/>
<stop offset="0.32" stop-color="#DEDEDE"/>
<stop offset="0.41" stop-color="#E9E9E9"/>
<stop offset="0.54" stop-color="#F0F0F0"/>
<stop offset="0.91" stop-color="#F2F2F2"/>
</linearGradient>
<linearGradient id="paint16_linear_710_10921" x1="703.972" y1="1026.73" x2="734.63" y2="1696.61" gradientUnits="userSpaceOnUse">
<stop stop-color="#404040"/>
<stop offset="0.02" stop-color="#575757"/>
<stop offset="0.07" stop-color="#7B7B7B"/>
<stop offset="0.12" stop-color="#9B9B9B"/>
<stop offset="0.18" stop-color="#B7B7B7"/>
<stop offset="0.24" stop-color="#CDCDCD"/>
<stop offset="0.32" stop-color="#DEDEDE"/>
<stop offset="0.41" stop-color="#E9E9E9"/>
<stop offset="0.54" stop-color="#F0F0F0"/>
<stop offset="0.91" stop-color="#F2F2F2"/>
</linearGradient>
<linearGradient id="paint17_linear_710_10921" x1="703.972" y1="750.473" x2="734.63" y2="1420.36" gradientUnits="userSpaceOnUse">
<stop stop-color="#404040"/>
<stop offset="0.02" stop-color="#575757"/>
<stop offset="0.07" stop-color="#7B7B7B"/>
<stop offset="0.12" stop-color="#9B9B9B"/>
<stop offset="0.18" stop-color="#B7B7B7"/>
<stop offset="0.24" stop-color="#CDCDCD"/>
<stop offset="0.32" stop-color="#DEDEDE"/>
<stop offset="0.41" stop-color="#E9E9E9"/>
<stop offset="0.54" stop-color="#F0F0F0"/>
<stop offset="0.91" stop-color="#F2F2F2"/>
</linearGradient>
<linearGradient id="paint18_linear_710_10921" x1="-254.605" y1="750.473" x2="-223.976" y2="1420.36" gradientUnits="userSpaceOnUse">
<stop stop-color="#404040"/>
<stop offset="0.02" stop-color="#575757"/>
<stop offset="0.07" stop-color="#7B7B7B"/>
<stop offset="0.12" stop-color="#9B9B9B"/>
<stop offset="0.18" stop-color="#B7B7B7"/>
<stop offset="0.24" stop-color="#CDCDCD"/>
<stop offset="0.32" stop-color="#DEDEDE"/>
<stop offset="0.41" stop-color="#E9E9E9"/>
<stop offset="0.54" stop-color="#F0F0F0"/>
<stop offset="0.91" stop-color="#F2F2F2"/>
</linearGradient>
<linearGradient id="paint19_linear_710_10921" x1="-254.605" y1="474.249" x2="-223.976" y2="1144.14" gradientUnits="userSpaceOnUse">
<stop stop-color="#404040"/>
<stop offset="0.02" stop-color="#575757"/>
<stop offset="0.07" stop-color="#7B7B7B"/>
<stop offset="0.12" stop-color="#9B9B9B"/>
<stop offset="0.18" stop-color="#B7B7B7"/>
<stop offset="0.24" stop-color="#CDCDCD"/>
<stop offset="0.32" stop-color="#DEDEDE"/>
<stop offset="0.41" stop-color="#E9E9E9"/>
<stop offset="0.54" stop-color="#F0F0F0"/>
<stop offset="0.91" stop-color="#F2F2F2"/>
</linearGradient>
<linearGradient id="paint20_linear_710_10921" x1="469.534" y1="1109.92" x2="239.304" y2="1402.66" gradientUnits="userSpaceOnUse">
<stop stop-color="#404040"/>
<stop offset="0.01" stop-color="#444444"/>
<stop offset="0.06" stop-color="#6B6B6B"/>
<stop offset="0.12" stop-color="#8C8C8C"/>
<stop offset="0.19" stop-color="#A9A9A9"/>
<stop offset="0.26" stop-color="#C0C0C0"/>
<stop offset="0.35" stop-color="#D2D2D2"/>
<stop offset="0.45" stop-color="#DFDFDF"/>
<stop offset="0.59" stop-color="#E6E6E6"/>
<stop offset="0.9" stop-color="#E8E8E8"/>
</linearGradient>
<linearGradient id="paint21_linear_710_10921" x1="703.972" y1="198.024" x2="734.63" y2="867.911" gradientUnits="userSpaceOnUse">
<stop stop-color="#404040"/>
<stop offset="0.02" stop-color="#575757"/>
<stop offset="0.07" stop-color="#7B7B7B"/>
<stop offset="0.12" stop-color="#9B9B9B"/>
<stop offset="0.18" stop-color="#B7B7B7"/>
<stop offset="0.24" stop-color="#CDCDCD"/>
<stop offset="0.32" stop-color="#DEDEDE"/>
<stop offset="0.41" stop-color="#E9E9E9"/>
<stop offset="0.54" stop-color="#F0F0F0"/>
<stop offset="0.91" stop-color="#F2F2F2"/>
</linearGradient>
<linearGradient id="paint22_linear_710_10921" x1="-254.605" y1="1302.95" x2="-223.976" y2="1972.84" gradientUnits="userSpaceOnUse">
<stop stop-color="#404040"/>
<stop offset="0.02" stop-color="#575757"/>
<stop offset="0.07" stop-color="#7B7B7B"/>
<stop offset="0.12" stop-color="#9B9B9B"/>
<stop offset="0.18" stop-color="#B7B7B7"/>
<stop offset="0.24" stop-color="#CDCDCD"/>
<stop offset="0.32" stop-color="#DEDEDE"/>
<stop offset="0.41" stop-color="#E9E9E9"/>
<stop offset="0.54" stop-color="#F0F0F0"/>
<stop offset="0.91" stop-color="#F2F2F2"/>
</linearGradient>
<linearGradient id="paint23_linear_710_10921" x1="703.972" y1="474.249" x2="734.63" y2="1144.14" gradientUnits="userSpaceOnUse">
<stop stop-color="#404040"/>
<stop offset="0.02" stop-color="#575757"/>
<stop offset="0.07" stop-color="#7B7B7B"/>
<stop offset="0.12" stop-color="#9B9B9B"/>
<stop offset="0.18" stop-color="#B7B7B7"/>
<stop offset="0.24" stop-color="#CDCDCD"/>
<stop offset="0.32" stop-color="#DEDEDE"/>
<stop offset="0.41" stop-color="#E9E9E9"/>
<stop offset="0.54" stop-color="#F0F0F0"/>
<stop offset="0.91" stop-color="#F2F2F2"/>
</linearGradient>
<linearGradient id="paint24_linear_710_10921" x1="469.534" y1="833.665" x2="239.304" y2="1126.44" gradientUnits="userSpaceOnUse">
<stop stop-color="#404040"/>
<stop offset="0.01" stop-color="#444444"/>
<stop offset="0.06" stop-color="#6B6B6B"/>
<stop offset="0.12" stop-color="#8C8C8C"/>
<stop offset="0.19" stop-color="#A9A9A9"/>
<stop offset="0.26" stop-color="#C0C0C0"/>
<stop offset="0.35" stop-color="#D2D2D2"/>
<stop offset="0.45" stop-color="#DFDFDF"/>
<stop offset="0.59" stop-color="#E6E6E6"/>
<stop offset="0.9" stop-color="#E8E8E8"/>
</linearGradient>
<linearGradient id="paint25_linear_710_10921" x1="224.685" y1="474.249" x2="255.313" y2="1144.14" gradientUnits="userSpaceOnUse">
<stop stop-color="#404040"/>
<stop offset="0.01" stop-color="#454545"/>
<stop offset="0.05" stop-color="#696969"/>
<stop offset="0.11" stop-color="#898989"/>
<stop offset="0.16" stop-color="#A5A5A5"/>
<stop offset="0.23" stop-color="#BBBBBB"/>
<stop offset="0.31" stop-color="#CCCCCC"/>
<stop offset="0.4" stop-color="#D7D7D7"/>
<stop offset="0.54" stop-color="#DEDEDE"/>
<stop offset="0.91" stop-color="#E0E0E0"/>
</linearGradient>
<linearGradient id="paint26_linear_710_10921" x1="224.685" y1="198.024" x2="255.313" y2="867.911" gradientUnits="userSpaceOnUse">
<stop stop-color="#404040"/>
<stop offset="0.02" stop-color="#575757"/>
<stop offset="0.07" stop-color="#7B7B7B"/>
<stop offset="0.12" stop-color="#9B9B9B"/>
<stop offset="0.18" stop-color="#B7B7B7"/>
<stop offset="0.24" stop-color="#CDCDCD"/>
<stop offset="0.32" stop-color="#DEDEDE"/>
<stop offset="0.41" stop-color="#E9E9E9"/>
<stop offset="0.54" stop-color="#F0F0F0"/>
<stop offset="0.91" stop-color="#F2F2F2"/>
</linearGradient>
<linearGradient id="paint27_linear_710_10921" x1="-254.605" y1="1026.73" x2="-223.976" y2="1696.61" gradientUnits="userSpaceOnUse">
<stop stop-color="#404040"/>
<stop offset="0.01" stop-color="#454545"/>
<stop offset="0.05" stop-color="#696969"/>
<stop offset="0.11" stop-color="#898989"/>
<stop offset="0.16" stop-color="#A5A5A5"/>
<stop offset="0.23" stop-color="#BBBBBB"/>
<stop offset="0.31" stop-color="#CCCCCC"/>
<stop offset="0.4" stop-color="#D7D7D7"/>
<stop offset="0.54" stop-color="#DEDEDE"/>
<stop offset="0.91" stop-color="#E0E0E0"/>
</linearGradient>
<linearGradient id="paint28_linear_710_10921" x1="-547.753" y1="252.518" x2="-44.4789" y2="769.011" gradientUnits="userSpaceOnUse">
<stop stop-color="#404040"/>
<stop offset="0.05" stop-color="#5E5E5E"/>
<stop offset="0.11" stop-color="#808080"/>
<stop offset="0.19" stop-color="#9D9D9D"/>
<stop offset="0.27" stop-color="#B5B5B5"/>
<stop offset="0.36" stop-color="#C8C8C8"/>
<stop offset="0.47" stop-color="#D4D4D4"/>
<stop offset="0.61" stop-color="#DCDCDC"/>
<stop offset="0.92" stop-color="#DEDEDE"/>
</linearGradient>
<linearGradient id="paint29_linear_710_10921" x1="-547.753" y1="-23.7076" x2="-44.4788" y2="492.785" gradientUnits="userSpaceOnUse">
<stop stop-color="#404040"/>
<stop offset="0.05" stop-color="#5E5E5E"/>
<stop offset="0.11" stop-color="#808080"/>
<stop offset="0.19" stop-color="#9D9D9D"/>
<stop offset="0.27" stop-color="#B5B5B5"/>
<stop offset="0.36" stop-color="#C8C8C8"/>
<stop offset="0.47" stop-color="#D4D4D4"/>
<stop offset="0.61" stop-color="#DCDCDC"/>
<stop offset="0.92" stop-color="#DEDEDE"/>
</linearGradient>
<linearGradient id="paint30_linear_710_10921" x1="-68.4638" y1="-23.7076" x2="434.81" y2="492.785" gradientUnits="userSpaceOnUse">
<stop stop-color="#404040"/>
<stop offset="0.05" stop-color="#5E5E5E"/>
<stop offset="0.11" stop-color="#808080"/>
<stop offset="0.19" stop-color="#9D9D9D"/>
<stop offset="0.27" stop-color="#B5B5B5"/>
<stop offset="0.36" stop-color="#C8C8C8"/>
<stop offset="0.47" stop-color="#D4D4D4"/>
<stop offset="0.61" stop-color="#DCDCDC"/>
<stop offset="0.92" stop-color="#DEDEDE"/>
</linearGradient>
<linearGradient id="paint31_linear_710_10921" x1="703.972" y1="-78.2019" x2="734.63" y2="591.685" gradientUnits="userSpaceOnUse">
<stop stop-color="#404040"/>
<stop offset="0.02" stop-color="#575757"/>
<stop offset="0.07" stop-color="#7B7B7B"/>
<stop offset="0.12" stop-color="#9B9B9B"/>
<stop offset="0.18" stop-color="#B7B7B7"/>
<stop offset="0.24" stop-color="#CDCDCD"/>
<stop offset="0.32" stop-color="#DEDEDE"/>
<stop offset="0.41" stop-color="#E9E9E9"/>
<stop offset="0.54" stop-color="#F0F0F0"/>
<stop offset="0.91" stop-color="#F2F2F2"/>
</linearGradient>
<linearGradient id="paint32_linear_710_10921" x1="224.685" y1="-354.457" x2="255.313" y2="315.458" gradientUnits="userSpaceOnUse">
<stop stop-color="#404040"/>
<stop offset="0.02" stop-color="#575757"/>
<stop offset="0.07" stop-color="#7B7B7B"/>
<stop offset="0.12" stop-color="#9B9B9B"/>
<stop offset="0.18" stop-color="#B7B7B7"/>
<stop offset="0.24" stop-color="#CDCDCD"/>
<stop offset="0.32" stop-color="#DEDEDE"/>
<stop offset="0.41" stop-color="#E9E9E9"/>
<stop offset="0.54" stop-color="#F0F0F0"/>
<stop offset="0.91" stop-color="#F2F2F2"/>
</linearGradient>
<linearGradient id="paint33_linear_710_10921" x1="-254.604" y1="-354.457" x2="-223.976" y2="315.458" gradientUnits="userSpaceOnUse">
<stop stop-color="#404040"/>
<stop offset="0.02" stop-color="#575757"/>
<stop offset="0.07" stop-color="#7B7B7B"/>
<stop offset="0.12" stop-color="#9B9B9B"/>
<stop offset="0.18" stop-color="#B7B7B7"/>
<stop offset="0.24" stop-color="#CDCDCD"/>
<stop offset="0.32" stop-color="#DEDEDE"/>
<stop offset="0.41" stop-color="#E9E9E9"/>
<stop offset="0.54" stop-color="#F0F0F0"/>
<stop offset="0.91" stop-color="#F2F2F2"/>
</linearGradient>
<linearGradient id="paint34_linear_710_10921" x1="410.824" y1="-299.934" x2="914.127" y2="216.559" gradientUnits="userSpaceOnUse">
<stop stop-color="#404040"/>
<stop offset="0.05" stop-color="#5E5E5E"/>
<stop offset="0.11" stop-color="#808080"/>
<stop offset="0.19" stop-color="#9D9D9D"/>
<stop offset="0.27" stop-color="#B5B5B5"/>
<stop offset="0.36" stop-color="#C8C8C8"/>
<stop offset="0.47" stop-color="#D4D4D4"/>
<stop offset="0.61" stop-color="#DCDCDC"/>
<stop offset="0.92" stop-color="#DEDEDE"/>
</linearGradient>
<linearGradient id="paint35_linear_710_10921" x1="1662.58" y1="-629.204" x2="1693.21" y2="40.6831" gradientUnits="userSpaceOnUse">
<stop stop-color="#404040"/>
<stop offset="0.02" stop-color="#575757"/>
<stop offset="0.07" stop-color="#7B7B7B"/>
<stop offset="0.12" stop-color="#9B9B9B"/>
<stop offset="0.18" stop-color="#B7B7B7"/>
<stop offset="0.24" stop-color="#CDCDCD"/>
<stop offset="0.32" stop-color="#DEDEDE"/>
<stop offset="0.41" stop-color="#E9E9E9"/>
<stop offset="0.54" stop-color="#F0F0F0"/>
<stop offset="0.91" stop-color="#F2F2F2"/>
</linearGradient>
<linearGradient id="paint36_linear_710_10921" x1="1183.29" y1="-629.204" x2="1213.92" y2="40.6831" gradientUnits="userSpaceOnUse">
<stop stop-color="#404040"/>
<stop offset="0.02" stop-color="#575757"/>
<stop offset="0.07" stop-color="#7B7B7B"/>
<stop offset="0.12" stop-color="#9B9B9B"/>
<stop offset="0.18" stop-color="#B7B7B7"/>
<stop offset="0.24" stop-color="#CDCDCD"/>
<stop offset="0.32" stop-color="#DEDEDE"/>
<stop offset="0.41" stop-color="#E9E9E9"/>
<stop offset="0.54" stop-color="#F0F0F0"/>
<stop offset="0.91" stop-color="#F2F2F2"/>
</linearGradient>
<linearGradient id="paint37_linear_710_10921" x1="703.972" y1="-629.204" x2="734.63" y2="40.6831" gradientUnits="userSpaceOnUse">
<stop stop-color="#404040"/>
<stop offset="0.02" stop-color="#575757"/>
<stop offset="0.07" stop-color="#7B7B7B"/>
<stop offset="0.12" stop-color="#9B9B9B"/>
<stop offset="0.18" stop-color="#B7B7B7"/>
<stop offset="0.24" stop-color="#CDCDCD"/>
<stop offset="0.32" stop-color="#DEDEDE"/>
<stop offset="0.41" stop-color="#E9E9E9"/>
<stop offset="0.54" stop-color="#F0F0F0"/>
<stop offset="0.91" stop-color="#F2F2F2"/>
</linearGradient>
<linearGradient id="paint38_linear_710_10921" x1="-254.605" y1="-629.204" x2="-223.976" y2="40.6831" gradientUnits="userSpaceOnUse">
<stop stop-color="#404040"/>
<stop offset="0.02" stop-color="#575757"/>
<stop offset="0.07" stop-color="#7B7B7B"/>
<stop offset="0.12" stop-color="#9B9B9B"/>
<stop offset="0.18" stop-color="#B7B7B7"/>
<stop offset="0.24" stop-color="#CDCDCD"/>
<stop offset="0.32" stop-color="#DEDEDE"/>
<stop offset="0.41" stop-color="#E9E9E9"/>
<stop offset="0.54" stop-color="#F0F0F0"/>
<stop offset="0.91" stop-color="#F2F2F2"/>
</linearGradient>
<linearGradient id="paint39_linear_710_10921" x1="469.534" y1="-546.012" x2="239.304" y2="-253.268" gradientUnits="userSpaceOnUse">
<stop stop-color="#404040"/>
<stop offset="0.01" stop-color="#444444"/>
<stop offset="0.06" stop-color="#6B6B6B"/>
<stop offset="0.12" stop-color="#8C8C8C"/>
<stop offset="0.19" stop-color="#A9A9A9"/>
<stop offset="0.26" stop-color="#C0C0C0"/>
<stop offset="0.35" stop-color="#D2D2D2"/>
<stop offset="0.45" stop-color="#DFDFDF"/>
<stop offset="0.59" stop-color="#E6E6E6"/>
<stop offset="0.9" stop-color="#E8E8E8"/>
</linearGradient>
<linearGradient id="paint40_linear_710_10921" x1="1577.02" y1="1334.01" x2="288.777" y2="-1449.47" gradientUnits="userSpaceOnUse">
<stop offset="0.16" stop-color="#F2F2F2" stop-opacity="0"/>
<stop offset="0.25" stop-color="#F0F0F0" stop-opacity="0.24"/>
<stop offset="0.48" stop-color="white" stop-opacity="0.74"/>
<stop offset="0.58" stop-color="white"/>
</linearGradient>
</defs>
</svg>
