<svg width="160" height="244" viewBox="0 0 160 244" fill="none" xmlns="http://www.w3.org/2000/svg">
<path d="M1.15565 11.7894H1.26327L15.8454 3.39621C16.6884 3.01959 17.926 3.39623 19.4326 4.50814C33.0103 14.892 51.2334 18.1022 66.0667 13.3676C67.025 12.472 67.935 11.5261 68.793 10.534L69.062 10.2291C69.4897 9.73346 69.9993 9.31492 70.5686 8.99167L70.8197 8.84819L85.4198 0.472966C87.0879 -0.316134 88.5945 0.472948 89.5989 2.94785C103.697 37.9732 133.74 73.4648 153.775 82.3422C155.289 83.0218 156.637 84.0258 157.721 85.2834C159.16 86.8467 159.955 88.897 159.945 91.0223L157.057 169.663C157.057 192.386 147.461 216.292 127.893 228.057L112.844 236.629L112.575 236.773C104.41 241.357 95.1779 243.702 85.8144 243.57C83.7159 243.57 81.5815 243.57 79.3753 243.265C75.0839 242.56 71.1068 240.572 67.9679 237.562C24.1139 192.404 2.89546 131.213 2.89546 97.353L0.00774016 15.0893C-0.0640045 13.3138 0.366456 12.2198 1.15565 11.7894Z" fill="#25CED1"/>
<path d="M0.00776048 15.09L2.89548 97.3538C2.89548 131.213 24.1857 192.405 67.9679 237.616C71.1068 240.626 75.0839 242.614 79.3753 243.32C81.5815 243.535 83.7159 243.624 85.8144 243.624C95.1779 243.757 104.41 241.412 112.575 236.827L112.844 236.684L113.364 236.361C132.933 224.686 142.493 200.762 142.493 177.968L145.38 99.3265C145.391 97.2013 144.596 95.1509 143.156 93.5876C142.072 92.3301 140.725 91.326 139.21 90.6464C119.176 81.7691 89.1326 46.2774 75.0348 11.2521C74.0303 8.77722 72.5058 7.97019 70.8377 8.75929L70.5866 8.90276C70.0173 9.22602 69.5077 9.64458 69.08 10.1402L68.8109 10.4451C53.8521 27.8591 24.4368 27.8412 4.79672 12.8124C3.30802 11.6825 2.07042 11.3239 1.20949 11.7005H1.10186C0.366478 12.2206 -0.0639842 13.3145 0.00776048 15.09Z" fill="#25CED1"/>
<path opacity="0.4" d="M1.24512 11.7003C2.08812 11.3237 3.32571 11.7003 4.83235 12.8122C23.3245 26.9623 50.4979 27.8052 66.0844 13.2785C51.1794 18.0311 32.9742 14.8029 19.4503 4.41909C17.9616 3.28925 16.724 2.93055 15.8631 3.30716L1.24512 11.7003Z" fill="white"/>
<path opacity="0.4" d="M70.8735 8.75915C72.5416 7.97005 74.0662 8.75915 75.0706 11.252C89.1684 46.2773 119.212 81.7689 139.246 90.6463C140.761 91.3259 142.108 92.33 143.192 93.5875C143.568 94.0162 143.905 94.4784 144.197 94.9684L158.761 86.5573C158.47 86.0763 158.14 85.6204 157.774 85.1943C157.573 84.96 157.357 84.7384 157.129 84.5308L156.842 84.19L156.591 83.9569C155.762 83.2193 154.824 82.6144 153.81 82.1635C133.776 73.2861 103.733 37.7945 89.6348 2.76917C88.6303 0.29426 87.1237 -0.49485 85.4556 0.294251L70.8735 8.75915Z" fill="white"/>
<path d="M157.111 84.4943C157.035 84.3813 156.945 84.2788 156.842 84.1895L157.093 84.4405C157.093 84.4405 157.129 84.4943 157.111 84.4943Z" fill="#25CED1"/>
<path opacity="0.15" d="M156.842 84.1895L157.093 84.4405C157.019 84.3475 156.935 84.2632 156.842 84.1895Z" fill="black"/>
<path opacity="0.15" d="M112.575 236.827L112.844 236.702L127.946 227.968C147.515 216.293 157.111 192.297 157.111 169.575L159.998 90.9335C160.03 89.3844 159.599 87.861 158.761 86.5576L144.286 94.9508C145.112 96.2523 145.536 97.7679 145.506 99.3087L142.493 177.968C142.493 200.69 132.897 224.596 113.329 236.361L112.808 236.684L112.575 236.827Z" fill="black"/>
<path d="M61.0625 164.463L84.3795 177.913L80.7923 135.75C83.5903 134.28 85.366 130.657 85.366 125.438C85.366 116.166 79.7161 105.37 72.8107 101.353C65.9053 97.3356 60.2554 101.604 60.2554 110.894C60.3977 116.39 61.9677 121.755 64.8112 126.461L61.0625 164.463Z" fill="#4A4864"/>
<path d="M61.0625 164.463L82.1734 152.268L84.3795 177.913L61.0625 164.463Z" fill="#363448"/>
<path d="M72.7211 101.352C77.2769 103.989 81.2587 109.512 83.4828 115.7L64.6857 126.55C61.8423 121.844 60.2722 116.479 60.1299 110.983C60.112 101.603 65.7619 97.3351 72.7211 101.352Z" fill="#363448"/>
</svg>
