<svg width="1920" height="2819" viewBox="0 0 1920 2819" fill="none" xmlns="http://www.w3.org/2000/svg">
<g opacity="0.3" clip-path="url(#clip0_522_7354)">
<path d="M0.739299 -595.367L0.739258 2817.63L1920.74 2817.63L1920.74 -595.367L0.739299 -595.367Z" fill="white"/>
<g opacity="0.55">
<mask id="mask0_522_7354" style="mask-type:luminance" maskUnits="userSpaceOnUse" x="0" y="-596" width="1921" height="3414">
<path d="M0.739299 -595.367L0.739258 2817.63L1920.74 2817.63L1920.74 -595.367L0.739299 -595.367Z" fill="white"/>
</mask>
<g mask="url(#mask0_522_7354)">
<path style="mix-blend-mode:multiply" d="M959.317 1544.33L959.317 1268.1L719.673 1129.96L480.028 1268.1L480.028 1544.33L719.673 1682.44L959.317 1544.33Z" fill="url(#paint0_linear_522_7354)"/>
<path style="mix-blend-mode:multiply" d="M480.028 2373.01L480.028 2096.78L240.384 1958.67L0.739263 2096.78L0.739259 2373.01L240.384 2511.15L480.028 2373.01Z" fill="url(#paint1_linear_522_7354)"/>
<path d="M480.028 2096.78L480.028 1820.56L240.384 1682.44L0.739263 1820.56L0.739259 2096.78L240.384 2234.89L480.028 2096.78Z" fill="url(#paint2_linear_522_7354)"/>
<path style="mix-blend-mode:multiply" d="M480.028 2925.49L480.028 2649.26L240.384 2511.15L0.739263 2649.26L0.739259 2925.49L240.384 3063.6L480.028 2925.49Z" fill="url(#paint3_linear_522_7354)"/>
<path d="M959.317 2649.26L959.317 2373.01L719.673 2234.89L480.028 2373.01L480.028 2649.26L719.673 2787.37L959.317 2649.26Z" fill="url(#paint4_linear_522_7354)"/>
<path d="M959.317 2373.01L959.317 2096.78L719.673 1958.67L480.028 2096.78L480.028 2373.01L719.673 2511.15L959.317 2373.01Z" fill="url(#paint5_linear_522_7354)"/>
<path style="mix-blend-mode:multiply" d="M959.317 2096.78L959.317 1820.56L719.673 1682.44L480.028 1820.56L480.028 2096.78L719.673 2234.89L959.317 2096.78Z" fill="url(#paint6_linear_522_7354)"/>
<path d="M959.317 2925.49L959.317 2649.26L719.673 2511.15L480.028 2649.26L480.028 2925.49L719.673 3063.6L959.317 2925.49Z" fill="url(#paint7_linear_522_7354)"/>
<path d="M959.317 1820.55L959.317 1544.33L719.673 1406.22L480.028 1544.33L480.028 1820.55L719.673 1958.67L959.317 1820.55Z" fill="url(#paint8_linear_522_7354)"/>
<path d="M480.028 2649.26L480.028 2373.01L240.384 2234.89L0.739263 2373.01L0.739259 2649.26L240.384 2787.37L480.028 2649.26Z" fill="url(#paint9_linear_522_7354)"/>
<path style="mix-blend-mode:multiply" d="M480.028 1820.55L480.028 1544.33L240.384 1406.22L0.739263 1544.33L0.739259 1820.55L240.384 1958.67L480.028 1820.55Z" fill="url(#paint10_linear_522_7354)"/>
<path d="M480.028 1544.33L480.028 1268.1L240.384 1129.96L0.739263 1268.1L0.739259 1544.33L240.384 1682.44L480.028 1544.33Z" fill="url(#paint11_linear_522_7354)"/>
<path style="mix-blend-mode:multiply" d="M959.317 1268.1L959.317 991.849L719.673 853.736L480.028 991.849L480.028 1268.1L719.673 1406.22L959.317 1268.1Z" fill="url(#paint12_linear_522_7354)"/>
<path d="M480.028 1268.16L480.028 991.935L240.384 853.823L0.739263 991.935L0.739259 1268.16L240.384 1406.27L480.028 1268.16Z" fill="url(#paint13_linear_522_7354)"/>
<path d="M1917.92 2925.49L1917.92 2649.26L1678.28 2511.15L1438.63 2649.26L1438.63 2925.49L1678.28 3063.6L1917.92 2925.49Z" fill="url(#paint14_linear_522_7354)"/>
<path d="M1438.63 2925.49L1438.63 2649.26L1198.99 2511.15L959.317 2649.26L959.317 2925.49L1198.99 3063.6L1438.63 2925.49Z" fill="url(#paint15_linear_522_7354)"/>
<path d="M1438.63 2649.26L1438.63 2373.01L1198.99 2234.89L959.317 2373.01L959.317 2649.26L1198.99 2787.37L1438.63 2649.26Z" fill="url(#paint16_linear_522_7354)"/>
<path style="mix-blend-mode:multiply" d="M1438.63 2373.01L1438.63 2096.78L1198.99 1958.67L959.317 2096.78L959.317 2373.01L1198.99 2511.15L1438.63 2373.01Z" fill="url(#paint17_linear_522_7354)"/>
<path style="mix-blend-mode:multiply" d="M2397.21 2373.01L2397.21 2096.78L2157.57 1958.67L1917.92 2096.78L1917.92 2373.01L2157.57 2511.15L2397.21 2373.01Z" fill="url(#paint18_linear_522_7354)"/>
<path d="M2397.21 2096.78L2397.21 1820.56L2157.57 1682.44L1917.92 1820.56L1917.92 2096.78L2157.57 2234.89L2397.21 2096.78Z" fill="url(#paint19_linear_522_7354)"/>
<path style="mix-blend-mode:multiply" d="M1917.92 2649.26L1917.92 2373.01L1678.28 2234.89L1438.63 2373.01L1438.63 2649.26L1678.28 2787.37L1917.92 2649.26Z" fill="url(#paint20_linear_522_7354)"/>
<path style="mix-blend-mode:multiply" d="M1438.63 1820.55L1438.63 1544.33L1198.99 1406.22L959.317 1544.33L959.317 1820.55L1198.99 1958.67L1438.63 1820.55Z" fill="url(#paint21_linear_522_7354)"/>
<path style="mix-blend-mode:multiply" d="M2397.21 2925.49L2397.21 2649.26L2157.57 2511.15L1917.92 2649.26L1917.92 2925.49L2157.57 3063.6L2397.21 2925.49Z" fill="url(#paint22_linear_522_7354)"/>
<path d="M1438.63 2096.78L1438.63 1820.56L1198.99 1682.44L959.317 1820.56L959.317 2096.78L1198.99 2234.89L1438.63 2096.78Z" fill="url(#paint23_linear_522_7354)"/>
<path d="M1917.92 2373.01L1917.92 2096.78L1678.28 1958.67L1438.63 2096.78L1438.63 2373.01L1678.28 2511.15L1917.92 2373.01Z" fill="url(#paint24_linear_522_7354)"/>
<path style="mix-blend-mode:multiply" d="M1917.92 2096.78L1917.92 1820.56L1678.28 1682.44L1438.63 1820.56L1438.63 2096.78L1678.28 2234.89L1917.92 2096.78Z" fill="url(#paint25_linear_522_7354)"/>
<path d="M1917.92 1820.55L1917.92 1544.33L1678.28 1406.22L1438.63 1544.33L1438.63 1820.55L1678.28 1958.67L1917.92 1820.55Z" fill="url(#paint26_linear_522_7354)"/>
<path d="M2397.21 2649.26L2397.21 2373.01L2157.57 2234.89L1917.92 2373.01L1917.92 2649.26L2157.57 2787.37L2397.21 2649.26Z" fill="url(#paint27_linear_522_7354)"/>
<path style="mix-blend-mode:multiply" d="M2397.21 1820.55L2397.21 1544.33L2157.57 1406.22L1917.92 1544.33L1917.92 1820.55L2157.57 1958.67L2397.21 1820.55Z" fill="url(#paint28_linear_522_7354)"/>
<path d="M2397.21 1544.33L2397.21 1268.1L2157.57 1129.96L1917.92 1268.1L1917.92 1544.33L2157.57 1682.44L2397.21 1544.33Z" fill="url(#paint29_linear_522_7354)"/>
<path d="M1917.92 1544.33L1917.92 1268.1L1678.28 1129.96L1438.63 1268.1L1438.63 1544.33L1678.28 1682.44L1917.92 1544.33Z" fill="url(#paint30_linear_522_7354)"/>
<path style="mix-blend-mode:multiply" d="M1438.63 1544.33L1438.63 1268.1L1198.99 1129.96L959.317 1268.1L959.317 1544.33L1198.99 1682.44L1438.63 1544.33Z" fill="url(#paint31_linear_522_7354)"/>
<path style="mix-blend-mode:multiply" d="M1917.92 1268.1L1917.92 991.849L1678.28 853.736L1438.63 991.849L1438.63 1268.1L1678.28 1406.22L1917.92 1268.1Z" fill="url(#paint32_linear_522_7354)"/>
<path d="M2397.21 1268.1L2397.21 991.849L2157.57 853.736L1917.92 991.849L1917.92 1268.1L2157.57 1406.22L2397.21 1268.1Z" fill="url(#paint33_linear_522_7354)"/>
<path d="M1438.63 1268.1L1438.63 991.849L1198.99 853.736L959.317 991.849L959.317 1268.1L1198.99 1406.22L1438.63 1268.1Z" fill="url(#paint34_linear_522_7354)"/>
<path style="mix-blend-mode:multiply" d="M959.317 164.624L959.317 -111.601L719.673 -249.714L480.028 -111.601L480.028 164.624L719.673 302.737L959.317 164.624Z" fill="url(#paint35_linear_522_7354)"/>
<path style="mix-blend-mode:multiply" d="M480.028 993.329L480.028 717.104L240.384 578.963L0.739263 717.104L0.739259 993.329L240.384 1131.44L480.028 993.329Z" fill="url(#paint36_linear_522_7354)"/>
<path d="M480.028 717.104L480.028 440.85L240.384 302.737L0.739263 440.85L0.739259 717.104L240.384 855.217L480.028 717.104Z" fill="url(#paint37_linear_522_7354)"/>
<path d="M959.317 993.329L959.317 717.104L719.673 578.963L480.028 717.104L480.028 993.329L719.673 1131.44L959.317 993.329Z" fill="url(#paint38_linear_522_7354)"/>
<path style="mix-blend-mode:multiply" d="M959.317 717.104L959.317 440.85L719.673 302.737L480.028 440.85L480.028 717.104L719.673 855.217L959.317 717.104Z" fill="url(#paint39_linear_522_7354)"/>
<path d="M959.317 440.85L959.317 164.624L719.673 26.5117L480.028 164.624L480.028 440.85L719.673 578.962L959.317 440.85Z" fill="url(#paint40_linear_522_7354)"/>
<path style="mix-blend-mode:multiply" d="M480.028 440.85L480.028 164.624L240.384 26.5117L0.739263 164.624L0.739259 440.85L240.384 578.962L480.028 440.85Z" fill="url(#paint41_linear_522_7354)"/>
<path d="M480.028 164.624L480.028 -111.601L240.384 -249.714L0.739263 -111.601L0.739259 164.624L240.384 302.737L480.028 164.624Z" fill="url(#paint42_linear_522_7354)"/>
<path style="mix-blend-mode:multiply" d="M959.317 -111.601L959.317 -387.827L719.673 -525.939L480.028 -387.827L480.028 -111.601L719.673 26.5117L959.317 -111.601Z" fill="url(#paint43_linear_522_7354)"/>
<path d="M480.028 -111.546L480.028 -387.771L240.384 -525.884L0.739263 -387.771L0.739259 -111.546L240.384 26.5669L480.028 -111.546Z" fill="url(#paint44_linear_522_7354)"/>
<path style="mix-blend-mode:multiply" d="M1438.63 993.329L1438.63 717.104L1198.99 578.963L959.317 717.104L959.317 993.329L1198.99 1131.44L1438.63 993.329Z" fill="url(#paint45_linear_522_7354)"/>
<path style="mix-blend-mode:multiply" d="M2397.21 993.329L2397.21 717.104L2157.57 578.963L1917.92 717.104L1917.92 993.329L2157.57 1131.44L2397.21 993.329Z" fill="url(#paint46_linear_522_7354)"/>
<path d="M2397.21 717.104L2397.21 440.85L2157.57 302.737L1917.92 440.85L1917.92 717.104L2157.57 855.217L2397.21 717.104Z" fill="url(#paint47_linear_522_7354)"/>
<path style="mix-blend-mode:multiply" d="M1438.63 440.85L1438.63 164.624L1198.99 26.5117L959.317 164.624L959.317 440.85L1198.99 578.962L1438.63 440.85Z" fill="url(#paint48_linear_522_7354)"/>
<path d="M1438.63 717.104L1438.63 440.85L1198.99 302.737L959.317 440.85L959.317 717.104L1198.99 855.217L1438.63 717.104Z" fill="url(#paint49_linear_522_7354)"/>
<path d="M1917.92 993.329L1917.92 717.104L1678.28 578.963L1438.63 717.104L1438.63 993.329L1678.28 1131.44L1917.92 993.329Z" fill="url(#paint50_linear_522_7354)"/>
<path style="mix-blend-mode:multiply" d="M1917.92 717.104L1917.92 440.85L1678.28 302.737L1438.63 440.85L1438.63 717.104L1678.28 855.217L1917.92 717.104Z" fill="url(#paint51_linear_522_7354)"/>
<path d="M1917.92 440.85L1917.92 164.624L1678.28 26.5117L1438.63 164.624L1438.63 440.85L1678.28 578.962L1917.92 440.85Z" fill="url(#paint52_linear_522_7354)"/>
<path style="mix-blend-mode:multiply" d="M2397.21 440.85L2397.21 164.624L2157.57 26.5117L1917.92 164.624L1917.92 440.85L2157.57 578.962L2397.21 440.85Z" fill="url(#paint53_linear_522_7354)"/>
<path d="M2397.21 164.624L2397.21 -111.601L2157.57 -249.714L1917.92 -111.601L1917.92 164.624L2157.57 302.737L2397.21 164.624Z" fill="url(#paint54_linear_522_7354)"/>
<path d="M1917.92 164.624L1917.92 -111.601L1678.28 -249.714L1438.63 -111.601L1438.63 164.624L1678.28 302.737L1917.92 164.624Z" fill="url(#paint55_linear_522_7354)"/>
<path style="mix-blend-mode:multiply" d="M1438.63 164.624L1438.63 -111.601L1198.99 -249.714L959.317 -111.601L959.317 164.624L1198.99 302.737L1438.63 164.624Z" fill="url(#paint56_linear_522_7354)"/>
<path style="mix-blend-mode:multiply" d="M1917.92 -111.601L1917.92 -387.827L1678.28 -525.939L1438.63 -387.827L1438.63 -111.601L1678.28 26.5117L1917.92 -111.601Z" fill="url(#paint57_linear_522_7354)"/>
<path d="M2397.21 -111.601L2397.21 -387.827L2157.57 -525.939L1917.92 -387.827L1917.92 -111.601L2157.57 26.5117L2397.21 -111.601Z" fill="url(#paint58_linear_522_7354)"/>
<path d="M1438.63 -111.601L1438.63 -387.827L1198.99 -525.939L959.317 -387.827L959.317 -111.601L1198.99 26.5117L1438.63 -111.601Z" fill="url(#paint59_linear_522_7354)"/>
</g>
</g>
<mask id="mask1_522_7354" style="mask-type:luminance" maskUnits="userSpaceOnUse" x="0" y="-596" width="1921" height="3414">
<path d="M0.739299 -595.367L0.739258 2817.63L1920.74 2817.63L1920.74 -595.367L0.739299 -595.367Z" fill="white"/>
</mask>
<g mask="url(#mask1_522_7354)">
<g opacity="0.8">
<path opacity="0.84" d="M0.739259 -111.602L0.739259 -111.545L240.384 26.5671L480.028 -111.545L480.028 -111.602L240.384 -249.715L0.739259 -111.602Z" fill="#F08700"/>
<path opacity="0.84" d="M-238.934 1958.66L-238.934 1958.72L0.710831 2096.83L240.355 1958.72L240.355 1958.66L0.710834 1820.55L-238.934 1958.66Z" fill="#F08700"/>
<path opacity="0.84" d="M1678.19 1406.3L1678.19 1406.36L1917.84 1544.47L2157.51 1406.36L2157.51 1406.3L1917.84 1268.19L1678.19 1406.3Z" fill="#F08700"/>
<path opacity="0.84" d="M480.028 2649.26L719.673 2787.37L959.317 2649.26L719.673 2511.14L480.028 2649.26Z" fill="#F08700"/>
<path opacity="0.84" d="M1199.13 2787.4L1438.78 2925.51L1678.42 2787.4L1438.78 2649.26L1199.13 2787.4Z" fill="#F08700"/>
<path opacity="0.84" d="M1438.63 2373L1678.28 2511.14L1917.92 2373L1678.28 2234.89L1438.63 2373Z" fill="#F08700"/>
<path opacity="0.84" d="M480.028 164.622L719.673 302.735L959.317 164.622L719.673 26.5096L480.028 164.622Z" fill="#F08700"/>
</g>
</g>
<path d="M0.739299 -595.367L0.739258 2817.63L1920.74 2817.63L1920.74 -595.367L0.739299 -595.367Z" fill="url(#paint60_linear_522_7354)"/>
</g>
<defs>
<linearGradient id="paint0_linear_522_7354" x1="736.711" y1="1033.43" x2="706.082" y2="1703.32" gradientUnits="userSpaceOnUse">
<stop stop-color="#404040"/>
<stop offset="0.01" stop-color="#454545"/>
<stop offset="0.05" stop-color="#696969"/>
<stop offset="0.11" stop-color="#898989"/>
<stop offset="0.16" stop-color="#A5A5A5"/>
<stop offset="0.23" stop-color="#BBBBBB"/>
<stop offset="0.31" stop-color="#CCCCCC"/>
<stop offset="0.4" stop-color="#D7D7D7"/>
<stop offset="0.54" stop-color="#DEDEDE"/>
<stop offset="0.91" stop-color="#E0E0E0"/>
</linearGradient>
<linearGradient id="paint1_linear_522_7354" x1="257.422" y1="1862.11" x2="226.793" y2="2532" gradientUnits="userSpaceOnUse">
<stop stop-color="#404040"/>
<stop offset="0.02" stop-color="#575757"/>
<stop offset="0.07" stop-color="#7B7B7B"/>
<stop offset="0.12" stop-color="#9B9B9B"/>
<stop offset="0.18" stop-color="#B7B7B7"/>
<stop offset="0.24" stop-color="#CDCDCD"/>
<stop offset="0.32" stop-color="#DEDEDE"/>
<stop offset="0.41" stop-color="#E9E9E9"/>
<stop offset="0.54" stop-color="#F0F0F0"/>
<stop offset="0.91" stop-color="#F2F2F2"/>
</linearGradient>
<linearGradient id="paint2_linear_522_7354" x1="257.422" y1="1585.88" x2="226.793" y2="2255.77" gradientUnits="userSpaceOnUse">
<stop stop-color="#404040"/>
<stop offset="0.02" stop-color="#575757"/>
<stop offset="0.07" stop-color="#7B7B7B"/>
<stop offset="0.12" stop-color="#9B9B9B"/>
<stop offset="0.18" stop-color="#B7B7B7"/>
<stop offset="0.24" stop-color="#CDCDCD"/>
<stop offset="0.32" stop-color="#DEDEDE"/>
<stop offset="0.41" stop-color="#E9E9E9"/>
<stop offset="0.54" stop-color="#F0F0F0"/>
<stop offset="0.91" stop-color="#F2F2F2"/>
</linearGradient>
<linearGradient id="paint3_linear_522_7354" x1="257.422" y1="2414.59" x2="226.793" y2="3084.47" gradientUnits="userSpaceOnUse">
<stop stop-color="#404040"/>
<stop offset="0.02" stop-color="#575757"/>
<stop offset="0.07" stop-color="#7B7B7B"/>
<stop offset="0.12" stop-color="#9B9B9B"/>
<stop offset="0.18" stop-color="#B7B7B7"/>
<stop offset="0.24" stop-color="#CDCDCD"/>
<stop offset="0.32" stop-color="#DEDEDE"/>
<stop offset="0.41" stop-color="#E9E9E9"/>
<stop offset="0.54" stop-color="#F0F0F0"/>
<stop offset="0.91" stop-color="#F2F2F2"/>
</linearGradient>
<linearGradient id="paint4_linear_522_7354" x1="736.711" y1="2138.36" x2="706.082" y2="2808.25" gradientUnits="userSpaceOnUse">
<stop stop-color="#404040"/>
<stop offset="0.02" stop-color="#575757"/>
<stop offset="0.07" stop-color="#7B7B7B"/>
<stop offset="0.12" stop-color="#9B9B9B"/>
<stop offset="0.18" stop-color="#B7B7B7"/>
<stop offset="0.24" stop-color="#CDCDCD"/>
<stop offset="0.32" stop-color="#DEDEDE"/>
<stop offset="0.41" stop-color="#E9E9E9"/>
<stop offset="0.54" stop-color="#F0F0F0"/>
<stop offset="0.91" stop-color="#F2F2F2"/>
</linearGradient>
<linearGradient id="paint5_linear_522_7354" x1="736.711" y1="1862.11" x2="706.082" y2="2532" gradientUnits="userSpaceOnUse">
<stop stop-color="#404040"/>
<stop offset="0.02" stop-color="#575757"/>
<stop offset="0.07" stop-color="#7B7B7B"/>
<stop offset="0.12" stop-color="#9B9B9B"/>
<stop offset="0.18" stop-color="#B7B7B7"/>
<stop offset="0.24" stop-color="#CDCDCD"/>
<stop offset="0.32" stop-color="#DEDEDE"/>
<stop offset="0.41" stop-color="#E9E9E9"/>
<stop offset="0.54" stop-color="#F0F0F0"/>
<stop offset="0.91" stop-color="#F2F2F2"/>
</linearGradient>
<linearGradient id="paint6_linear_522_7354" x1="736.711" y1="1585.88" x2="706.082" y2="2255.77" gradientUnits="userSpaceOnUse">
<stop stop-color="#404040"/>
<stop offset="0.02" stop-color="#575757"/>
<stop offset="0.07" stop-color="#7B7B7B"/>
<stop offset="0.12" stop-color="#9B9B9B"/>
<stop offset="0.18" stop-color="#B7B7B7"/>
<stop offset="0.24" stop-color="#CDCDCD"/>
<stop offset="0.32" stop-color="#DEDEDE"/>
<stop offset="0.41" stop-color="#E9E9E9"/>
<stop offset="0.54" stop-color="#F0F0F0"/>
<stop offset="0.91" stop-color="#F2F2F2"/>
</linearGradient>
<linearGradient id="paint7_linear_522_7354" x1="736.711" y1="2414.59" x2="706.082" y2="3084.47" gradientUnits="userSpaceOnUse">
<stop stop-color="#404040"/>
<stop offset="0.02" stop-color="#575757"/>
<stop offset="0.07" stop-color="#7B7B7B"/>
<stop offset="0.12" stop-color="#9B9B9B"/>
<stop offset="0.18" stop-color="#B7B7B7"/>
<stop offset="0.24" stop-color="#CDCDCD"/>
<stop offset="0.32" stop-color="#DEDEDE"/>
<stop offset="0.41" stop-color="#E9E9E9"/>
<stop offset="0.54" stop-color="#F0F0F0"/>
<stop offset="0.91" stop-color="#F2F2F2"/>
</linearGradient>
<linearGradient id="paint8_linear_522_7354" x1="736.711" y1="1309.66" x2="706.082" y2="1979.54" gradientUnits="userSpaceOnUse">
<stop stop-color="#404040"/>
<stop offset="0.02" stop-color="#575757"/>
<stop offset="0.07" stop-color="#7B7B7B"/>
<stop offset="0.12" stop-color="#9B9B9B"/>
<stop offset="0.18" stop-color="#B7B7B7"/>
<stop offset="0.24" stop-color="#CDCDCD"/>
<stop offset="0.32" stop-color="#DEDEDE"/>
<stop offset="0.41" stop-color="#E9E9E9"/>
<stop offset="0.54" stop-color="#F0F0F0"/>
<stop offset="0.91" stop-color="#F2F2F2"/>
</linearGradient>
<linearGradient id="paint9_linear_522_7354" x1="257.422" y1="2138.36" x2="226.793" y2="2808.25" gradientUnits="userSpaceOnUse">
<stop stop-color="#404040"/>
<stop offset="0.01" stop-color="#454545"/>
<stop offset="0.05" stop-color="#696969"/>
<stop offset="0.11" stop-color="#898989"/>
<stop offset="0.16" stop-color="#A5A5A5"/>
<stop offset="0.23" stop-color="#BBBBBB"/>
<stop offset="0.31" stop-color="#CCCCCC"/>
<stop offset="0.4" stop-color="#D7D7D7"/>
<stop offset="0.54" stop-color="#DEDEDE"/>
<stop offset="0.91" stop-color="#E0E0E0"/>
</linearGradient>
<linearGradient id="paint10_linear_522_7354" x1="550.57" y1="1364.15" x2="47.2963" y2="1880.64" gradientUnits="userSpaceOnUse">
<stop stop-color="#404040"/>
<stop offset="0.05" stop-color="#5E5E5E"/>
<stop offset="0.11" stop-color="#808080"/>
<stop offset="0.19" stop-color="#9D9D9D"/>
<stop offset="0.27" stop-color="#B5B5B5"/>
<stop offset="0.36" stop-color="#C8C8C8"/>
<stop offset="0.47" stop-color="#D4D4D4"/>
<stop offset="0.61" stop-color="#DCDCDC"/>
<stop offset="0.92" stop-color="#DEDEDE"/>
</linearGradient>
<linearGradient id="paint11_linear_522_7354" x1="550.57" y1="1087.93" x2="47.2963" y2="1604.42" gradientUnits="userSpaceOnUse">
<stop stop-color="#404040"/>
<stop offset="0.05" stop-color="#5E5E5E"/>
<stop offset="0.11" stop-color="#808080"/>
<stop offset="0.19" stop-color="#9D9D9D"/>
<stop offset="0.27" stop-color="#B5B5B5"/>
<stop offset="0.36" stop-color="#C8C8C8"/>
<stop offset="0.47" stop-color="#D4D4D4"/>
<stop offset="0.61" stop-color="#DCDCDC"/>
<stop offset="0.92" stop-color="#DEDEDE"/>
</linearGradient>
<linearGradient id="paint12_linear_522_7354" x1="491.89" y1="840.369" x2="722.12" y2="1133.14" gradientUnits="userSpaceOnUse">
<stop stop-color="#404040"/>
<stop offset="0.01" stop-color="#444444"/>
<stop offset="0.06" stop-color="#6B6B6B"/>
<stop offset="0.12" stop-color="#8C8C8C"/>
<stop offset="0.19" stop-color="#A9A9A9"/>
<stop offset="0.26" stop-color="#C0C0C0"/>
<stop offset="0.35" stop-color="#D2D2D2"/>
<stop offset="0.45" stop-color="#DFDFDF"/>
<stop offset="0.59" stop-color="#E6E6E6"/>
<stop offset="0.9" stop-color="#E8E8E8"/>
</linearGradient>
<linearGradient id="paint13_linear_522_7354" x1="257.422" y1="757.263" x2="226.793" y2="1427.15" gradientUnits="userSpaceOnUse">
<stop stop-color="#404040"/>
<stop offset="0.02" stop-color="#575757"/>
<stop offset="0.07" stop-color="#7B7B7B"/>
<stop offset="0.12" stop-color="#9B9B9B"/>
<stop offset="0.18" stop-color="#B7B7B7"/>
<stop offset="0.24" stop-color="#CDCDCD"/>
<stop offset="0.32" stop-color="#DEDEDE"/>
<stop offset="0.41" stop-color="#E9E9E9"/>
<stop offset="0.54" stop-color="#F0F0F0"/>
<stop offset="0.91" stop-color="#F2F2F2"/>
</linearGradient>
<linearGradient id="paint14_linear_522_7354" x1="1695.32" y1="2414.59" x2="1664.69" y2="3084.47" gradientUnits="userSpaceOnUse">
<stop stop-color="#404040"/>
<stop offset="0.01" stop-color="#454545"/>
<stop offset="0.05" stop-color="#696969"/>
<stop offset="0.11" stop-color="#898989"/>
<stop offset="0.16" stop-color="#A5A5A5"/>
<stop offset="0.23" stop-color="#BBBBBB"/>
<stop offset="0.31" stop-color="#CCCCCC"/>
<stop offset="0.4" stop-color="#D7D7D7"/>
<stop offset="0.54" stop-color="#DEDEDE"/>
<stop offset="0.91" stop-color="#E0E0E0"/>
</linearGradient>
<linearGradient id="paint15_linear_522_7354" x1="1216.03" y1="2414.59" x2="1185.37" y2="3084.47" gradientUnits="userSpaceOnUse">
<stop stop-color="#404040"/>
<stop offset="0.02" stop-color="#575757"/>
<stop offset="0.07" stop-color="#7B7B7B"/>
<stop offset="0.12" stop-color="#9B9B9B"/>
<stop offset="0.18" stop-color="#B7B7B7"/>
<stop offset="0.24" stop-color="#CDCDCD"/>
<stop offset="0.32" stop-color="#DEDEDE"/>
<stop offset="0.41" stop-color="#E9E9E9"/>
<stop offset="0.54" stop-color="#F0F0F0"/>
<stop offset="0.91" stop-color="#F2F2F2"/>
</linearGradient>
<linearGradient id="paint16_linear_522_7354" x1="1216.03" y1="2138.36" x2="1185.37" y2="2808.25" gradientUnits="userSpaceOnUse">
<stop stop-color="#404040"/>
<stop offset="0.02" stop-color="#575757"/>
<stop offset="0.07" stop-color="#7B7B7B"/>
<stop offset="0.12" stop-color="#9B9B9B"/>
<stop offset="0.18" stop-color="#B7B7B7"/>
<stop offset="0.24" stop-color="#CDCDCD"/>
<stop offset="0.32" stop-color="#DEDEDE"/>
<stop offset="0.41" stop-color="#E9E9E9"/>
<stop offset="0.54" stop-color="#F0F0F0"/>
<stop offset="0.91" stop-color="#F2F2F2"/>
</linearGradient>
<linearGradient id="paint17_linear_522_7354" x1="1216.03" y1="1862.11" x2="1185.37" y2="2532" gradientUnits="userSpaceOnUse">
<stop stop-color="#404040"/>
<stop offset="0.02" stop-color="#575757"/>
<stop offset="0.07" stop-color="#7B7B7B"/>
<stop offset="0.12" stop-color="#9B9B9B"/>
<stop offset="0.18" stop-color="#B7B7B7"/>
<stop offset="0.24" stop-color="#CDCDCD"/>
<stop offset="0.32" stop-color="#DEDEDE"/>
<stop offset="0.41" stop-color="#E9E9E9"/>
<stop offset="0.54" stop-color="#F0F0F0"/>
<stop offset="0.91" stop-color="#F2F2F2"/>
</linearGradient>
<linearGradient id="paint18_linear_522_7354" x1="2174.61" y1="1862.11" x2="2143.98" y2="2532" gradientUnits="userSpaceOnUse">
<stop stop-color="#404040"/>
<stop offset="0.02" stop-color="#575757"/>
<stop offset="0.07" stop-color="#7B7B7B"/>
<stop offset="0.12" stop-color="#9B9B9B"/>
<stop offset="0.18" stop-color="#B7B7B7"/>
<stop offset="0.24" stop-color="#CDCDCD"/>
<stop offset="0.32" stop-color="#DEDEDE"/>
<stop offset="0.41" stop-color="#E9E9E9"/>
<stop offset="0.54" stop-color="#F0F0F0"/>
<stop offset="0.91" stop-color="#F2F2F2"/>
</linearGradient>
<linearGradient id="paint19_linear_522_7354" x1="2174.61" y1="1585.88" x2="2143.98" y2="2255.77" gradientUnits="userSpaceOnUse">
<stop stop-color="#404040"/>
<stop offset="0.02" stop-color="#575757"/>
<stop offset="0.07" stop-color="#7B7B7B"/>
<stop offset="0.12" stop-color="#9B9B9B"/>
<stop offset="0.18" stop-color="#B7B7B7"/>
<stop offset="0.24" stop-color="#CDCDCD"/>
<stop offset="0.32" stop-color="#DEDEDE"/>
<stop offset="0.41" stop-color="#E9E9E9"/>
<stop offset="0.54" stop-color="#F0F0F0"/>
<stop offset="0.91" stop-color="#F2F2F2"/>
</linearGradient>
<linearGradient id="paint20_linear_522_7354" x1="1450.47" y1="2221.55" x2="1680.7" y2="2514.3" gradientUnits="userSpaceOnUse">
<stop stop-color="#404040"/>
<stop offset="0.01" stop-color="#444444"/>
<stop offset="0.06" stop-color="#6B6B6B"/>
<stop offset="0.12" stop-color="#8C8C8C"/>
<stop offset="0.19" stop-color="#A9A9A9"/>
<stop offset="0.26" stop-color="#C0C0C0"/>
<stop offset="0.35" stop-color="#D2D2D2"/>
<stop offset="0.45" stop-color="#DFDFDF"/>
<stop offset="0.59" stop-color="#E6E6E6"/>
<stop offset="0.9" stop-color="#E8E8E8"/>
</linearGradient>
<linearGradient id="paint21_linear_522_7354" x1="1216.03" y1="1309.66" x2="1185.37" y2="1979.54" gradientUnits="userSpaceOnUse">
<stop stop-color="#404040"/>
<stop offset="0.02" stop-color="#575757"/>
<stop offset="0.07" stop-color="#7B7B7B"/>
<stop offset="0.12" stop-color="#9B9B9B"/>
<stop offset="0.18" stop-color="#B7B7B7"/>
<stop offset="0.24" stop-color="#CDCDCD"/>
<stop offset="0.32" stop-color="#DEDEDE"/>
<stop offset="0.41" stop-color="#E9E9E9"/>
<stop offset="0.54" stop-color="#F0F0F0"/>
<stop offset="0.91" stop-color="#F2F2F2"/>
</linearGradient>
<linearGradient id="paint22_linear_522_7354" x1="2174.61" y1="2414.59" x2="2143.98" y2="3084.47" gradientUnits="userSpaceOnUse">
<stop stop-color="#404040"/>
<stop offset="0.02" stop-color="#575757"/>
<stop offset="0.07" stop-color="#7B7B7B"/>
<stop offset="0.12" stop-color="#9B9B9B"/>
<stop offset="0.18" stop-color="#B7B7B7"/>
<stop offset="0.24" stop-color="#CDCDCD"/>
<stop offset="0.32" stop-color="#DEDEDE"/>
<stop offset="0.41" stop-color="#E9E9E9"/>
<stop offset="0.54" stop-color="#F0F0F0"/>
<stop offset="0.91" stop-color="#F2F2F2"/>
</linearGradient>
<linearGradient id="paint23_linear_522_7354" x1="1216.03" y1="1585.88" x2="1185.37" y2="2255.77" gradientUnits="userSpaceOnUse">
<stop stop-color="#404040"/>
<stop offset="0.02" stop-color="#575757"/>
<stop offset="0.07" stop-color="#7B7B7B"/>
<stop offset="0.12" stop-color="#9B9B9B"/>
<stop offset="0.18" stop-color="#B7B7B7"/>
<stop offset="0.24" stop-color="#CDCDCD"/>
<stop offset="0.32" stop-color="#DEDEDE"/>
<stop offset="0.41" stop-color="#E9E9E9"/>
<stop offset="0.54" stop-color="#F0F0F0"/>
<stop offset="0.91" stop-color="#F2F2F2"/>
</linearGradient>
<linearGradient id="paint24_linear_522_7354" x1="1450.47" y1="1945.3" x2="1680.7" y2="2238.07" gradientUnits="userSpaceOnUse">
<stop stop-color="#404040"/>
<stop offset="0.01" stop-color="#444444"/>
<stop offset="0.06" stop-color="#6B6B6B"/>
<stop offset="0.12" stop-color="#8C8C8C"/>
<stop offset="0.19" stop-color="#A9A9A9"/>
<stop offset="0.26" stop-color="#C0C0C0"/>
<stop offset="0.35" stop-color="#D2D2D2"/>
<stop offset="0.45" stop-color="#DFDFDF"/>
<stop offset="0.59" stop-color="#E6E6E6"/>
<stop offset="0.9" stop-color="#E8E8E8"/>
</linearGradient>
<linearGradient id="paint25_linear_522_7354" x1="1695.32" y1="1585.88" x2="1664.69" y2="2255.77" gradientUnits="userSpaceOnUse">
<stop stop-color="#404040"/>
<stop offset="0.01" stop-color="#454545"/>
<stop offset="0.05" stop-color="#696969"/>
<stop offset="0.11" stop-color="#898989"/>
<stop offset="0.16" stop-color="#A5A5A5"/>
<stop offset="0.23" stop-color="#BBBBBB"/>
<stop offset="0.31" stop-color="#CCCCCC"/>
<stop offset="0.4" stop-color="#D7D7D7"/>
<stop offset="0.54" stop-color="#DEDEDE"/>
<stop offset="0.91" stop-color="#E0E0E0"/>
</linearGradient>
<linearGradient id="paint26_linear_522_7354" x1="1695.32" y1="1309.66" x2="1664.69" y2="1979.54" gradientUnits="userSpaceOnUse">
<stop stop-color="#404040"/>
<stop offset="0.02" stop-color="#575757"/>
<stop offset="0.07" stop-color="#7B7B7B"/>
<stop offset="0.12" stop-color="#9B9B9B"/>
<stop offset="0.18" stop-color="#B7B7B7"/>
<stop offset="0.24" stop-color="#CDCDCD"/>
<stop offset="0.32" stop-color="#DEDEDE"/>
<stop offset="0.41" stop-color="#E9E9E9"/>
<stop offset="0.54" stop-color="#F0F0F0"/>
<stop offset="0.91" stop-color="#F2F2F2"/>
</linearGradient>
<linearGradient id="paint27_linear_522_7354" x1="2174.61" y1="2138.36" x2="2143.98" y2="2808.25" gradientUnits="userSpaceOnUse">
<stop stop-color="#404040"/>
<stop offset="0.01" stop-color="#454545"/>
<stop offset="0.05" stop-color="#696969"/>
<stop offset="0.11" stop-color="#898989"/>
<stop offset="0.16" stop-color="#A5A5A5"/>
<stop offset="0.23" stop-color="#BBBBBB"/>
<stop offset="0.31" stop-color="#CCCCCC"/>
<stop offset="0.4" stop-color="#D7D7D7"/>
<stop offset="0.54" stop-color="#DEDEDE"/>
<stop offset="0.91" stop-color="#E0E0E0"/>
</linearGradient>
<linearGradient id="paint28_linear_522_7354" x1="2467.75" y1="1364.15" x2="1964.48" y2="1880.64" gradientUnits="userSpaceOnUse">
<stop stop-color="#404040"/>
<stop offset="0.05" stop-color="#5E5E5E"/>
<stop offset="0.11" stop-color="#808080"/>
<stop offset="0.19" stop-color="#9D9D9D"/>
<stop offset="0.27" stop-color="#B5B5B5"/>
<stop offset="0.36" stop-color="#C8C8C8"/>
<stop offset="0.47" stop-color="#D4D4D4"/>
<stop offset="0.61" stop-color="#DCDCDC"/>
<stop offset="0.92" stop-color="#DEDEDE"/>
</linearGradient>
<linearGradient id="paint29_linear_522_7354" x1="2467.75" y1="1087.93" x2="1964.48" y2="1604.42" gradientUnits="userSpaceOnUse">
<stop stop-color="#404040"/>
<stop offset="0.05" stop-color="#5E5E5E"/>
<stop offset="0.11" stop-color="#808080"/>
<stop offset="0.19" stop-color="#9D9D9D"/>
<stop offset="0.27" stop-color="#B5B5B5"/>
<stop offset="0.36" stop-color="#C8C8C8"/>
<stop offset="0.47" stop-color="#D4D4D4"/>
<stop offset="0.61" stop-color="#DCDCDC"/>
<stop offset="0.92" stop-color="#DEDEDE"/>
</linearGradient>
<linearGradient id="paint30_linear_522_7354" x1="1988.47" y1="1087.93" x2="1485.19" y2="1604.42" gradientUnits="userSpaceOnUse">
<stop stop-color="#404040"/>
<stop offset="0.05" stop-color="#5E5E5E"/>
<stop offset="0.11" stop-color="#808080"/>
<stop offset="0.19" stop-color="#9D9D9D"/>
<stop offset="0.27" stop-color="#B5B5B5"/>
<stop offset="0.36" stop-color="#C8C8C8"/>
<stop offset="0.47" stop-color="#D4D4D4"/>
<stop offset="0.61" stop-color="#DCDCDC"/>
<stop offset="0.92" stop-color="#DEDEDE"/>
</linearGradient>
<linearGradient id="paint31_linear_522_7354" x1="1216.03" y1="1033.43" x2="1185.37" y2="1703.32" gradientUnits="userSpaceOnUse">
<stop stop-color="#404040"/>
<stop offset="0.02" stop-color="#575757"/>
<stop offset="0.07" stop-color="#7B7B7B"/>
<stop offset="0.12" stop-color="#9B9B9B"/>
<stop offset="0.18" stop-color="#B7B7B7"/>
<stop offset="0.24" stop-color="#CDCDCD"/>
<stop offset="0.32" stop-color="#DEDEDE"/>
<stop offset="0.41" stop-color="#E9E9E9"/>
<stop offset="0.54" stop-color="#F0F0F0"/>
<stop offset="0.91" stop-color="#F2F2F2"/>
</linearGradient>
<linearGradient id="paint32_linear_522_7354" x1="1695.32" y1="757.177" x2="1664.69" y2="1427.09" gradientUnits="userSpaceOnUse">
<stop stop-color="#404040"/>
<stop offset="0.02" stop-color="#575757"/>
<stop offset="0.07" stop-color="#7B7B7B"/>
<stop offset="0.12" stop-color="#9B9B9B"/>
<stop offset="0.18" stop-color="#B7B7B7"/>
<stop offset="0.24" stop-color="#CDCDCD"/>
<stop offset="0.32" stop-color="#DEDEDE"/>
<stop offset="0.41" stop-color="#E9E9E9"/>
<stop offset="0.54" stop-color="#F0F0F0"/>
<stop offset="0.91" stop-color="#F2F2F2"/>
</linearGradient>
<linearGradient id="paint33_linear_522_7354" x1="2174.61" y1="757.177" x2="2143.98" y2="1427.09" gradientUnits="userSpaceOnUse">
<stop stop-color="#404040"/>
<stop offset="0.02" stop-color="#575757"/>
<stop offset="0.07" stop-color="#7B7B7B"/>
<stop offset="0.12" stop-color="#9B9B9B"/>
<stop offset="0.18" stop-color="#B7B7B7"/>
<stop offset="0.24" stop-color="#CDCDCD"/>
<stop offset="0.32" stop-color="#DEDEDE"/>
<stop offset="0.41" stop-color="#E9E9E9"/>
<stop offset="0.54" stop-color="#F0F0F0"/>
<stop offset="0.91" stop-color="#F2F2F2"/>
</linearGradient>
<linearGradient id="paint34_linear_522_7354" x1="1509.18" y1="811.699" x2="1005.87" y2="1328.19" gradientUnits="userSpaceOnUse">
<stop stop-color="#404040"/>
<stop offset="0.05" stop-color="#5E5E5E"/>
<stop offset="0.11" stop-color="#808080"/>
<stop offset="0.19" stop-color="#9D9D9D"/>
<stop offset="0.27" stop-color="#B5B5B5"/>
<stop offset="0.36" stop-color="#C8C8C8"/>
<stop offset="0.47" stop-color="#D4D4D4"/>
<stop offset="0.61" stop-color="#DCDCDC"/>
<stop offset="0.92" stop-color="#DEDEDE"/>
</linearGradient>
<linearGradient id="paint35_linear_522_7354" x1="736.711" y1="-346.273" x2="706.082" y2="323.613" gradientUnits="userSpaceOnUse">
<stop stop-color="#404040"/>
<stop offset="0.01" stop-color="#454545"/>
<stop offset="0.05" stop-color="#696969"/>
<stop offset="0.11" stop-color="#898989"/>
<stop offset="0.16" stop-color="#A5A5A5"/>
<stop offset="0.23" stop-color="#BBBBBB"/>
<stop offset="0.31" stop-color="#CCCCCC"/>
<stop offset="0.4" stop-color="#D7D7D7"/>
<stop offset="0.54" stop-color="#DEDEDE"/>
<stop offset="0.91" stop-color="#E0E0E0"/>
</linearGradient>
<linearGradient id="paint36_linear_522_7354" x1="257.422" y1="482.432" x2="226.793" y2="1152.32" gradientUnits="userSpaceOnUse">
<stop stop-color="#404040"/>
<stop offset="0.02" stop-color="#575757"/>
<stop offset="0.07" stop-color="#7B7B7B"/>
<stop offset="0.12" stop-color="#9B9B9B"/>
<stop offset="0.18" stop-color="#B7B7B7"/>
<stop offset="0.24" stop-color="#CDCDCD"/>
<stop offset="0.32" stop-color="#DEDEDE"/>
<stop offset="0.41" stop-color="#E9E9E9"/>
<stop offset="0.54" stop-color="#F0F0F0"/>
<stop offset="0.91" stop-color="#F2F2F2"/>
</linearGradient>
<linearGradient id="paint37_linear_522_7354" x1="257.422" y1="206.178" x2="226.793" y2="876.093" gradientUnits="userSpaceOnUse">
<stop stop-color="#404040"/>
<stop offset="0.02" stop-color="#575757"/>
<stop offset="0.07" stop-color="#7B7B7B"/>
<stop offset="0.12" stop-color="#9B9B9B"/>
<stop offset="0.18" stop-color="#B7B7B7"/>
<stop offset="0.24" stop-color="#CDCDCD"/>
<stop offset="0.32" stop-color="#DEDEDE"/>
<stop offset="0.41" stop-color="#E9E9E9"/>
<stop offset="0.54" stop-color="#F0F0F0"/>
<stop offset="0.91" stop-color="#F2F2F2"/>
</linearGradient>
<linearGradient id="paint38_linear_522_7354" x1="736.711" y1="482.432" x2="706.082" y2="1152.32" gradientUnits="userSpaceOnUse">
<stop stop-color="#404040"/>
<stop offset="0.02" stop-color="#575757"/>
<stop offset="0.07" stop-color="#7B7B7B"/>
<stop offset="0.12" stop-color="#9B9B9B"/>
<stop offset="0.18" stop-color="#B7B7B7"/>
<stop offset="0.24" stop-color="#CDCDCD"/>
<stop offset="0.32" stop-color="#DEDEDE"/>
<stop offset="0.41" stop-color="#E9E9E9"/>
<stop offset="0.54" stop-color="#F0F0F0"/>
<stop offset="0.91" stop-color="#F2F2F2"/>
</linearGradient>
<linearGradient id="paint39_linear_522_7354" x1="736.711" y1="206.178" x2="706.082" y2="876.093" gradientUnits="userSpaceOnUse">
<stop stop-color="#404040"/>
<stop offset="0.02" stop-color="#575757"/>
<stop offset="0.07" stop-color="#7B7B7B"/>
<stop offset="0.12" stop-color="#9B9B9B"/>
<stop offset="0.18" stop-color="#B7B7B7"/>
<stop offset="0.24" stop-color="#CDCDCD"/>
<stop offset="0.32" stop-color="#DEDEDE"/>
<stop offset="0.41" stop-color="#E9E9E9"/>
<stop offset="0.54" stop-color="#F0F0F0"/>
<stop offset="0.91" stop-color="#F2F2F2"/>
</linearGradient>
<linearGradient id="paint40_linear_522_7354" x1="736.711" y1="-70.0478" x2="706.082" y2="599.839" gradientUnits="userSpaceOnUse">
<stop stop-color="#404040"/>
<stop offset="0.02" stop-color="#575757"/>
<stop offset="0.07" stop-color="#7B7B7B"/>
<stop offset="0.12" stop-color="#9B9B9B"/>
<stop offset="0.18" stop-color="#B7B7B7"/>
<stop offset="0.24" stop-color="#CDCDCD"/>
<stop offset="0.32" stop-color="#DEDEDE"/>
<stop offset="0.41" stop-color="#E9E9E9"/>
<stop offset="0.54" stop-color="#F0F0F0"/>
<stop offset="0.91" stop-color="#F2F2F2"/>
</linearGradient>
<linearGradient id="paint41_linear_522_7354" x1="550.57" y1="-15.5536" x2="47.2965" y2="500.939" gradientUnits="userSpaceOnUse">
<stop stop-color="#404040"/>
<stop offset="0.05" stop-color="#5E5E5E"/>
<stop offset="0.11" stop-color="#808080"/>
<stop offset="0.19" stop-color="#9D9D9D"/>
<stop offset="0.27" stop-color="#B5B5B5"/>
<stop offset="0.36" stop-color="#C8C8C8"/>
<stop offset="0.47" stop-color="#D4D4D4"/>
<stop offset="0.61" stop-color="#DCDCDC"/>
<stop offset="0.92" stop-color="#DEDEDE"/>
</linearGradient>
<linearGradient id="paint42_linear_522_7354" x1="550.57" y1="-291.779" x2="47.2965" y2="224.714" gradientUnits="userSpaceOnUse">
<stop stop-color="#404040"/>
<stop offset="0.05" stop-color="#5E5E5E"/>
<stop offset="0.11" stop-color="#808080"/>
<stop offset="0.19" stop-color="#9D9D9D"/>
<stop offset="0.27" stop-color="#B5B5B5"/>
<stop offset="0.36" stop-color="#C8C8C8"/>
<stop offset="0.47" stop-color="#D4D4D4"/>
<stop offset="0.61" stop-color="#DCDCDC"/>
<stop offset="0.92" stop-color="#DEDEDE"/>
</linearGradient>
<linearGradient id="paint43_linear_522_7354" x1="491.89" y1="-539.307" x2="722.12" y2="-246.563" gradientUnits="userSpaceOnUse">
<stop stop-color="#404040"/>
<stop offset="0.01" stop-color="#444444"/>
<stop offset="0.06" stop-color="#6B6B6B"/>
<stop offset="0.12" stop-color="#8C8C8C"/>
<stop offset="0.19" stop-color="#A9A9A9"/>
<stop offset="0.26" stop-color="#C0C0C0"/>
<stop offset="0.35" stop-color="#D2D2D2"/>
<stop offset="0.45" stop-color="#DFDFDF"/>
<stop offset="0.59" stop-color="#E6E6E6"/>
<stop offset="0.9" stop-color="#E8E8E8"/>
</linearGradient>
<linearGradient id="paint44_linear_522_7354" x1="257.422" y1="-622.443" x2="226.793" y2="47.4433" gradientUnits="userSpaceOnUse">
<stop stop-color="#404040"/>
<stop offset="0.02" stop-color="#575757"/>
<stop offset="0.07" stop-color="#7B7B7B"/>
<stop offset="0.12" stop-color="#9B9B9B"/>
<stop offset="0.18" stop-color="#B7B7B7"/>
<stop offset="0.24" stop-color="#CDCDCD"/>
<stop offset="0.32" stop-color="#DEDEDE"/>
<stop offset="0.41" stop-color="#E9E9E9"/>
<stop offset="0.54" stop-color="#F0F0F0"/>
<stop offset="0.91" stop-color="#F2F2F2"/>
</linearGradient>
<linearGradient id="paint45_linear_522_7354" x1="1216.03" y1="482.431" x2="1185.37" y2="1152.32" gradientUnits="userSpaceOnUse">
<stop stop-color="#404040"/>
<stop offset="0.02" stop-color="#575757"/>
<stop offset="0.07" stop-color="#7B7B7B"/>
<stop offset="0.12" stop-color="#9B9B9B"/>
<stop offset="0.18" stop-color="#B7B7B7"/>
<stop offset="0.24" stop-color="#CDCDCD"/>
<stop offset="0.32" stop-color="#DEDEDE"/>
<stop offset="0.41" stop-color="#E9E9E9"/>
<stop offset="0.54" stop-color="#F0F0F0"/>
<stop offset="0.91" stop-color="#F2F2F2"/>
</linearGradient>
<linearGradient id="paint46_linear_522_7354" x1="2174.61" y1="482.432" x2="2143.98" y2="1152.32" gradientUnits="userSpaceOnUse">
<stop stop-color="#404040"/>
<stop offset="0.02" stop-color="#575757"/>
<stop offset="0.07" stop-color="#7B7B7B"/>
<stop offset="0.12" stop-color="#9B9B9B"/>
<stop offset="0.18" stop-color="#B7B7B7"/>
<stop offset="0.24" stop-color="#CDCDCD"/>
<stop offset="0.32" stop-color="#DEDEDE"/>
<stop offset="0.41" stop-color="#E9E9E9"/>
<stop offset="0.54" stop-color="#F0F0F0"/>
<stop offset="0.91" stop-color="#F2F2F2"/>
</linearGradient>
<linearGradient id="paint47_linear_522_7354" x1="2174.61" y1="206.178" x2="2143.98" y2="876.093" gradientUnits="userSpaceOnUse">
<stop stop-color="#404040"/>
<stop offset="0.02" stop-color="#575757"/>
<stop offset="0.07" stop-color="#7B7B7B"/>
<stop offset="0.12" stop-color="#9B9B9B"/>
<stop offset="0.18" stop-color="#B7B7B7"/>
<stop offset="0.24" stop-color="#CDCDCD"/>
<stop offset="0.32" stop-color="#DEDEDE"/>
<stop offset="0.41" stop-color="#E9E9E9"/>
<stop offset="0.54" stop-color="#F0F0F0"/>
<stop offset="0.91" stop-color="#F2F2F2"/>
</linearGradient>
<linearGradient id="paint48_linear_522_7354" x1="1216.03" y1="-70.0478" x2="1185.37" y2="599.839" gradientUnits="userSpaceOnUse">
<stop stop-color="#404040"/>
<stop offset="0.02" stop-color="#575757"/>
<stop offset="0.07" stop-color="#7B7B7B"/>
<stop offset="0.12" stop-color="#9B9B9B"/>
<stop offset="0.18" stop-color="#B7B7B7"/>
<stop offset="0.24" stop-color="#CDCDCD"/>
<stop offset="0.32" stop-color="#DEDEDE"/>
<stop offset="0.41" stop-color="#E9E9E9"/>
<stop offset="0.54" stop-color="#F0F0F0"/>
<stop offset="0.91" stop-color="#F2F2F2"/>
</linearGradient>
<linearGradient id="paint49_linear_522_7354" x1="1216.03" y1="206.178" x2="1185.37" y2="876.093" gradientUnits="userSpaceOnUse">
<stop stop-color="#404040"/>
<stop offset="0.02" stop-color="#575757"/>
<stop offset="0.07" stop-color="#7B7B7B"/>
<stop offset="0.12" stop-color="#9B9B9B"/>
<stop offset="0.18" stop-color="#B7B7B7"/>
<stop offset="0.24" stop-color="#CDCDCD"/>
<stop offset="0.32" stop-color="#DEDEDE"/>
<stop offset="0.41" stop-color="#E9E9E9"/>
<stop offset="0.54" stop-color="#F0F0F0"/>
<stop offset="0.91" stop-color="#F2F2F2"/>
</linearGradient>
<linearGradient id="paint50_linear_522_7354" x1="1450.47" y1="565.623" x2="1680.7" y2="858.367" gradientUnits="userSpaceOnUse">
<stop stop-color="#404040"/>
<stop offset="0.01" stop-color="#444444"/>
<stop offset="0.06" stop-color="#6B6B6B"/>
<stop offset="0.12" stop-color="#8C8C8C"/>
<stop offset="0.19" stop-color="#A9A9A9"/>
<stop offset="0.26" stop-color="#C0C0C0"/>
<stop offset="0.35" stop-color="#D2D2D2"/>
<stop offset="0.45" stop-color="#DFDFDF"/>
<stop offset="0.59" stop-color="#E6E6E6"/>
<stop offset="0.9" stop-color="#E8E8E8"/>
</linearGradient>
<linearGradient id="paint51_linear_522_7354" x1="1695.32" y1="206.178" x2="1664.69" y2="876.093" gradientUnits="userSpaceOnUse">
<stop stop-color="#404040"/>
<stop offset="0.01" stop-color="#454545"/>
<stop offset="0.05" stop-color="#696969"/>
<stop offset="0.11" stop-color="#898989"/>
<stop offset="0.16" stop-color="#A5A5A5"/>
<stop offset="0.23" stop-color="#BBBBBB"/>
<stop offset="0.31" stop-color="#CCCCCC"/>
<stop offset="0.4" stop-color="#D7D7D7"/>
<stop offset="0.54" stop-color="#DEDEDE"/>
<stop offset="0.91" stop-color="#E0E0E0"/>
</linearGradient>
<linearGradient id="paint52_linear_522_7354" x1="1695.32" y1="-70.0478" x2="1664.69" y2="599.839" gradientUnits="userSpaceOnUse">
<stop stop-color="#404040"/>
<stop offset="0.02" stop-color="#575757"/>
<stop offset="0.07" stop-color="#7B7B7B"/>
<stop offset="0.12" stop-color="#9B9B9B"/>
<stop offset="0.18" stop-color="#B7B7B7"/>
<stop offset="0.24" stop-color="#CDCDCD"/>
<stop offset="0.32" stop-color="#DEDEDE"/>
<stop offset="0.41" stop-color="#E9E9E9"/>
<stop offset="0.54" stop-color="#F0F0F0"/>
<stop offset="0.91" stop-color="#F2F2F2"/>
</linearGradient>
<linearGradient id="paint53_linear_522_7354" x1="2467.75" y1="-15.5536" x2="1964.48" y2="500.939" gradientUnits="userSpaceOnUse">
<stop stop-color="#404040"/>
<stop offset="0.05" stop-color="#5E5E5E"/>
<stop offset="0.11" stop-color="#808080"/>
<stop offset="0.19" stop-color="#9D9D9D"/>
<stop offset="0.27" stop-color="#B5B5B5"/>
<stop offset="0.36" stop-color="#C8C8C8"/>
<stop offset="0.47" stop-color="#D4D4D4"/>
<stop offset="0.61" stop-color="#DCDCDC"/>
<stop offset="0.92" stop-color="#DEDEDE"/>
</linearGradient>
<linearGradient id="paint54_linear_522_7354" x1="2467.75" y1="-291.779" x2="1964.48" y2="224.714" gradientUnits="userSpaceOnUse">
<stop stop-color="#404040"/>
<stop offset="0.05" stop-color="#5E5E5E"/>
<stop offset="0.11" stop-color="#808080"/>
<stop offset="0.19" stop-color="#9D9D9D"/>
<stop offset="0.27" stop-color="#B5B5B5"/>
<stop offset="0.36" stop-color="#C8C8C8"/>
<stop offset="0.47" stop-color="#D4D4D4"/>
<stop offset="0.61" stop-color="#DCDCDC"/>
<stop offset="0.92" stop-color="#DEDEDE"/>
</linearGradient>
<linearGradient id="paint55_linear_522_7354" x1="1988.47" y1="-291.779" x2="1485.19" y2="224.714" gradientUnits="userSpaceOnUse">
<stop stop-color="#404040"/>
<stop offset="0.05" stop-color="#5E5E5E"/>
<stop offset="0.11" stop-color="#808080"/>
<stop offset="0.19" stop-color="#9D9D9D"/>
<stop offset="0.27" stop-color="#B5B5B5"/>
<stop offset="0.36" stop-color="#C8C8C8"/>
<stop offset="0.47" stop-color="#D4D4D4"/>
<stop offset="0.61" stop-color="#DCDCDC"/>
<stop offset="0.92" stop-color="#DEDEDE"/>
</linearGradient>
<linearGradient id="paint56_linear_522_7354" x1="1216.03" y1="-346.273" x2="1185.37" y2="323.613" gradientUnits="userSpaceOnUse">
<stop stop-color="#404040"/>
<stop offset="0.02" stop-color="#575757"/>
<stop offset="0.07" stop-color="#7B7B7B"/>
<stop offset="0.12" stop-color="#9B9B9B"/>
<stop offset="0.18" stop-color="#B7B7B7"/>
<stop offset="0.24" stop-color="#CDCDCD"/>
<stop offset="0.32" stop-color="#DEDEDE"/>
<stop offset="0.41" stop-color="#E9E9E9"/>
<stop offset="0.54" stop-color="#F0F0F0"/>
<stop offset="0.91" stop-color="#F2F2F2"/>
</linearGradient>
<linearGradient id="paint57_linear_522_7354" x1="1695.32" y1="-622.499" x2="1664.69" y2="47.3882" gradientUnits="userSpaceOnUse">
<stop stop-color="#404040"/>
<stop offset="0.02" stop-color="#575757"/>
<stop offset="0.07" stop-color="#7B7B7B"/>
<stop offset="0.12" stop-color="#9B9B9B"/>
<stop offset="0.18" stop-color="#B7B7B7"/>
<stop offset="0.24" stop-color="#CDCDCD"/>
<stop offset="0.32" stop-color="#DEDEDE"/>
<stop offset="0.41" stop-color="#E9E9E9"/>
<stop offset="0.54" stop-color="#F0F0F0"/>
<stop offset="0.91" stop-color="#F2F2F2"/>
</linearGradient>
<linearGradient id="paint58_linear_522_7354" x1="2174.61" y1="-622.499" x2="2143.98" y2="47.3882" gradientUnits="userSpaceOnUse">
<stop stop-color="#404040"/>
<stop offset="0.02" stop-color="#575757"/>
<stop offset="0.07" stop-color="#7B7B7B"/>
<stop offset="0.12" stop-color="#9B9B9B"/>
<stop offset="0.18" stop-color="#B7B7B7"/>
<stop offset="0.24" stop-color="#CDCDCD"/>
<stop offset="0.32" stop-color="#DEDEDE"/>
<stop offset="0.41" stop-color="#E9E9E9"/>
<stop offset="0.54" stop-color="#F0F0F0"/>
<stop offset="0.91" stop-color="#F2F2F2"/>
</linearGradient>
<linearGradient id="paint59_linear_522_7354" x1="1509.18" y1="-568.004" x2="1005.87" y2="-51.5115" gradientUnits="userSpaceOnUse">
<stop stop-color="#404040"/>
<stop offset="0.05" stop-color="#5E5E5E"/>
<stop offset="0.11" stop-color="#808080"/>
<stop offset="0.19" stop-color="#9D9D9D"/>
<stop offset="0.27" stop-color="#B5B5B5"/>
<stop offset="0.36" stop-color="#C8C8C8"/>
<stop offset="0.47" stop-color="#D4D4D4"/>
<stop offset="0.61" stop-color="#DCDCDC"/>
<stop offset="0.92" stop-color="#DEDEDE"/>
</linearGradient>
<linearGradient id="paint60_linear_522_7354" x1="342.983" y1="2445.64" x2="1631.22" y2="-337.838" gradientUnits="userSpaceOnUse">
<stop offset="0.16" stop-color="#F2F2F2" stop-opacity="0"/>
<stop offset="0.25" stop-color="#F0F0F0" stop-opacity="0.24"/>
<stop offset="0.48" stop-color="white" stop-opacity="0.74"/>
<stop offset="0.58" stop-color="white"/>
</linearGradient>
<clipPath id="clip0_522_7354">
<rect width="3413" height="1920" fill="white" transform="translate(0 2819) rotate(-90)"/>
</clipPath>
</defs>
</svg>
