<svg width="31" height="31" viewBox="0 0 31 31" fill="none" xmlns="http://www.w3.org/2000/svg">
<mask id="mask0_636_9813" style="mask-type:alpha" maskUnits="userSpaceOnUse" x="0" y="0" width="31" height="31">
<rect width="30.3158" height="30.3158" fill="#D9D9D9"/>
</mask>
<g mask="url(#mask0_636_9813)">
<path d="M25.1368 27.2527C22.4632 27.2527 19.8105 26.6001 17.1789 25.2948C14.5474 23.9896 12.1789 22.2896 10.0737 20.1948C7.96842 18.1001 6.26316 15.7317 4.95789 13.0896C3.65263 10.4475 3 7.80008 3 5.14745C3 4.53693 3.21053 4.02114 3.63158 3.60008C4.05263 3.17903 4.56842 2.96851 5.17895 2.96851H9.6C10.2526 2.96851 10.7842 3.13693 11.1947 3.47377C11.6053 3.81061 11.8842 4.30535 12.0316 4.95798L12.8842 8.43166C12.9895 9.00008 12.9789 9.48956 12.8526 9.90008C12.7263 10.3106 12.4947 10.6632 12.1579 10.958L8.84211 13.958C9.89474 15.6211 11.0368 17.058 12.2684 18.2685C13.5 19.479 14.8737 20.5053 16.3895 21.3475L19.5474 18.158C19.9263 17.779 20.3316 17.5211 20.7632 17.3843C21.1947 17.2475 21.6737 17.2422 22.2 17.3685L25.2947 18.1264C25.9474 18.2948 26.4474 18.5896 26.7947 19.0106C27.1421 19.4317 27.3158 19.9685 27.3158 20.6211V25.0422C27.3158 25.6738 27.1053 26.2001 26.6842 26.6211C26.2632 27.0422 25.7474 27.2527 25.1368 27.2527Z" fill="#F08700"/>
</g>
</svg>
