<svg width="162" height="205" viewBox="0 0 162 205" fill="none" xmlns="http://www.w3.org/2000/svg">
<mask id="path-1-inside-1_563_5344" fill="white">
<path d="M145.188 56.6173C143.208 48.6658 138.484 41.3499 131.505 35.4287C124.526 29.5075 115.547 25.1969 105.5 22.944C95.4525 20.6912 84.7033 20.5783 74.3675 22.617C64.0316 24.6557 54.4857 28.7718 46.7204 34.5381C38.9551 40.3044 33.2533 47.5108 30.2067 55.4095C27.1601 63.3081 26.8798 71.6113 29.3947 79.4573C31.9096 87.3033 37.1282 94.4063 44.5089 100.029C51.8897 105.652 61.1636 109.59 71.3683 111.434L76.7471 96.0734C70.0615 94.8652 63.9858 92.2853 59.1503 88.6016C54.3149 84.9178 50.8959 80.2643 49.2483 75.1241C47.6007 69.9838 47.7843 64.544 49.7803 59.3692C51.7763 54.1944 55.5118 49.4732 60.5992 45.6955C65.6866 41.9177 71.9405 39.2211 78.712 37.8854C85.4835 36.5498 92.5258 36.6237 99.1081 38.0997C105.69 39.5756 111.573 42.3997 116.145 46.2789C120.717 50.1582 123.813 54.9512 125.11 60.1605L145.188 56.6173Z"/>
</mask>
<path d="M145.188 56.6173C143.208 48.6658 138.484 41.3499 131.505 35.4287C124.526 29.5075 115.547 25.1969 105.5 22.944C95.4525 20.6912 84.7033 20.5783 74.3675 22.617C64.0316 24.6557 54.4857 28.7718 46.7204 34.5381C38.9551 40.3044 33.2533 47.5108 30.2067 55.4095C27.1601 63.3081 26.8798 71.6113 29.3947 79.4573C31.9096 87.3033 37.1282 94.4063 44.5089 100.029C51.8897 105.652 61.1636 109.59 71.3683 111.434L76.7471 96.0734C70.0615 94.8652 63.9858 92.2853 59.1503 88.6016C54.3149 84.9178 50.8959 80.2643 49.2483 75.1241C47.6007 69.9838 47.7843 64.544 49.7803 59.3692C51.7763 54.1944 55.5118 49.4732 60.5992 45.6955C65.6866 41.9177 71.9405 39.2211 78.712 37.8854C85.4835 36.5498 92.5258 36.6237 99.1081 38.0997C105.69 39.5756 111.573 42.3997 116.145 46.2789C120.717 50.1582 123.813 54.9512 125.11 60.1605L145.188 56.6173Z" stroke="#242331" stroke-width="4.5" mask="url(#path-1-inside-1_563_5344)"/>
<mask id="path-2-inside-2_563_5344" fill="white">
<path d="M137.799 55.7335C135.819 47.782 131.094 40.4661 124.115 34.5449C117.136 28.6237 108.158 24.3131 98.1105 22.0602C88.0634 19.8074 77.3142 19.6945 66.9783 21.7332C56.6425 23.7719 47.0966 27.888 39.3313 33.6543C31.566 39.4206 25.8642 46.627 22.8176 54.5257C19.771 62.4243 19.4906 70.7275 22.0055 78.5735C24.5205 86.4195 29.7391 93.5225 37.1198 99.1453C44.5005 104.768 53.7744 108.706 63.9792 110.55L69.358 95.1896C62.6724 93.9814 56.5966 91.4016 51.7612 87.7178C46.9257 84.034 43.5068 79.3806 41.8591 74.2403C40.2115 69.1 40.3952 63.6602 42.3911 58.4854C44.3871 53.3107 48.1226 48.5894 53.21 44.8117C58.2974 41.0339 64.5514 38.3373 71.3228 37.0016C78.0943 35.666 85.1366 35.7399 91.7189 37.2159C98.3013 38.6918 104.184 41.5159 108.756 45.3951C113.328 49.2744 116.424 54.0674 117.721 59.2767L137.799 55.7335Z"/>
</mask>
<path d="M137.799 55.7335C135.819 47.782 131.094 40.4661 124.115 34.5449C117.136 28.6237 108.158 24.3131 98.1105 22.0602C88.0634 19.8074 77.3142 19.6945 66.9783 21.7332C56.6425 23.7719 47.0966 27.888 39.3313 33.6543C31.566 39.4206 25.8642 46.627 22.8176 54.5257C19.771 62.4243 19.4906 70.7275 22.0055 78.5735C24.5205 86.4195 29.7391 93.5225 37.1198 99.1453C44.5005 104.768 53.7744 108.706 63.9792 110.55L69.358 95.1896C62.6724 93.9814 56.5966 91.4016 51.7612 87.7178C46.9257 84.034 43.5068 79.3806 41.8591 74.2403C40.2115 69.1 40.3952 63.6602 42.3911 58.4854C44.3871 53.3107 48.1226 48.5894 53.21 44.8117C58.2974 41.0339 64.5514 38.3373 71.3228 37.0016C78.0943 35.666 85.1366 35.7399 91.7189 37.2159C98.3013 38.6918 104.184 41.5159 108.756 45.3951C113.328 49.2744 116.424 54.0674 117.721 59.2767L137.799 55.7335Z" stroke="#242331" stroke-width="4.5" mask="url(#path-2-inside-2_563_5344)"/>
<mask id="path-3-inside-3_563_5344" fill="white">
<path d="M20.506 157.63C23.2888 165.422 28.7421 172.399 36.3001 177.836C43.858 183.272 53.2453 186.971 63.4876 188.548C73.7299 190.124 84.4542 189.521 94.5474 186.802C104.641 184.082 113.735 179.345 120.887 173.082C128.039 166.818 132.988 159.257 135.221 151.182C137.453 143.107 136.887 134.814 133.582 127.162C130.277 119.51 124.353 112.778 116.425 107.666C108.497 102.553 98.8539 99.2456 88.496 98.0868L84.699 113.753C91.4848 114.512 97.8026 116.679 102.997 120.029C108.191 123.378 112.072 127.788 114.237 132.801C116.402 137.815 116.773 143.248 115.31 148.538C113.848 153.828 110.606 158.782 105.92 162.886C101.234 166.989 95.2761 170.093 88.6635 171.874C82.051 173.656 75.025 174.051 68.3148 173.018C61.6046 171.985 55.4546 169.562 50.503 166C45.5515 162.438 41.9787 157.868 40.1556 152.762L20.506 157.63Z"/>
</mask>
<path d="M20.506 157.63C23.2888 165.422 28.7421 172.399 36.3001 177.836C43.858 183.272 53.2453 186.971 63.4876 188.548C73.7299 190.124 84.4542 189.521 94.5474 186.802C104.641 184.082 113.735 179.345 120.887 173.082C128.039 166.818 132.988 159.257 135.221 151.182C137.453 143.107 136.887 134.814 133.582 127.162C130.277 119.51 124.353 112.778 116.425 107.666C108.497 102.553 98.8539 99.2456 88.496 98.0868L84.699 113.753C91.4848 114.512 97.8026 116.679 102.997 120.029C108.191 123.378 112.072 127.788 114.237 132.801C116.402 137.815 116.773 143.248 115.31 148.538C113.848 153.828 110.606 158.782 105.92 162.886C101.234 166.989 95.2761 170.093 88.6635 171.874C82.051 173.656 75.025 174.051 68.3148 173.018C61.6046 171.985 55.4546 169.562 50.503 166C45.5515 162.438 41.9787 157.868 40.1556 152.762L20.506 157.63Z" stroke="#242331" stroke-width="4.5" mask="url(#path-3-inside-3_563_5344)"/>
<mask id="path-4-inside-4_563_5344" fill="white">
<path d="M32.6193 160.073C35.4021 167.866 40.8554 174.842 48.4134 180.279C55.9714 185.716 65.3586 189.414 75.6009 190.991C85.8432 192.568 96.5675 191.965 106.661 189.245C116.754 186.526 125.849 181.788 133.001 175.525C140.153 169.261 145.102 161.7 147.334 153.625C149.566 145.551 149 137.257 145.695 129.605C142.39 121.953 136.466 115.222 128.538 110.109C120.61 104.996 110.967 101.689 100.609 100.53L96.8123 116.196C103.598 116.956 109.916 119.122 115.11 122.472C120.304 125.821 124.185 130.232 126.35 135.245C128.515 140.258 128.886 145.692 127.424 150.982C125.961 156.272 122.719 161.225 118.033 165.329C113.348 169.432 107.389 172.536 100.777 174.318C94.1643 176.099 87.1383 176.494 80.4281 175.461C73.7179 174.429 67.5679 172.005 62.6163 168.444C57.6648 164.882 54.092 160.311 52.2689 155.206L32.6193 160.073Z"/>
</mask>
<path d="M32.6193 160.073C35.4021 167.866 40.8554 174.842 48.4134 180.279C55.9714 185.716 65.3586 189.414 75.6009 190.991C85.8432 192.568 96.5675 191.965 106.661 189.245C116.754 186.526 125.849 181.788 133.001 175.525C140.153 169.261 145.102 161.7 147.334 153.625C149.566 145.551 149 137.257 145.695 129.605C142.39 121.953 136.466 115.222 128.538 110.109C120.61 104.996 110.967 101.689 100.609 100.53L96.8123 116.196C103.598 116.956 109.916 119.122 115.11 122.472C120.304 125.821 124.185 130.232 126.35 135.245C128.515 140.258 128.886 145.692 127.424 150.982C125.961 156.272 122.719 161.225 118.033 165.329C113.348 169.432 107.389 172.536 100.777 174.318C94.1643 176.099 87.1383 176.494 80.4281 175.461C73.7179 174.429 67.5679 172.005 62.6163 168.444C57.6648 164.882 54.092 160.311 52.2689 155.206L32.6193 160.073Z" stroke="#242331" stroke-width="4.5" mask="url(#path-4-inside-4_563_5344)"/>
<line y1="-3.375" x2="224.285" y2="-3.375" transform="matrix(0.439603 -0.898192 0.952434 0.304746 27.2524 204.275)" stroke="#242331" stroke-width="6.75"/>
<line y1="-3.375" x2="224.285" y2="-3.375" transform="matrix(0.439603 -0.898192 0.952434 0.304746 42.3916 204.275)" stroke="#242331" stroke-width="6.75"/>
</svg>
