<svg width="52" height="48" viewBox="0 0 52 48" fill="none" xmlns="http://www.w3.org/2000/svg">
<path d="M44.3065 40.8992H36.6017V29.761C36.6017 27.105 36.5504 23.6859 32.5944 23.6859C28.5815 23.6859 27.9675 26.5797 27.9675 29.5676V40.8985H20.2627V17.9938H27.6593V21.124H27.7629C28.5031 19.9556 29.5727 18.9945 30.8579 18.343C32.143 17.6914 33.5956 17.3739 35.0608 17.4241C42.8699 17.4241 44.3097 22.1656 44.3097 28.3341L44.3065 40.8992ZM11.5692 14.8629C10.6849 14.863 9.82035 14.6211 9.08498 14.1677C8.34961 13.7143 7.77645 13.0698 7.43789 12.3157C7.09933 11.5615 7.0106 10.7317 7.18296 9.93101C7.35533 9.13035 7.78104 8.39485 8.40623 7.81752C9.03143 7.2402 9.82804 6.84697 10.6953 6.68757C11.5626 6.52817 12.4616 6.60976 13.2787 6.92201C14.0958 7.23427 14.7942 7.76317 15.2856 8.44183C15.777 9.12049 16.0394 9.91844 16.0396 10.7348C16.0397 11.2768 15.9241 11.8135 15.6995 12.3143C15.4749 12.8151 15.1457 13.2701 14.7306 13.6535C14.3155 14.0368 13.8226 14.3409 13.2802 14.5484C12.7377 14.7559 12.1564 14.8628 11.5692 14.8629ZM15.4216 40.8992H7.70878V17.9938H15.4216V40.8992ZM48.1476 0.00327032H3.83715C2.83142 -0.00720657 1.86229 0.351327 1.14279 1.00008C0.423285 1.64884 0.0122743 2.53475 0 3.46313V44.5362C0.0118542 45.465 0.422623 46.3515 1.1421 47.0009C1.86158 47.6504 2.83092 48.0096 3.83715 47.9997H48.1476C49.1558 48.0114 50.1279 47.6532 50.8502 47.0038C51.5725 46.3544 51.986 45.4668 52 44.5362V3.46017C51.9856 2.52994 51.5718 1.64303 50.8495 0.994288C50.1271 0.345546 49.1553 -0.0119629 48.1476 0.000305644" fill="#21619C"/>
</svg>
