<svg width="51" height="64" viewBox="0 0 51 64" fill="none" xmlns="http://www.w3.org/2000/svg">
<mask id="path-1-inside-1_818_4925" fill="white">
<path d="M45.3565 17.6874C44.7379 15.2033 43.2619 12.9178 41.0817 11.0681C38.9015 9.21828 36.0965 7.87164 32.9578 7.16785C29.8191 6.46407 26.461 6.42879 23.2321 7.06569C20.0032 7.70258 17.0211 8.98844 14.5952 10.7898C12.1693 12.5912 10.3881 14.8425 9.43633 17.31C8.48458 19.7776 8.39699 22.3715 9.18265 24.8226C9.96831 27.2736 11.5986 29.4926 13.9043 31.2492C16.2101 33.0057 19.1072 34.2359 22.2952 34.812L23.9755 30.0134C21.8869 29.636 19.9889 28.83 18.4783 27.6792C16.9677 26.5284 15.8996 25.0747 15.3849 23.4689C14.8702 21.863 14.9276 20.1637 15.5511 18.5471C16.1746 16.9305 17.3416 15.4555 18.9309 14.2754C20.5202 13.0952 22.4739 12.2528 24.5893 11.8355C26.7048 11.4183 28.9048 11.4414 30.9611 11.9025C33.0174 12.3635 34.8551 13.2458 36.2834 14.4577C37.7118 15.6695 38.6788 17.1669 39.0841 18.7943L45.3565 17.6874Z"/>
</mask>
<path d="M45.3565 17.6874C44.7379 15.2033 43.2619 12.9178 41.0817 11.0681C38.9015 9.21828 36.0965 7.87164 32.9578 7.16785C29.8191 6.46407 26.461 6.42879 23.2321 7.06569C20.0032 7.70258 17.0211 8.98844 14.5952 10.7898C12.1693 12.5912 10.3881 14.8425 9.43633 17.31C8.48458 19.7776 8.39699 22.3715 9.18265 24.8226C9.96831 27.2736 11.5986 29.4926 13.9043 31.2492C16.2101 33.0057 19.1072 34.2359 22.2952 34.812L23.9755 30.0134C21.8869 29.636 19.9889 28.83 18.4783 27.6792C16.9677 26.5284 15.8996 25.0747 15.3849 23.4689C14.8702 21.863 14.9276 20.1637 15.5511 18.5471C16.1746 16.9305 17.3416 15.4555 18.9309 14.2754C20.5202 13.0952 22.4739 12.2528 24.5893 11.8355C26.7048 11.4183 28.9048 11.4414 30.9611 11.9025C33.0174 12.3635 34.8551 13.2458 36.2834 14.4577C37.7118 15.6695 38.6788 17.1669 39.0841 18.7943L45.3565 17.6874Z" stroke="#292F36" stroke-width="1.4058" mask="url(#path-1-inside-1_818_4925)"/>
<mask id="path-2-inside-2_818_4925" fill="white">
<path d="M43.0484 17.4112C42.4298 14.9272 40.9538 12.6417 38.7736 10.7919C36.5934 8.94216 33.7884 7.59551 30.6497 6.89173C27.511 6.18795 24.1529 6.15267 20.924 6.78957C17.6951 7.42646 14.713 8.71232 12.2871 10.5137C9.86121 12.3151 8.07998 14.5664 7.12822 17.0339C6.17647 19.5014 6.08888 22.0954 6.87454 24.5464C7.66021 26.9975 9.29049 29.2165 11.5962 30.9731C13.902 32.7296 16.7991 33.9598 19.9871 34.5359L21.6674 29.7373C19.5788 29.3599 17.6808 28.5539 16.1702 27.4031C14.6596 26.2523 13.5915 24.7986 13.0768 23.1927C12.5621 21.5869 12.6195 19.8875 13.243 18.2709C13.8665 16.6543 15.0335 15.1794 16.6228 13.9993C18.2121 12.8191 20.1658 11.9767 22.2812 11.5594C24.3966 11.1421 26.5967 11.1653 28.653 11.6263C30.7093 12.0874 32.547 12.9697 33.9753 14.1815C35.4037 15.3934 36.3707 16.8907 36.776 18.5181L43.0484 17.4112Z"/>
</mask>
<path d="M43.0484 17.4112C42.4298 14.9272 40.9538 12.6417 38.7736 10.7919C36.5934 8.94216 33.7884 7.59551 30.6497 6.89173C27.511 6.18795 24.1529 6.15267 20.924 6.78957C17.6951 7.42646 14.713 8.71232 12.2871 10.5137C9.86121 12.3151 8.07998 14.5664 7.12822 17.0339C6.17647 19.5014 6.08888 22.0954 6.87454 24.5464C7.66021 26.9975 9.29049 29.2165 11.5962 30.9731C13.902 32.7296 16.7991 33.9598 19.9871 34.5359L21.6674 29.7373C19.5788 29.3599 17.6808 28.5539 16.1702 27.4031C14.6596 26.2523 13.5915 24.7986 13.0768 23.1927C12.5621 21.5869 12.6195 19.8875 13.243 18.2709C13.8665 16.6543 15.0335 15.1794 16.6228 13.9993C18.2121 12.8191 20.1658 11.9767 22.2812 11.5594C24.3966 11.1421 26.5967 11.1653 28.653 11.6263C30.7093 12.0874 32.547 12.9697 33.9753 14.1815C35.4037 15.3934 36.3707 16.8907 36.776 18.5181L43.0484 17.4112Z" stroke="#292F36" stroke-width="1.4058" mask="url(#path-2-inside-2_818_4925)"/>
<mask id="path-3-inside-3_818_4925" fill="white">
<path d="M6.40575 49.2434C7.27509 51.6779 8.97871 53.8574 11.3398 55.5558C13.7009 57.2542 16.6335 58.4096 19.8332 58.9022C23.0329 59.3947 26.3831 59.2064 29.5363 58.3568C32.6894 57.5072 35.5305 56.0273 37.7648 54.0706C39.9991 52.1139 41.5451 49.7517 42.2425 47.2292C42.9399 44.7067 42.7631 42.1158 41.7306 39.7253C40.6982 37.3348 38.8475 35.2318 36.3708 33.6347C33.8941 32.0375 30.8816 31.0043 27.6458 30.6422L26.4596 35.5364C28.5795 35.7736 30.5532 36.4505 32.1758 37.4969C33.7984 38.5432 35.0108 39.921 35.6872 41.4871C36.3637 43.0532 36.4794 44.7507 36.0226 46.4033C35.5657 48.0559 34.5528 49.6034 33.089 50.8854C31.6252 52.1673 29.7639 53.1368 27.6981 53.6935C25.6324 54.2501 23.4375 54.3734 21.3412 54.0507C19.2449 53.7281 17.3237 52.9711 15.7768 51.8584C14.2299 50.7457 13.1138 49.3178 12.5443 47.7229L6.40575 49.2434Z"/>
</mask>
<path d="M6.40575 49.2434C7.27509 51.6779 8.97871 53.8574 11.3398 55.5558C13.7009 57.2542 16.6335 58.4096 19.8332 58.9022C23.0329 59.3947 26.3831 59.2064 29.5363 58.3568C32.6894 57.5072 35.5305 56.0273 37.7648 54.0706C39.9991 52.1139 41.5451 49.7517 42.2425 47.2292C42.9399 44.7067 42.7631 42.1158 41.7306 39.7253C40.6982 37.3348 38.8475 35.2318 36.3708 33.6347C33.8941 32.0375 30.8816 31.0043 27.6458 30.6422L26.4596 35.5364C28.5795 35.7736 30.5532 36.4505 32.1758 37.4969C33.7984 38.5432 35.0108 39.921 35.6872 41.4871C36.3637 43.0532 36.4794 44.7507 36.0226 46.4033C35.5657 48.0559 34.5528 49.6034 33.089 50.8854C31.6252 52.1673 29.7639 53.1368 27.6981 53.6935C25.6324 54.2501 23.4375 54.3734 21.3412 54.0507C19.2449 53.7281 17.3237 52.9711 15.7768 51.8584C14.2299 50.7457 13.1138 49.3178 12.5443 47.7229L6.40575 49.2434Z" stroke="#292F36" stroke-width="1.4058" mask="url(#path-3-inside-3_818_4925)"/>
<mask id="path-4-inside-4_818_4925" fill="white">
<path d="M10.1904 50.0066C11.0598 52.441 12.7634 54.6206 15.1245 56.319C17.4856 58.0174 20.4182 59.1728 23.6179 59.6653C26.8176 60.1579 30.1678 59.9696 33.3209 59.12C36.4741 58.2704 39.3152 56.7905 41.5495 54.8338C43.7838 52.8771 45.3298 50.5149 46.0272 47.9924C46.7245 45.4699 46.5478 42.8789 45.5153 40.4885C44.4828 38.098 42.6322 35.995 40.1555 34.3978C37.6788 32.8007 34.6662 31.7675 31.4305 31.4054L30.2443 36.2996C32.3642 36.5368 34.3378 37.2137 35.9604 38.26C37.583 39.3064 38.7955 40.6842 39.4719 42.2503C40.1483 43.8164 40.2641 45.5138 39.8072 47.1664C39.3504 48.8191 38.3375 50.3666 36.8737 51.6485C35.4099 52.9305 33.5486 53.9 31.4828 54.4566C29.417 55.0133 27.2221 55.1366 25.1259 54.8139C23.0296 54.4913 21.1084 53.7343 19.5615 52.6216C18.0146 51.5089 16.8985 50.081 16.3289 48.486L10.1904 50.0066Z"/>
</mask>
<path d="M10.1904 50.0066C11.0598 52.441 12.7634 54.6206 15.1245 56.319C17.4856 58.0174 20.4182 59.1728 23.6179 59.6653C26.8176 60.1579 30.1678 59.9696 33.3209 59.12C36.4741 58.2704 39.3152 56.7905 41.5495 54.8338C43.7838 52.8771 45.3298 50.5149 46.0272 47.9924C46.7245 45.4699 46.5478 42.8789 45.5153 40.4885C44.4828 38.098 42.6322 35.995 40.1555 34.3978C37.6788 32.8007 34.6662 31.7675 31.4305 31.4054L30.2443 36.2996C32.3642 36.5368 34.3378 37.2137 35.9604 38.26C37.583 39.3064 38.7955 40.6842 39.4719 42.2503C40.1483 43.8164 40.2641 45.5138 39.8072 47.1664C39.3504 48.8191 38.3375 50.3666 36.8737 51.6485C35.4099 52.9305 33.5486 53.9 31.4828 54.4566C29.417 55.0133 27.2221 55.1366 25.1259 54.8139C23.0296 54.4913 21.1084 53.7343 19.5615 52.6216C18.0146 51.5089 16.8985 50.081 16.3289 48.486L10.1904 50.0066Z" stroke="#292F36" stroke-width="1.4058" mask="url(#path-4-inside-4_818_4925)"/>
<line y1="-1.05435" x2="70.0663" y2="-1.05435" transform="matrix(0.439603 -0.898192 0.952434 0.304746 8.51367 63.8154)" stroke="#292F36" stroke-width="2.1087"/>
<line y1="-1.05435" x2="70.0663" y2="-1.05435" transform="matrix(0.439603 -0.898192 0.952434 0.304746 13.2432 63.8154)" stroke="#292F36" stroke-width="2.1087"/>
</svg>
