<svg width="30" height="30" viewBox="0 0 30 30" fill="none" xmlns="http://www.w3.org/2000/svg">
<mask id="mask0_636_9810" style="mask-type:alpha" maskUnits="userSpaceOnUse" x="0" y="0" width="30" height="30">
<rect width="30" height="30" fill="#D9D9D9"/>
</mask>
<g mask="url(#mask0_636_9810)">
<path d="M4.65625 25.781C3.84375 25.781 3.15104 25.4945 2.57812 24.9216C2.00521 24.3487 1.71875 23.656 1.71875 22.8435V7.15601C1.71875 6.34351 2.00521 5.64559 2.57812 5.06226C3.15104 4.47892 3.84375 4.18726 4.65625 4.18726H25.3438C26.1562 4.18726 26.8542 4.47892 27.4375 5.06226C28.0208 5.64559 28.3125 6.34351 28.3125 7.15601V22.8435C28.3125 23.656 28.0208 24.3487 27.4375 24.9216C26.8542 25.4945 26.1562 25.781 25.3438 25.781H4.65625ZM15 16.2498C15.1458 16.2498 15.2812 16.2289 15.4062 16.1873C15.5312 16.1456 15.6667 16.0831 15.8125 15.9998L24.9062 9.90601C25.0104 9.84351 25.1094 9.73934 25.2031 9.59351C25.2969 9.44767 25.3438 9.28101 25.3438 9.09351C25.3438 8.71851 25.1719 8.41642 24.8281 8.18726C24.4844 7.95809 24.1354 7.96851 23.7812 8.21851L15 13.9685L6.25 8.21851C5.89583 7.98934 5.54167 7.96851 5.1875 8.15601C4.83333 8.34351 4.65625 8.64559 4.65625 9.06226C4.65625 9.24976 4.70833 9.41642 4.8125 9.56226C4.91667 9.70809 5.02083 9.82267 5.125 9.90601L14.1875 15.9998C14.3333 16.0831 14.4688 16.1456 14.5938 16.1873C14.7188 16.2289 14.8542 16.2498 15 16.2498Z" fill="#F08700"/>
</g>
</svg>
