<svg width="147" height="124" viewBox="0 0 147 124" fill="none" xmlns="http://www.w3.org/2000/svg">
<path d="M102.979 121.854C101.917 121.854 100.943 121.648 100.057 121.235C99.1719 120.822 98.434 120.32 97.8438 119.729L81.0208 102.907C79.7222 101.608 79.0729 100.132 79.0729 98.4795C79.0729 96.8267 79.7812 95.351 81.1979 94.0524C82.2604 92.9899 83.6476 92.4587 85.3594 92.4587C87.0712 92.4587 88.5174 92.9899 89.6979 94.0524L102.979 107.334L136.448 73.8649C137.51 72.6844 138.927 72.0941 140.698 72.0941C142.469 72.0941 143.944 72.6844 145.125 73.8649C146.306 75.1635 146.896 76.6392 146.896 78.292C146.896 79.9448 146.306 81.4205 145.125 82.7191L108.115 119.729C107.406 120.32 106.639 120.822 105.812 121.235C104.986 121.648 104.042 121.854 102.979 121.854ZM60.6562 60.0524C51.8021 60.0524 44.6302 57.2781 39.1406 51.7295C33.651 46.1809 30.9062 39.0975 30.9062 30.4795C30.9062 21.7434 33.651 14.601 39.1406 9.05241C44.6302 3.5038 51.8021 0.729492 60.6562 0.729492C69.2743 0.729492 76.3872 3.5038 81.9948 9.05241C87.6024 14.601 90.4062 21.7434 90.4062 30.4795C90.4062 39.0975 87.6024 46.1809 81.9948 51.7295C76.3872 57.2781 69.2743 60.0524 60.6562 60.0524ZM8.0625 123.979C5.81944 123.979 4.0191 123.301 2.66146 121.943C1.30382 120.585 0.625 118.844 0.625 116.719V103.792C0.625 99.4239 1.80556 95.2625 4.16667 91.3076C6.52778 87.3528 9.89236 84.4309 14.2604 82.542C23.1146 78.5281 31.2899 75.6653 38.7865 73.9535C46.283 72.2416 53.5729 71.3857 60.6562 71.3857C64.0799 71.3857 68.0938 71.6809 72.6979 72.2712C77.3021 72.8614 81.6701 73.6288 85.8021 74.5732L68.0937 92.2816C66.0868 94.2885 65.0538 96.7677 64.9948 99.7191C64.9358 102.67 65.9687 105.15 68.0937 107.157L84.9167 123.979H8.0625Z" fill="#25CED1"/>
</svg>
